M48
; DRILL file {KiCad 9.0.9} date 2026-10-03T19:23:46-0400
; FORMAT={-:-/ absolute / metric / decimal}
; #@! TF.CreationDate,2026-10-03T19:23:46-04:00
; #@! TF.GenerationSoftware,Kicad,Pcbnew,9.0.9
; #@! TF.FileFunction,Plated,1,2,PTH
FMAT,2
METRIC
; #@! TA.AperFunction,Plated,PTH,ViaDrill
T1C0.400
; #@! TA.AperFunction,Plated,PTH,ComponentDrill
T2C0.760
; #@! TA.AperFunction,Plated,PTH,ComponentDrill
T3C0.800
; #@! TA.AperFunction,Plated,PTH,ComponentDrill
T4C0.900
; #@! TA.AperFunction,Plated,PTH,ComponentDrill
T5C1.000
; #@! TA.AperFunction,Plated,PTH,ComponentDrill
T6C1.100
; #@! TA.AperFunction,Plated,PTH,ComponentDrill
T7C1.200
%
G90
G05
T1
X45.0Y-32.5
X57.75Y-27.75
X57.75Y-36.5
X61.5Y-56.0
X69.0Y-68.0
X73.279Y-42.037
X76.073Y-27.813
X80.0Y-53.5
X80.5Y-46.75
X84.5Y-72.0
X86.25Y-34.5
X87.75Y-36.5
X90.0Y-65.5
X90.75Y-45.75
X96.5Y-59.0
X106.934Y-50.038
X109.0Y-60.0
X110.4Y-32.6
X111.0Y-48.25
X114.75Y-38.0
X116.84Y-40.132
X124.968Y-34.544
X125.0Y-73.0
X125.5Y-27.5
X130.0Y-35.5
X133.2Y-65.5
T2
X120.36Y-45.392
X120.36Y-47.932
X120.36Y-50.472
X120.36Y-53.012
X122.9Y-46.663
X122.9Y-49.203
X122.9Y-51.742
X122.9Y-54.282
T3
X38.14Y-39.57
X38.14Y-62.43
X40.68Y-39.57
X40.68Y-62.43
X43.22Y-39.57
X43.22Y-62.43
X45.76Y-39.57
X45.76Y-62.43
X48.3Y-39.57
X48.3Y-62.43
X50.84Y-39.57
X50.84Y-62.43
X53.38Y-39.57
X53.38Y-62.43
X55.92Y-39.57
X55.92Y-62.43
X58.46Y-39.57
X58.46Y-62.43
X61.0Y-39.57
X61.0Y-62.43
X63.54Y-39.57
X63.54Y-62.43
X66.08Y-39.57
X66.08Y-62.43
X68.62Y-39.57
X68.62Y-62.43
X71.16Y-39.57
X71.16Y-62.43
X73.7Y-39.57
X73.7Y-62.43
X76.24Y-39.57
X76.24Y-62.43
X78.78Y-39.57
X78.78Y-62.43
X81.32Y-39.57
X81.32Y-62.43
X83.86Y-39.57
X83.86Y-62.43
T4
X62.475Y-70.25
X65.015Y-70.25
T5
X95.059Y-70.739
X97.599Y-70.739
X100.139Y-70.739
X102.679Y-70.739
T6
X48.5Y-68.0
X48.5Y-72.5
X55.0Y-68.0
X55.0Y-72.5
T7
X48.8Y-29.4
X78.1Y-72.0
X81.8Y-72.0
X109.7Y-28.4
X110.6Y-43.5
X111.5Y-55.3
X127.8Y-60.8
M30
