%TF.GenerationSoftware,KiCad,Pcbnew,9.0.9*%
%TF.CreationDate,2026-10-03T19:23:45-04:00*%
%TF.ProjectId,OnionStraws,4f6e696f-6e53-4747-9261-77732e6b6963,rev?*%
%TF.SameCoordinates,Original*%
%TF.FileFunction,Soldermask,Bot*%
%TF.FilePolarity,Negative*%
%FSLAX46Y46*%
G04 Gerber Fmt 4.6, Leading zero omitted, Abs format (unit mm)*
G04 Created by KiCad (PCBNEW 9.0.9) date 2026-10-03 19:23:45*
%MOMM*%
%LPD*%
G01*
G04 APERTURE LIST*
%ADD10C,2.500000*%
%ADD11C,3.200000*%
%ADD12R,1.500000X1.500000*%
%ADD13C,1.500000*%
%ADD14R,1.800000X1.800000*%
%ADD15C,1.800000*%
%ADD16C,2.000000*%
%ADD17R,1.700000X1.700000*%
%ADD18O,1.700000X1.700000*%
%ADD19R,1.200000X2.000000*%
%ADD20O,1.200000X2.000000*%
G04 APERTURE END LIST*
D10*
%TO.C,TP6*%
X109700000Y-28400000D03*
%TD*%
%TO.C,TP3*%
X81800000Y-72000000D03*
%TD*%
D11*
%TO.C,H4*%
X131000000Y-29000000D03*
%TD*%
%TO.C,H3*%
X131000000Y-71000000D03*
%TD*%
D10*
%TO.C,TP1*%
X127800000Y-60800000D03*
%TD*%
D11*
%TO.C,J2*%
X129250000Y-55552500D03*
X129250000Y-44122500D03*
D12*
X122900000Y-54282500D03*
D13*
X120360000Y-53012500D03*
X122900000Y-51742500D03*
X120360000Y-50472500D03*
X122900000Y-49202500D03*
X120360000Y-47932500D03*
X122900000Y-46662500D03*
X120360000Y-45392500D03*
%TD*%
D14*
%TO.C,D6*%
X62475000Y-70250000D03*
D15*
X65015000Y-70250000D03*
%TD*%
D11*
%TO.C,H1*%
X39000000Y-29000000D03*
%TD*%
D16*
%TO.C,SW1*%
X55000000Y-72500000D03*
X48500000Y-72500000D03*
X55000000Y-68000000D03*
X48500000Y-68000000D03*
%TD*%
D10*
%TO.C,TP5*%
X78100000Y-72000000D03*
%TD*%
%TO.C,TP7*%
X48800000Y-29400000D03*
%TD*%
D11*
%TO.C,H2*%
X39000000Y-71000000D03*
%TD*%
D17*
%TO.C,J1*%
X102679500Y-70739000D03*
D18*
X100139500Y-70739000D03*
X97599500Y-70739000D03*
X95059500Y-70739000D03*
%TD*%
D10*
%TO.C,TP2*%
X110600000Y-43500000D03*
%TD*%
D19*
%TO.C,U3*%
X38140000Y-62430000D03*
D20*
X40680000Y-62430000D03*
X43220000Y-62430000D03*
X45760000Y-62430000D03*
X48300000Y-62430000D03*
X50840000Y-62430000D03*
X53380000Y-62430000D03*
X55920000Y-62430000D03*
X58460000Y-62430000D03*
X61000000Y-62430000D03*
X63540000Y-62430000D03*
X66080000Y-62430000D03*
X68620000Y-62430000D03*
X71160000Y-62430000D03*
X73700000Y-62430000D03*
X76240000Y-62430000D03*
X78780000Y-62430000D03*
X81320000Y-62430000D03*
X83860000Y-62430000D03*
X83860000Y-39570000D03*
X81320000Y-39570000D03*
X78780000Y-39570000D03*
X76240000Y-39570000D03*
X73700000Y-39570000D03*
X71160000Y-39570000D03*
X68620000Y-39570000D03*
X66080000Y-39570000D03*
X63540000Y-39570000D03*
X61000000Y-39570000D03*
X58460000Y-39570000D03*
X55920000Y-39570000D03*
X53380000Y-39570000D03*
X50840000Y-39570000D03*
X48300000Y-39570000D03*
X45760000Y-39570000D03*
X43220000Y-39570000D03*
X40680000Y-39570000D03*
X38140000Y-39570000D03*
%TD*%
D10*
%TO.C,TP4*%
X111500000Y-55300000D03*
%TD*%
M02*
