<?xml version="1.0" standalone="no"?>
 <!DOCTYPE svg PUBLIC "-//W3C//DTD SVG 1.1//EN" 
 "http://www.w3.org/Graphics/SVG/1.1/DTD/svg11.dtd"> 
<svg
  xmlns:svg="http://www.w3.org/2000/svg"
  xmlns="http://www.w3.org/2000/svg"
  xmlns:xlink="http://www.w3.org/1999/xlink"
  version="1.1"
  width="100.5078mm" height="40.0812mm" viewBox="0.0000 0.0000 100.5078 40.0812">
<title>SVG Image created as rev3b-copper-in1-cu.svg date 2026/10/01 09:27:16 </title>
  <desc>Image generated by PCBNEW </desc>
<g style="fill:#000000; fill-opacity:1.0000;stroke:#000000; stroke-opacity:1.0000;
stroke-linecap:round; stroke-linejoin:round;"
 transform="translate(0 0) scale(1 1)">
<path style="fill:#7FC87F; fill-opacity:1.0000; stroke:none;fill-rule:evenodd;"
d="M 13.7450,11.8500
15.2450,11.8500
15.2450,13.3500
13.7450,13.3500
Z" /> 
</g>
<g style="fill:#7FC87F; fill-opacity:1.0000; stroke:none;">
<circle cx="17.0350" cy="13.8700" r="0.7500" /> 
</g>
<g style="fill:#7FC87F; fill-opacity:1.0000; stroke:none;">
<circle cx="14.4950" cy="15.1400" r="0.7500" /> 
</g>
<g style="fill:#7FC87F; fill-opacity:1.0000; stroke:none;">
<circle cx="17.0350" cy="16.4100" r="0.7500" /> 
</g>
<g style="fill:#7FC87F; fill-opacity:1.0000; stroke:none;">
<circle cx="14.4950" cy="17.6800" r="0.7500" /> 
</g>
<g style="fill:#7FC87F; fill-opacity:1.0000; stroke:none;">
<circle cx="17.0350" cy="18.9500" r="0.7500" /> 
</g>
<g style="fill:#7FC87F; fill-opacity:1.0000; stroke:none;">
<circle cx="14.4950" cy="20.2200" r="0.7500" /> 
</g>
<g style="fill:#7FC87F; fill-opacity:1.0000; stroke:none;">
<circle cx="17.0350" cy="21.4900" r="0.7500" /> 
</g>
<g style="fill:#7FC87F; fill-opacity:1.0000; stroke:none;">
<circle cx="32.6570" cy="20.2532" r="0.4000" /> 
</g>
<g style="fill:#7FC87F; fill-opacity:1.0000; stroke:none;">
<circle cx="36.3570" cy="11.2698" r="0.4000" /> 
</g>
<g style="fill:#7FC87F; fill-opacity:1.0000; stroke:none;">
<circle cx="81.1691" cy="31.2049" r="0.4000" /> 
</g>
<g style="fill:#7FC87F; fill-opacity:1.0000; stroke:none;">
<circle cx="81.2461" cy="24.7107" r="0.4000" /> 
</g>
<g style="fill:#7FC87F; fill-opacity:1.0000; stroke:none;">
<circle cx="79.9321" cy="28.0311" r="0.4000" /> 
</g>
<g style="fill:#7FC87F; fill-opacity:1.0000; stroke:none;">
<circle cx="86.5250" cy="24.7500" r="0.4000" /> 
</g>
<g style="fill:#7FC87F; fill-opacity:1.0000; stroke:none;">
<circle cx="73.2250" cy="38.0500" r="0.4000" /> 
</g>
<g style="fill:#7FC87F; fill-opacity:1.0000; stroke:none;">
<circle cx="91.0969" cy="28.2367" r="0.4000" /> 
</g>
<g style="fill:#7FC87F; fill-opacity:1.0000; stroke:none;">
<circle cx="78.3250" cy="39.0500" r="0.4000" /> 
</g>
<g style="fill:#7FC87F; fill-opacity:1.0000; stroke:none;">
<circle cx="85.3510" cy="34.3829" r="0.4000" /> 
</g>
<g style="fill:#7FC87F; fill-opacity:1.0000; stroke:none;">
<circle cx="31.4750" cy="38.6500" r="0.4000" /> 
</g>
<g style="fill:#7FC87F; fill-opacity:1.0000; stroke:none;">
<circle cx="78.3050" cy="20.0497" r="0.4000" /> 
</g>
<g style="fill:#7FC87F; fill-opacity:1.0000; stroke:none;">
<circle cx="26.1309" cy="9.0843" r="0.4000" /> 
</g>
<g style="fill:#7FC87F; fill-opacity:1.0000; stroke:none;">
<circle cx="86.8788" cy="7.4983" r="0.4000" /> 
</g>
<g style="fill:#7FC87F; fill-opacity:1.0000; stroke:none;">
<circle cx="40.8895" cy="5.7755" r="0.4000" /> 
</g>
<g style="fill:#7FC87F; fill-opacity:1.0000; stroke:none;">
<circle cx="81.3510" cy="28.8086" r="0.4000" /> 
</g>
<g style="fill:#7FC87F; fill-opacity:1.0000; stroke:none;">
<circle cx="88.9133" cy="31.5313" r="0.4000" /> 
</g>
<g style="fill:#7FC87F; fill-opacity:1.0000; stroke:none;">
<circle cx="89.7050" cy="2.0320" r="0.4000" /> 
</g>
<g style="fill:#7FC87F; fill-opacity:1.0000; stroke:none;">
<circle cx="91.3781" cy="2.5595" r="0.4000" /> 
</g>
<g style="fill:#7FC87F; fill-opacity:1.0000; stroke:none;">
<circle cx="74.3246" cy="30.7216" r="0.4000" /> 
</g>
<g style="fill:#7FC87F; fill-opacity:1.0000; stroke:none;">
<circle cx="32.9061" cy="12.4172" r="0.4000" /> 
</g>
<g style="fill:#7FC87F; fill-opacity:1.0000; stroke:none;">
<circle cx="73.9876" cy="15.7328" r="0.4000" /> 
</g>
<g style="fill:#7FC87F; fill-opacity:1.0000; stroke:none;">
<circle cx="36.8790" cy="30.8084" r="0.4000" /> 
</g>
<g style="fill:#7FC87F; fill-opacity:1.0000; stroke:none;">
<circle cx="35.8513" cy="14.3878" r="0.4000" /> 
</g>
<g style="fill:#7FC87F; fill-opacity:1.0000; stroke:none;">
<circle cx="23.3293" cy="8.1006" r="0.4000" /> 
</g>
<g style="fill:#7FC87F; fill-opacity:1.0000; stroke:none;">
<circle cx="26.2170" cy="31.2738" r="0.4000" /> 
</g>
<g style="fill:#7FC87F; fill-opacity:1.0000; stroke:none;">
<circle cx="25.9790" cy="34.6681" r="0.4000" /> 
</g>
<g style="fill:#7FC87F; fill-opacity:1.0000; stroke:none;">
<circle cx="38.1222" cy="9.9279" r="0.4000" /> 
</g>
<g style="fill:#7FC87F; fill-opacity:1.0000; stroke:none;">
<circle cx="78.2591" cy="21.2133" r="0.4000" /> 
</g>
<g style="fill:#7FC87F; fill-opacity:1.0000; stroke:none;">
<circle cx="25.2721" cy="13.4406" r="0.4000" /> 
</g>
<g style="fill:#7FC87F; fill-opacity:1.0000; stroke:none;">
<circle cx="31.9200" cy="7.8009" r="0.4000" /> 
</g>
<g style="fill:#7FC87F; fill-opacity:1.0000; stroke:none;">
<circle cx="38.4711" cy="28.6095" r="0.4000" /> 
</g>
<g style="fill:#7FC87F; fill-opacity:1.0000; stroke:none;">
<circle cx="23.2732" cy="19.5148" r="0.4000" /> 
</g>
<g style="fill:#7FC87F; fill-opacity:1.0000; stroke:none;">
<circle cx="20.1868" cy="9.0077" r="0.4000" /> 
</g>
<g style="fill:#7FC87F; fill-opacity:1.0000; stroke:none;">
<circle cx="73.0250" cy="32.0500" r="0.4000" /> 
</g>
<g style="fill:#7FC87F; fill-opacity:1.0000; stroke:none;">
<circle cx="70.3250" cy="9.3500" r="0.4000" /> 
</g>
<g style="fill:#7FC87F; fill-opacity:1.0000; stroke:none;">
<circle cx="83.9250" cy="39.0500" r="0.4000" /> 
</g>
<g style="fill:#7FC87F; fill-opacity:1.0000; stroke:none;">
<circle cx="62.1750" cy="10.2500" r="0.4000" /> 
</g>
<g style="fill:#7FC87F; fill-opacity:1.0000; stroke:none;">
<circle cx="18.0250" cy="21.4900" r="0.4000" /> 
</g>
<g style="fill:#7FC87F; fill-opacity:1.0000; stroke:none;">
<circle cx="36.0250" cy="22.0500" r="0.4000" /> 
</g>
<g style="fill:#7FC87F; fill-opacity:1.0000; stroke:none;">
<circle cx="36.0250" cy="15.5500" r="0.4000" /> 
</g>
<g style="fill:#7FC87F; fill-opacity:1.0000; stroke:none;">
<circle cx="55.5250" cy="4.0500" r="0.4000" /> 
</g>
<g style="fill:#7FC87F; fill-opacity:1.0000; stroke:none;">
<circle cx="26.7250" cy="15.5500" r="0.4000" /> 
</g>
<g style="fill:#7FC87F; fill-opacity:1.0000; stroke:none;">
<circle cx="70.3250" cy="20.0500" r="0.4000" /> 
</g>
<g style="fill:#7FC87F; fill-opacity:1.0000; stroke:none;">
<circle cx="69.0250" cy="32.0500" r="0.4000" /> 
</g>
<g style="fill:#7FC87F; fill-opacity:1.0000; stroke:none;">
<circle cx="54.7250" cy="36.2500" r="0.4000" /> 
</g>
<g style="fill:#7FC87F; fill-opacity:1.0000; stroke:none;">
<circle cx="81.2750" cy="26.5500" r="0.4000" /> 
</g>
<g style="fill:#7FC87F; fill-opacity:1.0000; stroke:none;">
<circle cx="68.5250" cy="26.3500" r="0.4000" /> 
</g>
<g style="fill:#7FC87F; fill-opacity:1.0000; stroke:none;">
<circle cx="48.5250" cy="38.0500" r="0.4000" /> 
</g>
<g style="fill:#7FC87F; fill-opacity:1.0000; stroke:none;">
<circle cx="47.1250" cy="34.0500" r="0.4000" /> 
</g>
<g style="fill:#7FC87F; fill-opacity:1.0000; stroke:none;">
<circle cx="19.5250" cy="22.3000" r="0.4000" /> 
</g>
<g style="fill:#7FC87F; fill-opacity:1.0000; stroke:none;">
<circle cx="90.5250" cy="24.0500" r="0.4000" /> 
</g>
<g style="fill:#7FC87F; fill-opacity:1.0000; stroke:none;">
<circle cx="58.2750" cy="19.8000" r="0.4000" /> 
</g>
<g style="fill:#7FC87F; fill-opacity:1.0000; stroke:none;">
<circle cx="26.7250" cy="22.0500" r="0.4000" /> 
</g>
<g style="fill:#7FC87F; fill-opacity:1.0000; stroke:none;">
<circle cx="68.5250" cy="11.5500" r="0.4000" /> 
</g>
<g style="fill:#7FC87F; fill-opacity:1.0000; stroke:none;">
<circle cx="21.2750" cy="13.8000" r="0.4000" /> 
</g>
<g style="fill:#7FC87F; fill-opacity:1.0000; stroke:none;">
<circle cx="62.1750" cy="24.7500" r="0.4000" /> 
</g>
<g style="fill:#7FC87F; fill-opacity:1.0000; stroke:none;">
<circle cx="81.9441" cy="32.6772" r="0.4000" /> 
</g>
<g style="fill:#7FC87F; fill-opacity:1.0000; stroke:none;">
<circle cx="85.7778" cy="28.7355" r="0.4000" /> 
</g>
<g style="fill:#7FC87F; fill-opacity:1.0000; stroke:none;">
<circle cx="81.6629" cy="30.2003" r="0.4000" /> 
</g>
<g style="fill:#7FC87F; fill-opacity:1.0000; stroke:none;">
<circle cx="78.2557" cy="23.6565" r="0.4000" /> 
</g>
<g style="fill:#7FC87F; fill-opacity:1.0000; stroke:none;">
<circle cx="86.5250" cy="30.9500" r="0.4000" /> 
</g>
<g style="fill:#7FC87F; fill-opacity:1.0000; stroke:none;">
<circle cx="90.5250" cy="25.5500" r="0.4000" /> 
</g>
<g style="fill:#7FC87F; fill-opacity:1.0000; stroke:none;">
<circle cx="25.7744" cy="24.6706" r="0.4000" /> 
</g>
<g style="fill:#7FC87F; fill-opacity:1.0000; stroke:none;">
<circle cx="37.4826" cy="17.6847" r="0.4000" /> 
</g>
<g style="fill:#7FC87F; fill-opacity:1.0000; stroke:none;">
<circle cx="25.9854" cy="12.6113" r="0.4000" /> 
</g>
<g style="fill:#7FC87F; fill-opacity:1.0000; stroke:none;">
<circle cx="29.5232" cy="12.5199" r="0.4000" /> 
</g>
<g style="fill:#7FC87F; fill-opacity:1.0000; stroke:none;">
<circle cx="26.3705" cy="19.7351" r="0.4000" /> 
</g>
<g style="fill:#7FC87F; fill-opacity:1.0000; stroke:none;">
<circle cx="31.4032" cy="24.7852" r="0.4000" /> 
</g>
<g style="fill:#7FC87F; fill-opacity:1.0000; stroke:none;">
<circle cx="36.3958" cy="8.1173" r="0.4000" /> 
</g>
<g style="fill:#7FC87F; fill-opacity:1.0000; stroke:none;">
<circle cx="31.0478" cy="19.7089" r="0.4000" /> 
</g>
<g style="fill:#7FC87F; fill-opacity:1.0000; stroke:none;">
<circle cx="25.3490" cy="15.7369" r="0.4000" /> 
</g>
<g style="fill:#7FC87F; fill-opacity:1.0000; stroke:none;">
<circle cx="34.8213" cy="30.0806" r="0.4000" /> 
</g>
<g style="fill:#7FC87F; fill-opacity:1.0000; stroke:none;">
<circle cx="40.9020" cy="8.5402" r="0.4000" /> 
</g>
<g style="fill:#7FC87F; fill-opacity:1.0000; stroke:none;">
<circle cx="73.5250" cy="22.4736" r="0.4000" /> 
</g>
<g style="fill:#7FC87F; fill-opacity:1.0000; stroke:none;">
<circle cx="72.0472" cy="9.8445" r="0.4000" /> 
</g>
<g style="fill:#7FC87F; fill-opacity:1.0000; stroke:none;">
<circle cx="44.1428" cy="21.4725" r="0.4000" /> 
</g>
<g style="fill:#7FC87F; fill-opacity:1.0000; stroke:none;">
<circle cx="58.6853" cy="23.3247" r="0.4000" /> 
</g>
<g style="fill:#7FC87F; fill-opacity:1.0000; stroke:none;">
<circle cx="63.3195" cy="16.6414" r="0.4000" /> 
</g>
<g style="fill:#7FC87F; fill-opacity:1.0000; stroke:none;">
<circle cx="52.4250" cy="31.8500" r="0.4000" /> 
</g>
<g style="fill:#7FC87F; fill-opacity:1.0000; stroke:none;">
<circle cx="65.3250" cy="33.7500" r="0.4000" /> 
</g>
<g style="fill:#7FC87F; fill-opacity:1.0000; stroke:none;">
<circle cx="57.8947" cy="21.3498" r="0.4000" /> 
</g>
<g style="fill:#7FC87F; fill-opacity:1.0000; stroke:none;">
<circle cx="54.9953" cy="26.4783" r="0.4000" /> 
</g>
<g style="fill:#7FC87F; fill-opacity:1.0000; stroke:none;">
<circle cx="78.4328" cy="24.7239" r="0.4000" /> 
</g>
<g style="fill:#7FC87F; fill-opacity:1.0000; stroke:none;">
<circle cx="38.1210" cy="31.0135" r="0.4000" /> 
</g>
<g style="fill:#7FC87F; fill-opacity:1.0000; stroke:none;">
<circle cx="25.7793" cy="8.0689" r="0.4000" /> 
</g>
<g style="fill:#7FC87F; fill-opacity:1.0000; stroke:none;">
<circle cx="25.3042" cy="27.9850" r="0.4000" /> 
</g>
<g style="fill:#7FC87F; fill-opacity:1.0000; stroke:none;">
<circle cx="81.7690" cy="9.0333" r="0.4000" /> 
</g>
<g style="fill:#7FC87F; fill-opacity:1.0000; stroke:none;">
<circle cx="33.7926" cy="34.8287" r="0.4000" /> 
</g>
<g style="fill:#7FC87F; fill-opacity:1.0000; stroke:none;">
<circle cx="88.6130" cy="10.3796" r="0.4000" /> 
</g>
<g style="fill:#7FC87F; fill-opacity:1.0000; stroke:none;">
<circle cx="14.3130" cy="34.6681" r="0.4000" /> 
</g>
<g style="fill:#7FC87F; fill-opacity:1.0000; stroke:none;">
<circle cx="34.1530" cy="2.0320" r="0.4000" /> 
</g>
<g style="fill:#7FC87F; fill-opacity:1.0000; stroke:none;">
<circle cx="29.3041" cy="30.2893" r="0.4000" /> 
</g>
<g style="fill:#7FC87F; fill-opacity:1.0000; stroke:none;">
<circle cx="18.2810" cy="27.3589" r="0.4000" /> 
<path style="fill:#7FC87F; fill-opacity:1.0000; stroke:none;fill-rule:evenodd;"
d="M 99.1171,0.4200
99.1636,0.4737
99.1750,0.5260
99.1750,39.5740
99.1550,39.6421
99.1013,39.6886
99.0490,39.7000
78.9685,39.7000
78.9004,39.6800
78.8539,39.6263
78.8438,39.5561
78.8673,39.5028
78.8657,39.5017
78.8712,39.4934
78.9458,39.3818
78.9986,39.2543
79.0255,39.1190
79.0255,38.9810
78.9986,38.8457
78.9458,38.7182
78.8691,38.6035
78.8691,38.6035
78.7715,38.5059
78.7715,38.5059
78.7335,38.4804
78.6568,38.4292
78.5423,38.3818
78.5293,38.3764
78.5293,38.3764
78.3940,38.3495
78.3940,38.3495
78.2560,38.3495
78.2560,38.3495
78.1207,38.3764
78.1207,38.3764
77.9932,38.4292
77.8785,38.5059
77.8785,38.5059
77.7809,38.6035
77.7809,38.6035
77.7042,38.7182
77.6514,38.8457
77.6514,38.8457
77.6245,38.9810
77.6245,39.1190
77.6514,39.2543
77.6514,39.2543
77.6709,39.3014
77.7042,39.3818
77.7718,39.4829
77.7843,39.5017
77.7826,39.5029
77.8066,39.5594
77.7946,39.6294
77.7467,39.6818
77.6815,39.7000
1.0010,39.7000
0.9329,39.6800
0.8864,39.6263
0.8750,39.5740
0.8750,38.5810
30.7745,38.5810
30.7745,38.5810
30.7745,38.7190
30.8014,38.8543
30.8542,38.9818
30.9054,39.0585
30.9309,39.0965
30.9309,39.0965
31.0285,39.1941
31.0285,39.1941
31.1432,39.2708
31.2707,39.3236
31.4060,39.3505
31.4060,39.3505
31.5440,39.3505
31.5440,39.3505
31.6793,39.3236
31.8068,39.2708
31.9215,39.1941
32.0191,39.0965
32.0958,38.9818
32.1486,38.8543
32.1755,38.7190
32.1755,38.5810
32.1486,38.4457
32.0958,38.3182
32.0191,38.2035
32.0191,38.2035
31.9215,38.1059
31.9215,38.1059
31.9215,38.1059
31.8068,38.0292
31.7264,37.9959
31.6904,37.9810
72.5245,37.9810
72.5245,37.9810
72.5245,38.1190
72.5514,38.2543
72.6042,38.3818
72.6359,38.4292
72.6809,38.4965
72.6809,38.4965
72.7785,38.5941
72.7785,38.5941
72.8932,38.6708
73.0207,38.7236
73.1560,38.7505
73.1560,38.7505
73.2940,38.7505
73.2940,38.7505
73.4293,38.7236
73.5568,38.6708
73.6715,38.5941
73.7691,38.4965
73.8458,38.3818
73.8986,38.2543
73.9255,38.1190
73.9255,37.9810
73.8986,37.8457
73.8458,37.7182
73.7691,37.6035
73.7691,37.6035
73.6715,37.5059
73.6715,37.5059
73.6335,37.4804
73.5568,37.4292
73.4764,37.3959
73.4293,37.3764
73.4293,37.3764
73.2940,37.3495
73.2940,37.3495
73.1560,37.3495
73.1560,37.3495
73.0207,37.3764
73.0207,37.3764
72.8932,37.4292
72.7785,37.5059
72.7785,37.5059
72.6809,37.6035
72.6809,37.6035
72.6042,37.7182
72.5514,37.8457
72.5514,37.8457
72.5245,37.9810
31.6904,37.9810
31.6793,37.9764
31.6793,37.9764
31.5440,37.9495
31.5440,37.9495
31.4060,37.9495
31.4060,37.9495
31.2707,37.9764
31.2707,37.9764
31.1432,38.0292
31.0285,38.1059
31.0285,38.1059
30.9309,38.2035
30.9309,38.2035
30.8542,38.3182
30.8014,38.4457
30.8014,38.4457
30.7745,38.5810
0.8750,38.5810
0.8750,32.9287
3.1745,32.9287
3.1745,33.1713
3.2062,33.4118
3.2689,33.6461
3.2689,33.6461
3.2689,33.6461
3.3618,33.8702
3.3618,33.8702
3.3618,33.8702
3.4831,34.0803
3.4831,34.0803
3.4831,34.0803
3.6307,34.2727
3.6307,34.2727
3.6307,34.2727
3.8023,34.4443
3.8023,34.4443
3.8023,34.4443
3.9947,34.5919
3.9947,34.5919
4.2048,34.7132
4.2048,34.7132
4.2048,34.7132
4.4289,34.8061
4.6632,34.8688
4.6632,34.8688
4.6632,34.8688
4.7252,34.8770
4.9037,34.9005
4.9037,34.9005
5.1463,34.9005
5.1463,34.9005
5.3636,34.8719
5.3868,34.8688
5.3868,34.8688
5.3868,34.8688
5.6211,34.8061
5.8452,34.7132
6.0429,34.5991
13.6125,34.5991
13.6125,34.7371
13.6170,34.7597
13.6394,34.8724
13.6922,34.9999
13.7300,35.0565
13.7689,35.1146
13.7689,35.1146
13.8665,35.2122
13.8665,35.2122
13.9812,35.2889
14.1087,35.3417
14.2440,35.3686
14.2440,35.3686
14.3820,35.3686
14.3820,35.3686
14.5173,35.3417
14.6448,35.2889
14.7595,35.2122
14.8571,35.1146
14.9338,34.9999
14.9866,34.8724
15.0135,34.7371
15.0135,34.5991
15.0135,34.5991
25.2785,34.5991
25.2785,34.7371
25.2830,34.7597
25.3054,34.8724
25.3582,34.9999
25.3960,35.0565
25.4349,35.1146
25.4349,35.1146
25.5325,35.2122
25.5325,35.2122
25.6472,35.2889
25.7747,35.3417
25.9100,35.3686
25.9100,35.3686
26.0480,35.3686
26.0480,35.3686
26.1833,35.3417
26.3108,35.2889
26.4255,35.2122
26.5231,35.1146
26.5998,34.9999
26.6526,34.8724
26.6750,34.7597
33.0921,34.7597
33.0921,34.8977
33.1132,35.0037
33.1190,35.0330
33.1718,35.1605
33.2064,35.2122
33.2485,35.2752
33.2485,35.2752
33.3461,35.3728
33.3461,35.3728
33.4608,35.4495
33.5883,35.5023
33.7236,35.5292
33.7236,35.5292
33.8616,35.5292
33.8616,35.5292
33.9969,35.5023
34.1244,35.4495
34.2391,35.3728
34.3367,35.2752
34.4134,35.1605
34.4662,35.0330
34.4931,34.8977
34.4931,34.7597
34.4662,34.6244
34.4134,34.4969
34.3367,34.3822
34.3367,34.3822
34.2391,34.2846
34.2391,34.2846
34.1571,34.2298
34.1244,34.2079
34.0440,34.1746
33.9969,34.1551
33.9969,34.1551
33.8616,34.1282
33.8616,34.1282
33.7236,34.1282
33.7236,34.1282
33.5883,34.1551
33.5883,34.1551
33.4608,34.2079
33.3461,34.2846
33.3461,34.2846
33.2485,34.3822
33.2485,34.3822
33.1718,34.4969
33.1190,34.6244
33.1190,34.6244
33.0921,34.7597
26.6750,34.7597
26.6795,34.7371
26.6795,34.5991
26.6526,34.4638
26.5998,34.3363
26.5231,34.2216
26.5231,34.2216
26.4255,34.1240
26.4255,34.1240
26.3875,34.0985
26.3108,34.0473
26.2304,34.0140
26.1833,33.9945
26.1833,33.9945
26.0480,33.9676
26.0480,33.9676
25.9100,33.9676
25.9100,33.9676
25.7747,33.9945
25.7747,33.9945
25.6472,34.0473
25.5325,34.1240
25.5325,34.1240
25.4349,34.2216
25.4349,34.2216
25.3582,34.3363
25.3054,34.4638
25.3054,34.4638
25.2785,34.5991
15.0135,34.5991
14.9866,34.4638
14.9338,34.3363
14.8571,34.2216
14.8571,34.2216
14.7595,34.1240
14.7595,34.1240
14.7215,34.0985
14.6448,34.0473
14.5644,34.0140
14.5173,33.9945
14.5173,33.9945
14.3820,33.9676
14.3820,33.9676
14.2440,33.9676
14.2440,33.9676
14.1087,33.9945
14.1087,33.9945
13.9812,34.0473
13.8665,34.1240
13.8665,34.1240
13.7689,34.2216
13.7689,34.2216
13.6922,34.3363
13.6394,34.4638
13.6394,34.4638
13.6125,34.5991
6.0429,34.5991
6.0553,34.5919
6.2477,34.4443
6.4193,34.2727
6.5669,34.0803
6.6882,33.8702
6.7666,33.6810
64.6245,33.6810
64.6245,33.8190
64.6514,33.9543
64.7042,34.0818
64.7324,34.1240
64.7809,34.1965
64.7809,34.1965
64.8785,34.2941
64.8785,34.2941
64.9932,34.3708
65.1207,34.4236
65.2560,34.4505
65.2560,34.4505
65.3940,34.4505
65.3940,34.4505
65.5293,34.4236
65.6568,34.3708
65.7419,34.3139
84.6505,34.3139
84.6505,34.4519
84.6594,34.4969
84.6774,34.5872
84.7302,34.7147
84.7603,34.7597
84.8069,34.8294
84.8069,34.8294
84.9045,34.9270
84.9045,34.9270
85.0192,35.0037
85.1467,35.0565
85.2820,35.0834
85.2820,35.0834
85.4200,35.0834
85.4200,35.0834
85.5553,35.0565
85.6828,35.0037
85.7950,34.9287
92.6745,34.9287
92.6745,35.1713
92.7062,35.4118
92.7689,35.6461
92.7689,35.6461
92.7689,35.6461
92.8618,35.8702
92.8618,35.8702
92.8618,35.8702
92.9831,36.0803
92.9831,36.0803
92.9831,36.0803
93.1307,36.2727
93.1307,36.2727
93.1307,36.2727
93.3023,36.4443
93.3023,36.4443
93.3023,36.4443
93.4947,36.5919
93.4947,36.5919
93.7048,36.7132
93.7048,36.7132
93.7048,36.7132
93.9289,36.8061
94.1632,36.8688
94.1632,36.8688
94.1632,36.8688
94.2252,36.8770
94.4037,36.9005
94.4037,36.9005
94.6463,36.9005
94.6463,36.9005
94.8636,36.8719
94.8868,36.8688
94.8868,36.8688
94.8868,36.8688
95.1211,36.8061
95.3452,36.7132
95.5553,36.5919
95.7477,36.4443
95.9193,36.2727
96.0669,36.0803
96.1882,35.8702
96.2811,35.6461
96.3438,35.4118
96.3755,35.1713
96.3755,34.9287
96.3438,34.6882
96.2811,34.4539
96.1882,34.2298
96.1882,34.2298
96.1882,34.2298
96.0669,34.0197
96.0476,33.9945
95.9193,33.8273
95.9193,33.8273
95.9193,33.8273
95.7477,33.6557
95.7477,33.6557
95.7477,33.6557
95.5553,33.5081
95.5553,33.5081
95.5553,33.5081
95.3452,33.3868
95.3452,33.3868
95.3452,33.3868
95.1211,33.2939
95.1211,33.2939
95.1211,33.2939
94.8868,33.2312
94.6463,33.1995
94.6463,33.1995
94.4037,33.1995
94.4037,33.1995
94.1632,33.2312
93.9289,33.2939
93.9289,33.2939
93.7267,33.3777
93.7048,33.3868
93.7048,33.3868
93.4947,33.5081
93.3023,33.6557
93.3023,33.6557
93.1307,33.8273
93.1307,33.8273
92.9831,34.0197
92.8618,34.2298
92.8618,34.2298
92.8618,34.2298
92.8177,34.3363
92.7689,34.4539
92.7689,34.4539
92.7062,34.6882
92.6745,34.9287
85.7950,34.9287
85.7975,34.9270
85.8269,34.8977
85.8891,34.8355
85.8951,34.8294
85.8951,34.8294
85.9718,34.7147
86.0246,34.5872
86.0515,34.4519
86.0515,34.3139
86.0246,34.1786
85.9718,34.0511
85.8951,33.9364
85.8951,33.9364
85.7975,33.8388
85.7975,33.8388
85.7595,33.8133
85.6828,33.7621
85.6024,33.7288
85.5553,33.7093
85.5553,33.7093
85.4200,33.6824
85.4200,33.6824
85.2820,33.6824
85.2820,33.6824
85.1467,33.7093
85.1467,33.7093
85.0192,33.7621
84.9045,33.8388
84.9045,33.8388
84.8069,33.9364
84.8069,33.9364
84.7302,34.0511
84.6774,34.1786
84.6774,34.1786
84.6505,34.3139
65.7419,34.3139
65.7715,34.2941
65.7929,34.2727
65.8470,34.2186
65.8691,34.1965
65.8691,34.1965
65.9458,34.0818
65.9986,33.9543
66.0255,33.8190
66.0255,33.6810
65.9986,33.5457
65.9458,33.4182
65.8691,33.3035
65.8691,33.3035
65.7715,33.2059
65.7715,33.2059
65.7335,33.1804
65.6568,33.1292
65.5764,33.0959
65.5293,33.0764
65.5293,33.0764
65.3940,33.0495
65.3940,33.0495
65.2560,33.0495
65.2560,33.0495
65.1207,33.0764
65.1207,33.0764
64.9932,33.1292
64.8785,33.2059
64.8785,33.2059
64.7809,33.3035
64.7809,33.3035
64.7042,33.4182
64.6514,33.5457
64.6514,33.5457
64.6245,33.6810
6.7666,33.6810
6.7811,33.6461
6.8438,33.4118
6.8755,33.1713
6.8755,32.9287
6.8438,32.6882
6.8224,32.6082
81.2436,32.6082
81.2436,32.6082
81.2436,32.7462
81.2705,32.8815
81.3233,33.0090
81.3504,33.0495
81.4000,33.1237
81.4000,33.1237
81.4976,33.2213
81.4976,33.2213
81.6123,33.2980
81.7398,33.3508
81.8751,33.3777
81.8751,33.3777
82.0131,33.3777
82.0131,33.3777
82.1484,33.3508
82.2759,33.2980
82.3906,33.2213
82.4882,33.1237
82.5649,33.0090
82.6177,32.8815
82.6446,32.7462
82.6446,32.6082
82.6177,32.4729
82.5649,32.3454
82.4882,32.2307
82.4882,32.2307
82.3906,32.1331
82.3906,32.1331
82.3526,32.1076
82.2759,32.0564
82.1955,32.0231
82.1484,32.0036
82.1484,32.0036
82.0131,31.9767
82.0131,31.9767
81.8751,31.9767
81.8751,31.9767
81.7398,32.0036
81.7398,32.0036
81.6123,32.0564
81.4976,32.1331
81.4976,32.1331
81.4000,32.2307
81.4000,32.2307
81.3233,32.3454
81.2705,32.4729
81.2705,32.4729
81.2436,32.6082
6.8224,32.6082
6.7811,32.4539
6.6882,32.2298
6.6882,32.2298
6.6882,32.2298
6.5669,32.0197
6.5669,32.0197
6.4193,31.8273
6.4193,31.8273
6.4193,31.8273
6.2477,31.6557
6.2477,31.6557
6.2477,31.6557
6.0553,31.5081
6.0553,31.5081
6.0553,31.5081
5.8452,31.3868
5.8452,31.3868
5.8452,31.3868
5.6211,31.2939
5.6211,31.2939
5.6211,31.2939
5.3868,31.2312
5.1866,31.2048
25.5165,31.2048
25.5165,31.3428
25.5434,31.4781
25.5434,31.4781
25.5558,31.5081
25.5962,31.6056
25.6269,31.6514
25.6729,31.7203
25.6729,31.7203
25.7705,31.8179
25.7705,31.8179
25.8852,31.8946
26.0127,31.9474
26.1480,31.9743
26.1480,31.9743
26.2860,31.9743
26.2860,31.9743
26.4213,31.9474
26.5488,31.8946
26.6635,31.8179
26.7005,31.7810
51.7245,31.7810
51.7245,31.9190
51.7514,32.0543
51.7514,32.0543
51.7602,32.0754
51.8042,32.1818
51.8369,32.2307
51.8809,32.2965
51.8809,32.2965
51.9785,32.3941
51.9785,32.3941
52.0932,32.4708
52.2207,32.5236
52.3560,32.5505
52.3560,32.5505
52.4940,32.5505
52.4940,32.5505
52.6293,32.5236
52.7568,32.4708
52.8715,32.3941
52.9691,32.2965
53.0458,32.1818
53.0986,32.0543
53.1255,31.9190
53.1255,31.7810
53.0986,31.6457
53.0458,31.5182
52.9691,31.4035
52.9691,31.4035
52.8715,31.3059
52.8715,31.3059
52.8237,31.2739
52.7568,31.2292
52.6764,31.1959
52.6293,31.1764
52.6293,31.1764
52.4940,31.1495
52.4940,31.1495
52.3560,31.1495
52.3560,31.1495
52.2207,31.1764
52.2207,31.1764
52.0932,31.2292
51.9785,31.3059
51.9785,31.3059
51.8809,31.4035
51.8809,31.4035
51.8042,31.5182
51.7514,31.6457
51.7514,31.6457
51.7245,31.7810
26.7005,31.7810
26.7611,31.7203
26.8378,31.6056
26.8906,31.4781
26.9175,31.3428
26.9175,31.2048
26.8906,31.0695
26.8378,30.9420
26.7611,30.8273
26.7611,30.8273
26.6635,30.7297
26.6635,30.7297
26.6212,30.7014
26.5488,30.6530
26.4306,30.6041
26.4213,30.6002
26.4213,30.6002
26.2860,30.5733
26.2860,30.5733
26.1480,30.5733
26.1480,30.5733
26.0127,30.6002
26.0127,30.6002
25.8852,30.6530
25.7705,30.7297
25.7705,30.7297
25.6729,30.8273
25.6729,30.8273
25.5962,30.9420
25.5434,31.0695
25.5434,31.0695
25.5165,31.2048
5.1866,31.2048
5.1463,31.1995
5.1463,31.1995
4.9037,31.1995
4.9037,31.1995
4.6632,31.2312
4.4289,31.2939
4.4289,31.2939
4.2064,31.3861
4.2048,31.3868
4.2048,31.3868
3.9947,31.5081
3.8023,31.6557
3.8023,31.6557
3.6307,31.8273
3.6307,31.8273
3.4831,32.0197
3.3618,32.2298
3.3618,32.2298
3.2689,32.4539
3.2689,32.4539
3.2062,32.6882
3.1745,32.9287
0.8750,32.9287
0.8750,30.2203
28.6036,30.2203
28.6036,30.3583
28.6305,30.4936
28.6305,30.4936
28.6346,30.5035
28.6833,30.6211
28.7325,30.6946
28.7600,30.7358
28.7600,30.7358
28.8576,30.8334
28.8576,30.8334
28.9723,30.9101
29.0998,30.9629
29.2351,30.9898
29.2351,30.9898
29.3731,30.9898
29.3731,30.9898
29.5084,30.9629
29.6359,30.9101
29.7506,30.8334
29.8482,30.7358
29.9249,30.6211
29.9777,30.4936
30.0046,30.3583
30.0046,30.2203
29.9777,30.0850
29.9624,30.0480
29.9512,30.0211
29.9473,30.0116
34.1208,30.0116
34.1208,30.1496
34.1458,30.2751
34.1477,30.2849
34.2005,30.4124
34.2517,30.4891
34.2772,30.5271
34.2772,30.5271
34.3748,30.6247
34.3748,30.6247
34.4895,30.7014
34.6170,30.7542
34.7523,30.7811
34.7523,30.7811
34.8903,30.7811
34.8903,30.7811
35.0256,30.7542
35.0613,30.7394
36.1785,30.7394
36.1785,30.8774
36.1978,30.9743
36.2054,31.0127
36.2582,31.1402
36.3094,31.2169
36.3349,31.2549
36.3349,31.2549
36.4325,31.3525
36.4325,31.3525
36.5472,31.4292
36.6747,31.4820
36.8100,31.5089
36.8100,31.5089
36.9480,31.5089
36.9480,31.5089
37.0833,31.4820
37.2108,31.4292
37.3255,31.3525
37.3255,31.3525
37.3303,31.3486
37.3313,31.3498
37.3869,31.3195
37.4577,31.3245
37.5145,31.3670
37.5184,31.3726
37.5769,31.4600
37.5769,31.4600
37.6745,31.5576
37.6745,31.5576
37.7892,31.6343
37.9167,31.6871
38.0520,31.7140
38.0520,31.7140
38.1900,31.7140
38.1900,31.7140
38.3253,31.6871
38.4528,31.6343
38.5675,31.5576
38.6651,31.4600
38.7418,31.3453
38.7946,31.2178
38.8215,31.0825
38.8215,30.9445
38.7946,30.8092
38.7418,30.6817
38.7223,30.6526
73.6241,30.6526
73.6241,30.7906
73.6510,30.9259
73.6510,30.9259
73.6663,30.9629
73.7038,31.0534
73.7550,31.1301
73.7805,31.1681
73.7805,31.1681
73.8781,31.2657
73.8781,31.2657
73.9928,31.3424
74.1203,31.3952
74.2556,31.4221
74.2556,31.4221
74.3936,31.4221
74.3936,31.4221
74.5289,31.3952
74.6564,31.3424
74.7711,31.2657
74.8687,31.1681
74.9454,31.0534
74.9982,30.9259
75.0251,30.7906
75.0251,30.6526
74.9982,30.5173
74.9454,30.3898
74.8687,30.2751
74.8687,30.2751
74.7711,30.1775
74.7711,30.1775
74.6670,30.1079
74.6564,30.1008
74.5425,30.0536
74.5289,30.0480
74.5289,30.0480
74.3936,30.0211
74.3936,30.0211
74.2556,30.0211
74.2556,30.0211
74.1203,30.0480
74.1203,30.0480
73.9928,30.1008
73.8781,30.1775
73.8781,30.1775
73.7805,30.2751
73.7805,30.2751
73.7038,30.3898
73.6510,30.5173
73.6510,30.5173
73.6241,30.6526
38.7223,30.6526
38.6651,30.5670
38.6651,30.5670
38.5675,30.4694
38.5675,30.4694
38.5295,30.4439
38.4528,30.3927
38.3697,30.3583
38.3253,30.3399
38.3253,30.3399
38.1900,30.3130
38.1900,30.3130
38.0520,30.3130
38.0520,30.3130
37.9167,30.3399
37.9167,30.3399
37.7892,30.3927
37.6745,30.4694
37.6697,30.4733
37.6687,30.4721
37.6131,30.5025
37.5423,30.4974
37.4854,30.4548
37.4816,30.4493
37.4569,30.4124
37.4231,30.3619
37.4231,30.3619
37.3255,30.2643
37.3255,30.2643
37.2597,30.2203
37.2108,30.1876
37.1190,30.1496
37.0833,30.1348
37.0833,30.1348
36.9480,30.1079
36.9480,30.1079
36.8100,30.1079
36.8100,30.1079
36.6747,30.1348
36.6747,30.1348
36.5472,30.1876
36.4325,30.2643
36.4325,30.2643
36.3349,30.3619
36.3349,30.3619
36.2582,30.4766
36.2054,30.6041
36.2054,30.6041
36.1785,30.7394
35.0613,30.7394
35.1531,30.7014
35.2678,30.6247
35.3654,30.5271
35.4421,30.4124
35.4949,30.2849
35.5218,30.1496
35.5218,30.0116
35.4949,29.8763
35.4421,29.7488
35.3654,29.6341
35.3654,29.6341
35.2678,29.5365
35.2678,29.5365
35.2269,29.5091
35.1531,29.4598
35.0463,29.4156
35.0256,29.4070
35.0256,29.4070
34.8903,29.3801
34.8903,29.3801
34.7523,29.3801
34.7523,29.3801
34.6170,29.4070
34.6170,29.4070
34.4895,29.4598
34.3748,29.5365
34.3748,29.5365
34.2772,29.6341
34.2772,29.6341
34.2005,29.7488
34.1477,29.8763
34.1477,29.8763
34.1208,30.0116
29.9473,30.0116
29.9249,29.9575
29.8482,29.8428
29.8482,29.8428
29.7506,29.7452
29.7506,29.7452
29.7126,29.7197
29.6359,29.6685
29.5527,29.6341
29.5084,29.6157
29.5084,29.6157
29.3731,29.5888
29.3731,29.5888
29.2351,29.5888
29.2351,29.5888
29.0998,29.6157
29.0998,29.6157
28.9723,29.6685
28.8576,29.7452
28.8576,29.7452
28.7600,29.8428
28.7600,29.8428
28.6833,29.9575
28.6305,30.0850
28.6305,30.0850
28.6036,30.2203
0.8750,30.2203
0.8750,27.2899
17.5805,27.2899
17.5805,27.2899
17.5805,27.4279
17.6074,27.5632
17.6602,27.6907
17.6615,27.6926
17.7369,27.8054
17.7369,27.8054
17.8345,27.9030
17.8345,27.9030
17.9492,27.9797
18.0767,28.0325
18.2120,28.0594
18.2120,28.0594
18.3500,28.0594
18.3500,28.0594
18.4853,28.0325
18.6128,27.9797
18.7081,27.9160
24.6037,27.9160
24.6037,28.0540
24.6254,28.1630
24.6306,28.1893
24.6834,28.3168
24.7142,28.3629
24.7601,28.4315
24.7601,28.4315
24.8577,28.5291
24.8577,28.5291
24.9724,28.6058
25.0999,28.6586
25.2352,28.6855
25.2352,28.6855
25.3732,28.6855
25.3732,28.6855
25.5085,28.6586
25.6360,28.6058
25.7337,28.5405
37.7706,28.5405
37.7706,28.6785
37.7910,28.7808
37.7975,28.8138
37.8503,28.9413
37.8982,29.0129
37.9270,29.0560
37.9270,29.0560
38.0246,29.1536
38.0246,29.1536
38.1393,29.2303
38.2668,29.2831
38.4021,29.3100
38.4021,29.3100
38.5401,29.3100
38.5401,29.3100
38.6754,29.2831
38.8029,29.2303
38.9176,29.1536
39.0152,29.0560
39.0919,28.9413
39.1447,28.8138
39.1716,28.6785
39.1716,28.5405
39.1447,28.4052
39.0919,28.2777
39.0152,28.1630
39.0152,28.1630
38.9176,28.0654
38.9176,28.0654
38.9176,28.0654
38.8029,27.9887
38.7386,27.9621
79.2316,27.9621
79.2316,28.1001
79.2491,28.1878
79.2585,28.2354
79.3113,28.3629
79.3396,28.4052
79.3880,28.4776
79.3880,28.4776
79.4856,28.5752
79.4856,28.5752
79.6003,28.6519
79.7278,28.7047
79.8631,28.7316
79.8631,28.7316
80.0011,28.7316
80.0011,28.7316
80.1364,28.7047
80.2639,28.6519
80.3786,28.5752
80.4651,28.4887
80.5274,28.4547
80.5982,28.4598
80.6551,28.5023
80.6799,28.5688
80.6778,28.6024
80.6505,28.7396
80.6505,28.8776
80.6629,28.9398
80.6774,29.0129
80.7302,29.1404
80.7814,29.2171
80.8069,29.2551
80.8069,29.2551
80.9045,29.3527
80.9045,29.3527
81.0192,29.4294
81.1200,29.4711
81.1448,29.4814
81.2000,29.5259
81.2225,29.5933
81.2049,29.6621
81.1856,29.6869
81.1188,29.7538
81.0421,29.8685
80.9893,29.9960
80.9893,29.9960
80.9624,30.1313
80.9624,30.2693
80.9711,30.3130
80.9870,30.3927
80.9905,30.4107
80.9877,30.4113
80.9881,30.4701
80.9502,30.5301
80.9152,30.5518
80.8373,30.5841
80.8373,30.5841
80.7226,30.6608
80.7226,30.6608
80.6250,30.7584
80.6250,30.7584
80.5483,30.8731
80.4955,31.0006
80.4955,31.0006
80.4686,31.1359
80.4686,31.2739
80.4909,31.3861
80.4955,31.4092
80.5483,31.5367
80.5711,31.5708
80.6250,31.6514
80.6250,31.6514
80.7226,31.7490
80.7226,31.7490
80.8373,31.8257
80.9648,31.8785
81.1001,31.9054
81.1001,31.9054
81.2381,31.9054
81.2381,31.9054
81.3734,31.8785
81.5009,31.8257
81.6156,31.7490
81.7132,31.6514
81.7899,31.5367
81.8427,31.4092
81.8696,31.2739
81.8696,31.1359
81.8427,31.0006
81.8427,31.0006
81.8415,30.9945
81.8443,30.9939
81.8441,30.9743
81.8420,30.9423
81.8438,30.9391
81.8438,30.9354
81.8609,30.9083
81.8759,30.8810
85.8245,30.8810
85.8245,31.0190
85.8514,31.1543
85.8514,31.1543
85.8571,31.1681
85.9042,31.2818
85.9488,31.3486
85.9809,31.3965
85.9809,31.3965
86.0785,31.4941
86.0785,31.4941
86.1932,31.5708
86.3207,31.6236
86.4560,31.6505
86.4560,31.6505
86.5940,31.6505
86.5940,31.6505
86.7293,31.6236
86.8568,31.5708
86.9715,31.4941
87.0034,31.4623
88.2128,31.4623
88.2128,31.6003
88.2397,31.7356
88.2397,31.7356
88.2585,31.7810
88.2925,31.8631
88.3135,31.8946
88.3692,31.9778
88.3692,31.9778
88.4668,32.0754
88.4668,32.0754
88.5815,32.1521
88.7090,32.2049
88.8443,32.2318
88.8443,32.2318
88.9823,32.2318
88.9823,32.2318
89.1176,32.2049
89.2451,32.1521
89.3598,32.0754
89.4574,31.9778
89.5341,31.8631
89.5869,31.7356
89.6138,31.6003
89.6138,31.4623
89.5869,31.3270
89.5341,31.1995
89.4574,31.0848
89.4574,31.0848
89.3598,30.9872
89.3598,30.9872
89.2960,30.9445
89.2451,30.9105
89.1547,30.8731
89.1176,30.8577
89.1176,30.8577
88.9823,30.8308
88.9823,30.8308
88.8443,30.8308
88.8443,30.8308
88.7090,30.8577
88.7090,30.8577
88.5815,30.9105
88.4668,30.9872
88.4668,30.9872
88.3692,31.0848
88.3692,31.0848
88.2925,31.1995
88.2397,31.3270
88.2397,31.3270
88.2128,31.4623
87.0034,31.4623
87.0691,31.3965
87.1458,31.2818
87.1986,31.1543
87.2255,31.0190
87.2255,30.8810
87.1986,30.7457
87.1458,30.6182
87.0691,30.5035
87.0691,30.5035
86.9715,30.4059
86.9715,30.4059
86.9335,30.3804
86.8568,30.3292
86.7764,30.2959
86.7293,30.2764
86.7293,30.2764
86.5940,30.2495
86.5940,30.2495
86.4560,30.2495
86.4560,30.2495
86.3207,30.2764
86.3207,30.2764
86.1932,30.3292
86.0785,30.4059
86.0785,30.4059
85.9809,30.5035
85.9809,30.5035
85.9042,30.6182
85.8514,30.7457
85.8514,30.7457
85.8245,30.8810
81.8759,30.8810
81.8764,30.8802
81.8801,30.8777
81.8816,30.8753
81.9052,30.8589
81.9108,30.8558
81.9947,30.8211
82.1094,30.7444
82.2070,30.6468
82.2837,30.5321
82.3365,30.4046
82.3634,30.2693
82.3634,30.1313
82.3365,29.9960
82.2837,29.8685
82.2070,29.7538
82.2070,29.7538
82.1094,29.6562
82.1094,29.6562
82.0489,29.6157
81.9947,29.5795
81.9214,29.5491
81.8691,29.5275
81.8138,29.4830
81.7914,29.4156
81.8090,29.3468
81.8282,29.3220
81.8951,29.2551
81.9718,29.1404
82.0246,29.0129
82.0515,28.8776
82.0515,28.7396
82.0439,28.7016
82.0406,28.6849
82.0370,28.6665
85.0773,28.6665
85.0773,28.8045
85.0918,28.8776
85.1042,28.9398
85.1570,29.0673
85.2059,29.1404
85.2337,29.1820
85.2337,29.1820
85.3313,29.2796
85.3313,29.2796
85.4460,29.3563
85.5735,29.4091
85.7088,29.4360
85.7088,29.4360
85.8468,29.4360
85.8468,29.4360
85.9821,29.4091
86.1096,29.3563
86.2243,29.2796
86.3219,29.1820
86.3986,29.0673
86.4514,28.9398
86.4783,28.8045
86.4783,28.6665
86.4514,28.5312
86.3986,28.4037
86.3219,28.2890
86.3219,28.2890
86.2243,28.1914
86.2243,28.1914
86.1889,28.1677
90.3964,28.1677
90.3964,28.3057
90.4233,28.4410
90.4233,28.4410
90.4385,28.4776
90.4761,28.5685
90.5010,28.6058
90.5528,28.6832
90.5528,28.6832
90.6504,28.7808
90.6504,28.7808
90.7651,28.8575
90.8926,28.9103
91.0279,28.9372
91.0279,28.9372
91.1659,28.9372
91.1659,28.9372
91.3012,28.9103
91.4287,28.8575
91.5434,28.7808
91.6410,28.6832
91.7177,28.5685
91.7705,28.4410
91.7974,28.3057
91.7974,28.1677
91.7705,28.0324
91.7177,27.9049
91.6410,27.7902
91.6410,27.7902
91.5434,27.6926
91.5434,27.6926
91.4845,27.6532
91.4287,27.6159
91.3483,27.5826
91.3012,27.5631
91.3012,27.5631
91.1659,27.5362
91.1659,27.5362
91.0279,27.5362
91.0279,27.5362
90.8926,27.5631
90.8926,27.5631
90.7651,27.6159
90.6504,27.6926
90.6504,27.6926
90.5528,27.7902
90.5528,27.7902
90.4761,27.9049
90.4233,28.0324
90.4233,28.0324
90.3964,28.1677
86.1889,28.1677
86.1818,28.1630
86.1096,28.1147
86.0292,28.0814
85.9821,28.0619
85.9821,28.0619
85.8468,28.0350
85.8468,28.0350
85.7088,28.0350
85.7088,28.0350
85.5735,28.0619
85.5735,28.0619
85.4460,28.1147
85.3313,28.1914
85.3313,28.1914
85.2337,28.2890
85.2337,28.2890
85.1570,28.4037
85.1042,28.5312
85.1042,28.5312
85.0773,28.6665
82.0370,28.6665
82.0246,28.6043
81.9718,28.4768
81.8951,28.3621
81.8951,28.3621
81.7975,28.2645
81.7975,28.2645
81.7541,28.2354
81.6828,28.1878
81.6024,28.1545
81.5553,28.1350
81.5553,28.1350
81.4200,28.1081
81.4200,28.1081
81.2820,28.1081
81.2820,28.1081
81.1467,28.1350
81.1467,28.1350
81.0192,28.1878
80.9045,28.2645
80.8180,28.3510
80.7557,28.3850
80.6849,28.3799
80.6280,28.3374
80.6032,28.2708
80.6053,28.2373
80.6057,28.2354
80.6057,28.2354
80.6326,28.1001
80.6326,27.9621
80.6057,27.8268
80.5529,27.6993
80.4762,27.5846
80.4762,27.5846
80.3786,27.4870
80.3786,27.4870
80.3406,27.4615
80.2639,27.4103
80.1835,27.3770
80.1364,27.3575
80.1364,27.3575
80.0011,27.3306
80.0011,27.3306
79.8631,27.3306
79.8631,27.3306
79.7278,27.3575
79.7278,27.3575
79.6003,27.4103
79.4856,27.4870
79.4856,27.4870
79.3880,27.5846
79.3880,27.5846
79.3113,27.6993
79.2585,27.8268
79.2585,27.8268
79.2316,27.9621
38.7386,27.9621
38.7225,27.9554
38.6754,27.9359
38.6754,27.9359
38.5401,27.9090
38.5401,27.9090
38.4021,27.9090
38.4021,27.9090
38.2668,27.9359
38.2668,27.9359
38.1393,27.9887
38.0246,28.0654
38.0246,28.0654
37.9270,28.1630
37.9270,28.1630
37.8503,28.2777
37.7975,28.4052
37.7975,28.4052
37.7706,28.5405
25.7337,28.5405
25.7507,28.5291
25.7911,28.4887
25.8346,28.4452
25.8483,28.4315
25.8483,28.4315
25.9250,28.3168
25.9778,28.1893
26.0047,28.0540
26.0047,27.9160
25.9778,27.7807
25.9250,27.6532
25.8483,27.5385
25.8483,27.5385
25.7507,27.4409
25.7507,27.4409
25.7050,27.4103
25.6360,27.3642
25.5548,27.3306
25.5085,27.3114
25.5085,27.3114
25.3732,27.2845
25.3732,27.2845
25.2352,27.2845
25.2352,27.2845
25.0999,27.3114
25.0999,27.3114
24.9724,27.3642
24.8577,27.4409
24.8577,27.4409
24.7601,27.5385
24.7601,27.5385
24.6834,27.6532
24.6306,27.7807
24.6306,27.7807
24.6037,27.9160
18.7081,27.9160
18.7275,27.9030
18.7275,27.9030
18.8098,27.8207
18.8251,27.8054
18.8251,27.8054
18.9018,27.6907
18.9546,27.5632
18.9815,27.4279
18.9815,27.2899
18.9546,27.1546
18.9018,27.0271
18.8251,26.9124
18.8251,26.9124
18.7275,26.8148
18.7275,26.8148
18.6895,26.7893
18.6128,26.7381
18.5324,26.7048
18.4853,26.6853
18.4853,26.6853
18.3500,26.6584
18.3500,26.6584
18.2120,26.6584
18.2120,26.6584
18.0767,26.6853
18.0767,26.6853
17.9492,26.7381
17.8345,26.8148
17.8345,26.8148
17.7369,26.9124
17.7369,26.9124
17.6602,27.0271
17.6074,27.1546
17.6074,27.1546
17.5805,27.2899
0.8750,27.2899
0.8750,26.4093
54.2948,26.4093
54.2948,26.4093
54.2948,26.5473
54.3217,26.6826
54.3745,26.8101
54.4257,26.8868
54.4512,26.9248
54.4512,26.9248
54.5488,27.0224
54.5488,27.0224
54.6635,27.0991
54.7910,27.1519
54.9263,27.1788
54.9263,27.1788
55.0643,27.1788
55.0643,27.1788
55.1996,27.1519
55.3271,27.0991
55.4418,27.0224
55.5394,26.9248
55.6161,26.8101
55.6689,26.6826
55.6958,26.5473
55.6958,26.4093
55.6689,26.2740
55.6161,26.1465
55.5394,26.0318
55.5394,26.0318
55.4418,25.9342
55.4418,25.9342
55.3635,25.8818
55.3271,25.8575
55.2467,25.8242
55.1996,25.8047
55.1996,25.8047
55.0643,25.7778
55.0643,25.7778
54.9263,25.7778
54.9263,25.7778
54.7910,25.8047
54.7910,25.8047
54.6635,25.8575
54.5488,25.9342
54.5488,25.9342
54.4512,26.0318
54.4512,26.0318
54.3745,26.1465
54.3217,26.2740
54.3217,26.2740
54.2948,26.4093
0.8750,26.4093
0.8750,22.6387
6.2945,22.6387
6.2945,22.8813
6.3262,23.1218
6.3889,23.3561
6.3889,23.3561
6.3889,23.3561
6.4818,23.5802
6.4818,23.5802
6.4818,23.5802
6.6031,23.7903
6.6031,23.7903
6.6031,23.7903
6.7507,23.9827
6.7507,23.9827
6.7507,23.9827
6.9223,24.1543
6.9223,24.1543
6.9223,24.1543
7.1147,24.3019
7.1147,24.3019
7.3248,24.4232
7.3248,24.4232
7.3248,24.4232
7.5489,24.5161
7.7832,24.5788
7.7832,24.5788
7.7832,24.5788
7.8452,24.5870
8.0237,24.6105
8.0237,24.6105
8.2663,24.6105
8.2663,24.6105
8.3339,24.6016
25.0739,24.6016
25.0739,24.7396
25.0967,24.8542
25.1008,24.8749
25.1536,25.0024
25.1892,25.0557
25.2303,25.1171
25.2303,25.1171
25.3279,25.2147
25.3279,25.2147
25.4426,25.2914
25.5701,25.3442
25.7054,25.3711
25.7054,25.3711
25.8434,25.3711
25.8434,25.3711
25.9787,25.3442
26.1062,25.2914
26.2209,25.2147
26.3185,25.1171
26.3952,25.0024
26.4480,24.8749
26.4749,24.7396
26.4749,24.7162
30.7027,24.7162
30.7027,24.8542
30.7174,24.9282
30.7296,24.9895
30.7824,25.1170
30.8093,25.1572
30.8591,25.2317
30.8591,25.2317
30.9567,25.3293
30.9567,25.3293
31.0714,25.4060
31.1989,25.4588
31.3342,25.4857
31.3342,25.4857
31.4722,25.4857
31.4722,25.4857
31.4958,25.4810
89.8245,25.4810
89.8245,25.4810
89.8245,25.6190
89.8514,25.7543
89.9042,25.8818
89.9392,25.9342
89.9809,25.9965
89.9809,25.9965
90.0785,26.0941
90.0785,26.0941
90.1932,26.1708
90.3207,26.2236
90.4560,26.2505
90.4560,26.2505
90.5940,26.2505
90.5940,26.2505
90.7293,26.2236
90.8568,26.1708
90.9715,26.0941
91.0691,25.9965
91.1458,25.8818
91.1986,25.7543
91.2255,25.6190
91.2255,25.4810
91.1986,25.3457
91.1458,25.2182
91.0691,25.1035
91.0691,25.1035
90.9715,25.0059
90.9715,25.0059
90.9335,24.9804
90.8568,24.9292
90.7764,24.8959
90.7293,24.8764
90.7293,24.8764
90.5940,24.8495
90.5940,24.8495
90.4560,24.8495
90.4560,24.8495
90.3207,24.8764
90.3207,24.8764
90.1932,24.9292
90.0785,25.0059
90.0785,25.0059
89.9809,25.1035
89.9809,25.1035
89.9042,25.2182
89.8514,25.3457
89.8514,25.3457
89.8245,25.4810
31.4958,25.4810
31.6075,25.4588
31.7350,25.4060
31.8497,25.3293
31.9473,25.2317
32.0240,25.1170
32.0768,24.9895
32.1037,24.8542
32.1037,24.7162
32.0768,24.5809
32.0240,24.4534
31.9473,24.3387
31.9473,24.3387
31.8497,24.2411
31.8497,24.2411
31.7985,24.2068
31.7350,24.1644
31.6500,24.1292
31.6075,24.1116
31.6075,24.1116
31.4722,24.0847
31.4722,24.0847
31.3342,24.0847
31.3342,24.0847
31.1989,24.1116
31.1989,24.1116
31.0714,24.1644
30.9567,24.2411
30.9567,24.2411
30.8591,24.3387
30.8591,24.3387
30.7824,24.4534
30.7296,24.5809
30.7296,24.5809
30.7027,24.7162
26.4749,24.7162
26.4749,24.6016
26.4480,24.4663
26.3952,24.3388
26.3185,24.2241
26.3185,24.2241
26.2209,24.1265
26.2209,24.1265
26.1584,24.0847
26.1062,24.0498
26.0233,24.0155
25.9787,23.9970
25.9787,23.9970
25.8434,23.9701
25.8434,23.9701
25.7054,23.9701
25.7054,23.9701
25.5701,23.9970
25.5701,23.9970
25.4426,24.0498
25.3279,24.1265
25.3279,24.1265
25.2303,24.2241
25.2303,24.2241
25.1536,24.3388
25.1008,24.4663
25.1008,24.4663
25.0739,24.6016
8.3339,24.6016
8.4913,24.5809
8.5068,24.5788
8.5068,24.5788
8.5068,24.5788
8.7411,24.5161
8.9652,24.4232
9.1753,24.3019
9.3677,24.1543
9.5393,23.9827
9.6869,23.7903
9.8082,23.5802
9.9011,23.3561
9.9280,23.2557
57.9848,23.2557
57.9848,23.2557
57.9848,23.3937
58.0117,23.5290
58.0645,23.6565
58.1106,23.7255
58.1412,23.7712
58.1412,23.7712
58.2388,23.8688
58.2388,23.8688
58.3535,23.9455
58.4810,23.9983
58.6163,24.0252
58.6163,24.0252
58.7543,24.0252
58.7543,24.0252
58.8896,23.9983
59.0171,23.9455
59.1318,23.8688
59.2294,23.7712
59.3061,23.6565
59.3347,23.5875
77.5552,23.5875
77.5552,23.5875
77.5552,23.7255
77.5821,23.8608
77.6349,23.9883
77.6783,24.0532
77.7116,24.1030
77.7116,24.1030
77.8135,24.2050
77.8117,24.2068
77.8453,24.2562
77.8472,24.3271
77.8302,24.3649
77.8120,24.3921
77.7592,24.5196
77.7592,24.5196
77.7323,24.6549
77.7323,24.7929
77.7375,24.8190
77.7592,24.9282
77.8120,25.0557
77.8531,25.1171
77.8887,25.1704
77.8887,25.1704
77.9863,25.2680
77.9863,25.2680
78.1010,25.3447
78.2285,25.3975
78.3638,25.4244
78.3638,25.4244
78.5018,25.4244
78.5018,25.4244
78.6371,25.3975
78.7646,25.3447
78.8793,25.2680
78.9769,25.1704
79.0536,25.0557
79.1064,24.9282
79.1333,24.7929
79.1333,24.6549
79.1307,24.6417
80.5456,24.6417
80.5456,24.7797
80.5725,24.9150
80.5725,24.9150
80.5888,24.9543
80.6253,25.0425
80.6660,25.1035
80.7020,25.1572
80.7020,25.1572
80.7996,25.2548
80.7996,25.2548
80.9143,25.3315
81.0418,25.3843
81.1771,25.4112
81.1771,25.4112
81.3151,25.4112
81.3151,25.4112
81.4504,25.3843
81.5779,25.3315
81.6926,25.2548
81.7902,25.1572
81.8669,25.0425
81.9197,24.9150
81.9466,24.7797
81.9466,24.6810
85.8245,24.6810
85.8245,24.8190
85.8514,24.9543
85.8514,24.9543
85.8709,25.0014
85.9042,25.0818
85.9278,25.1171
85.9809,25.1965
85.9809,25.1965
86.0785,25.2941
86.0785,25.2941
86.1932,25.3708
86.3207,25.4236
86.4560,25.4505
86.4560,25.4505
86.5940,25.4505
86.5940,25.4505
86.7293,25.4236
86.8568,25.3708
86.9715,25.2941
87.0691,25.1965
87.1458,25.0818
87.1986,24.9543
87.2255,24.8190
87.2255,24.6810
87.1986,24.5457
87.1458,24.4182
87.0691,24.3035
87.0691,24.3035
86.9715,24.2059
86.9715,24.2059
86.9325,24.1798
86.8568,24.1292
86.7493,24.0847
86.7293,24.0764
86.7293,24.0764
86.5940,24.0495
86.5940,24.0495
86.4560,24.0495
86.4560,24.0495
86.3207,24.0764
86.3207,24.0764
86.1932,24.1292
86.0785,24.2059
86.0785,24.2059
85.9809,24.3035
85.9809,24.3035
85.9042,24.4182
85.8514,24.5457
85.8514,24.5457
85.8245,24.6810
81.9466,24.6810
81.9466,24.6417
81.9197,24.5064
81.8669,24.3789
81.7902,24.2642
81.7902,24.2642
81.6926,24.1666
81.6926,24.1666
81.6326,24.1265
81.5779,24.0899
81.4803,24.0495
81.4504,24.0371
81.4504,24.0371
81.3151,24.0102
81.3151,24.0102
81.1771,24.0102
81.1771,24.0102
81.0418,24.0371
81.0418,24.0371
80.9143,24.0899
80.7996,24.1666
80.7996,24.1666
80.7020,24.2642
80.7020,24.2642
80.6253,24.3789
80.5725,24.5064
80.5725,24.5064
80.5456,24.6417
79.1307,24.6417
79.1064,24.5196
79.0536,24.3921
78.9769,24.2774
78.8793,24.1798
78.8793,24.1798
78.8750,24.1754
78.8768,24.1736
78.8432,24.1242
78.8413,24.0532
78.8583,24.0155
78.8618,24.0102
78.8765,23.9883
78.9293,23.8608
78.9562,23.7255
78.9562,23.5875
78.9293,23.4522
78.8765,23.3247
78.7998,23.2100
78.7998,23.2100
78.7022,23.1124
78.7022,23.1124
78.6642,23.0869
78.5875,23.0357
78.5071,23.0024
78.4600,22.9829
78.4600,22.9829
78.3247,22.9560
78.3247,22.9560
78.1867,22.9560
78.1867,22.9560
78.0514,22.9829
78.0514,22.9829
77.9239,23.0357
77.8092,23.1124
77.8092,23.1124
77.7116,23.2100
77.7116,23.2100
77.6349,23.3247
77.5821,23.4522
77.5821,23.4522
77.5552,23.5875
59.3347,23.5875
59.3589,23.5290
59.3858,23.3937
59.3858,23.2557
59.3589,23.1204
59.3061,22.9929
59.2294,22.8782
59.2294,22.8782
59.1318,22.7806
59.1318,22.7806
59.0938,22.7551
59.0171,22.7039
58.9367,22.6706
58.8896,22.6511
58.8896,22.6511
58.7543,22.6242
58.7543,22.6242
58.6163,22.6242
58.6163,22.6242
58.4810,22.6511
58.4810,22.6511
58.3535,22.7039
58.2388,22.7806
58.2388,22.7806
58.1412,22.8782
58.1412,22.8782
58.0645,22.9929
58.0117,23.1204
58.0117,23.1204
57.9848,23.2557
9.9280,23.2557
9.9638,23.1218
9.9955,22.8813
9.9955,22.6387
9.9638,22.3982
9.9011,22.1639
9.8082,21.9398
9.8082,21.9398
9.8082,21.9398
9.6869,21.7297
9.6869,21.7297
9.6869,21.7297
9.5393,21.5373
9.5393,21.5373
9.5393,21.5373
9.3677,21.3657
9.3677,21.3657
9.3677,21.3657
9.2690,21.2900
16.0042,21.2900
16.0042,21.2900
16.6309,21.2900
16.6157,21.3163
16.5850,21.4308
16.5850,21.5492
16.6157,21.6637
16.6309,21.6900
16.0042,21.6900
16.0253,21.7963
16.1045,21.9874
16.2194,22.1593
16.2194,22.1593
16.3657,22.3056
16.3657,22.3056
16.5376,22.4205
16.7287,22.4997
16.7287,22.4997
16.8350,22.5208
16.8350,22.5208
16.8350,21.8941
16.8613,21.9093
16.9758,21.9400
17.0942,21.9400
17.2087,21.9093
17.2350,21.8941
17.2350,22.5208
17.3413,22.4997
17.5324,22.4205
17.5561,22.4046
72.8245,22.4046
72.8245,22.5426
72.8461,22.6511
72.8514,22.6779
72.9042,22.8054
72.9528,22.8782
72.9809,22.9201
72.9809,22.9201
73.0785,23.0177
73.0785,23.0177
73.1932,23.0944
73.3207,23.1472
73.4560,23.1741
73.4560,23.1741
73.5940,23.1741
73.5940,23.1741
73.7293,23.1472
73.8568,23.0944
73.9715,23.0177
74.0691,22.9201
74.1458,22.8054
74.1986,22.6779
74.2255,22.5426
74.2255,22.4046
74.1986,22.2693
74.1458,22.1418
74.0691,22.0271
74.0691,22.0271
73.9715,21.9295
73.9715,21.9295
73.9183,21.8939
73.8568,21.8528
73.7764,21.8195
73.7293,21.8000
73.7293,21.8000
73.5940,21.7731
73.5940,21.7731
73.4560,21.7731
73.4560,21.7731
73.3207,21.8000
73.3207,21.8000
73.1932,21.8528
73.0785,21.9295
73.0785,21.9295
72.9809,22.0271
72.9809,22.0271
72.9042,22.1418
72.8514,22.2693
72.8514,22.2693
72.8245,22.4046
17.5561,22.4046
17.7043,22.3056
17.7043,22.3056
17.8506,22.1593
17.8506,22.1593
17.9655,21.9874
18.0446,21.7963
18.0658,21.6900
17.4391,21.6900
17.4543,21.6637
17.4850,21.5492
17.4850,21.4308
17.4777,21.4035
43.4423,21.4035
43.4423,21.5415
43.4448,21.5541
43.4692,21.6768
43.5220,21.8043
43.5419,21.8341
43.5987,21.9190
43.5987,21.9190
43.6963,22.0166
43.6963,22.0166
43.8110,22.0933
43.9385,22.1461
44.0738,22.1730
44.0738,22.1730
44.2118,22.1730
44.2118,22.1730
44.3471,22.1461
44.4746,22.0933
44.5893,22.0166
44.6869,21.9190
44.7636,21.8043
44.8164,21.6768
44.8433,21.5415
44.8433,21.4035
44.8189,21.2808
57.1942,21.2808
57.1942,21.4188
57.2211,21.5541
57.2739,21.6816
57.3061,21.7297
57.3506,21.7963
57.3506,21.7963
57.4482,21.8939
57.4482,21.8939
57.5629,21.9706
57.6904,22.0234
57.8257,22.0503
57.8257,22.0503
57.9637,22.0503
57.9637,22.0503
58.0990,22.0234
58.2265,21.9706
58.3412,21.8939
58.4388,21.7963
58.5155,21.6816
58.5683,21.5541
58.5952,21.4188
58.5952,21.2808
58.5683,21.1455
58.5678,21.1443
77.5586,21.1443
77.5586,21.2823
77.5855,21.4176
77.5855,21.4176
77.5860,21.4188
77.6383,21.5451
77.6895,21.6218
77.7150,21.6598
77.7150,21.6598
77.8126,21.7574
77.8126,21.7574
77.9273,21.8341
78.0548,21.8869
78.1901,21.9138
78.1901,21.9138
78.3281,21.9138
78.3281,21.9138
78.4634,21.8869
78.5909,21.8341
78.7056,21.7574
78.8032,21.6598
78.8799,21.5451
78.9327,21.4176
78.9596,21.2823
78.9596,21.1443
78.9327,21.0090
78.8799,20.8815
78.8032,20.7668
78.8032,20.7668
78.7800,20.7435
78.7460,20.6812
78.7510,20.6104
78.7800,20.5654
78.8491,20.4962
78.8491,20.4962
78.9258,20.3815
78.9786,20.2540
79.0055,20.1187
79.0055,19.9807
78.9786,19.8454
78.9258,19.7179
78.8491,19.6032
78.8491,19.6032
78.7515,19.5056
78.7515,19.5056
78.7135,19.4801
78.6368,19.4289
78.5462,19.3914
78.5093,19.3761
78.5093,19.3761
78.3740,19.3492
78.3740,19.3492
78.2360,19.3492
78.2360,19.3492
78.1007,19.3761
78.1007,19.3761
77.9732,19.4289
77.8585,19.5056
77.8585,19.5056
77.7609,19.6032
77.7609,19.6032
77.6842,19.7179
77.6314,19.8454
77.6314,19.8454
77.6045,19.9807
77.6045,20.1187
77.6184,20.1884
77.6314,20.2540
77.6842,20.3815
77.7029,20.4094
77.7609,20.4962
77.7609,20.4962
77.7841,20.5195
77.8181,20.5818
77.8131,20.6526
77.7841,20.6976
77.7150,20.7668
77.7150,20.7668
77.6383,20.8815
77.5855,21.0090
77.5855,21.0090
77.5586,21.1443
58.5678,21.1443
58.5155,21.0180
58.4388,20.9033
58.4388,20.9033
58.3412,20.8057
58.3412,20.8057
58.2830,20.7668
58.2265,20.7290
58.1461,20.6957
58.0990,20.6762
58.0990,20.6762
57.9637,20.6493
57.9637,20.6493
57.8257,20.6493
57.8257,20.6493
57.6904,20.6762
57.6904,20.6762
57.5629,20.7290
57.4482,20.8057
57.4482,20.8057
57.3506,20.9033
57.3506,20.9033
57.2739,21.0180
57.2211,21.1455
57.2211,21.1455
57.1942,21.2808
44.8189,21.2808
44.8164,21.2682
44.7636,21.1407
44.6869,21.0260
44.6869,21.0260
44.5893,20.9284
44.5893,20.9284
44.5513,20.9029
44.4746,20.8517
44.3942,20.8184
44.3471,20.7989
44.3471,20.7989
44.2118,20.7720
44.2118,20.7720
44.0738,20.7720
44.0738,20.7720
43.9385,20.7989
43.9385,20.7989
43.8110,20.8517
43.6963,20.9284
43.6963,20.9284
43.5987,21.0260
43.5987,21.0260
43.5220,21.1407
43.4692,21.2682
43.4692,21.2682
43.4423,21.4035
17.4777,21.4035
17.4543,21.3163
17.4391,21.2900
18.0658,21.2900
18.0658,21.2900
18.0446,21.1837
17.9655,20.9926
17.8506,20.8207
17.8506,20.8207
17.7043,20.6744
17.7043,20.6744
17.5324,20.5595
17.3413,20.4803
17.2350,20.4592
17.2350,21.0859
17.2087,21.0707
17.0942,21.0400
16.9758,21.0400
16.8613,21.0707
16.8350,21.0859
16.8350,20.4592
16.8350,20.4592
16.7287,20.4803
16.5376,20.5595
16.3657,20.6744
16.3657,20.6744
16.2194,20.8207
16.2194,20.8207
16.1045,20.9926
16.0253,21.1837
16.0042,21.2900
9.2690,21.2900
9.1753,21.2181
9.1753,21.2181
9.1753,21.2181
8.9652,21.0968
8.9652,21.0968
8.9652,21.0968
8.7411,21.0039
8.7411,21.0039
8.7411,21.0039
8.5068,20.9412
8.2663,20.9095
8.2663,20.9095
8.0237,20.9095
8.0237,20.9095
7.7832,20.9412
7.5489,21.0039
7.5489,21.0039
7.3248,21.0968
7.3248,21.0968
7.1147,21.2181
6.9223,21.3657
6.9223,21.3657
6.7507,21.5373
6.7507,21.5373
6.6031,21.7297
6.4818,21.9398
6.4818,21.9398
6.3889,22.1639
6.3889,22.1639
6.3262,22.3982
6.2945,22.6387
0.8750,22.6387
0.8750,20.1165
13.4445,20.1165
13.4445,20.3235
13.4712,20.4575
13.4849,20.5264
13.5641,20.7176
13.6685,20.8740
13.6790,20.8897
13.6790,20.8897
13.8253,21.0360
13.8253,21.0360
13.8253,21.0360
13.9974,21.1509
14.1886,21.2301
14.3915,21.2705
14.3915,21.2705
14.5985,21.2705
14.5985,21.2705
14.8014,21.2301
14.9926,21.1509
15.1647,21.0360
15.3110,20.8897
15.4259,20.7176
15.5051,20.5264
15.5455,20.3235
15.5455,20.1165
15.5051,19.9136
15.4259,19.7224
15.3110,19.5503
15.3110,19.5503
15.3110,19.5503
15.1647,19.4040
15.1647,19.4040
15.1636,19.4033
14.9926,19.2891
14.8014,19.2099
14.5985,19.1695
14.5985,19.1695
14.3915,19.1695
14.3915,19.1695
14.1886,19.2099
14.1886,19.2099
13.9974,19.2891
13.8253,19.4040
13.8253,19.4040
13.6790,19.5503
13.6790,19.5503
13.5641,19.7224
13.4849,19.9136
13.4849,19.9136
13.4445,20.1165
0.8750,20.1165
0.8750,18.8465
15.9845,18.8465
15.9845,19.0535
16.0103,19.1830
16.0249,19.2564
16.1041,19.4476
16.2080,19.6032
16.2190,19.6197
16.2190,19.6197
16.3653,19.7660
16.3653,19.7660
16.3653,19.7660
16.5374,19.8809
16.7286,19.9601
16.9315,20.0005
16.9315,20.0005
17.1385,20.0005
17.1385,20.0005
17.3414,19.9601
17.5326,19.8809
17.7047,19.7660
17.8510,19.6197
17.9659,19.4476
17.9667,19.4458
22.5727,19.4458
22.5727,19.5838
22.5976,19.7091
22.5996,19.7191
22.6524,19.8466
22.6754,19.8809
22.7291,19.9613
22.7291,19.9613
22.8267,20.0589
22.8267,20.0589
22.9414,20.1356
23.0689,20.1884
23.2042,20.2153
23.2042,20.2153
23.3422,20.2153
23.3422,20.2153
23.4775,20.1884
23.6050,20.1356
23.7197,20.0589
23.8173,19.9613
23.8940,19.8466
23.9468,19.7191
23.9573,19.6661
25.6700,19.6661
25.6700,19.8041
25.6969,19.9394
25.6969,19.9394
25.7060,19.9613
25.7497,20.0669
25.7843,20.1187
25.8264,20.1816
25.8264,20.1816
25.9240,20.2792
25.9240,20.2792
26.0387,20.3559
26.1662,20.4087
26.3015,20.4356
26.3015,20.4356
26.4395,20.4356
26.4395,20.4356
26.5748,20.4087
26.7023,20.3559
26.8170,20.2792
26.9146,20.1816
26.9913,20.0669
27.0441,19.9394
27.0710,19.8041
27.0710,19.6661
27.0658,19.6399
30.3473,19.6399
30.3473,19.7779
30.3742,19.9132
30.3742,19.9132
30.3936,19.9601
30.4270,20.0407
30.4720,20.1080
30.5037,20.1554
30.5037,20.1554
30.6013,20.2530
30.6013,20.2530
30.7160,20.3297
30.8435,20.3825
30.9788,20.4094
30.9788,20.4094
31.1168,20.4094
31.1168,20.4094
31.2521,20.3825
31.3796,20.3297
31.4943,20.2530
31.5632,20.1842
31.9565,20.1842
31.9565,20.3222
31.9685,20.3825
31.9834,20.4575
32.0362,20.5850
32.0775,20.6468
32.1129,20.6997
32.1129,20.6997
32.2105,20.7973
32.2105,20.7973
32.3252,20.8740
32.4527,20.9268
32.5880,20.9537
32.5880,20.9537
32.7260,20.9537
32.7260,20.9537
32.8613,20.9268
32.9888,20.8740
33.1035,20.7973
33.2011,20.6997
33.2778,20.5850
33.3306,20.4575
33.3575,20.3222
33.3575,20.1842
33.3306,20.0489
33.2778,19.9214
33.2011,19.8067
33.2011,19.8067
33.1035,19.7091
33.1035,19.7091
33.0392,19.6661
32.9888,19.6324
32.8714,19.5838
32.8613,19.5796
32.8613,19.5796
32.7260,19.5527
32.7260,19.5527
32.5880,19.5527
32.5880,19.5527
32.4527,19.5796
32.4527,19.5796
32.3252,19.6324
32.2105,19.7091
32.2105,19.7091
32.1129,19.8067
32.1129,19.8067
32.0362,19.9214
31.9834,20.0489
31.9834,20.0489
31.9565,20.1842
31.5632,20.1842
31.5919,20.1554
31.6686,20.0407
31.7214,19.9132
31.7483,19.7779
31.7483,19.6399
31.7214,19.5046
31.6686,19.3771
31.5919,19.2624
31.5919,19.2623
31.4943,19.1648
31.4943,19.1648
31.4563,19.1393
31.3796,19.0881
31.2959,19.0535
31.2521,19.0353
31.2521,19.0353
31.1168,19.0084
31.1168,19.0084
30.9788,19.0084
30.9788,19.0084
30.8435,19.0353
30.8435,19.0353
30.7160,19.0881
30.6013,19.1648
30.6013,19.1648
30.5037,19.2623
30.5037,19.2624
30.4270,19.3771
30.3742,19.5046
30.3742,19.5046
30.3473,19.6399
27.0658,19.6399
27.0441,19.5308
26.9913,19.4033
26.9146,19.2886
26.9146,19.2886
26.8170,19.1910
26.8170,19.1910
26.7778,19.1648
26.7023,19.1143
26.5911,19.0683
26.5748,19.0615
26.5748,19.0615
26.4395,19.0346
26.4395,19.0346
26.3015,19.0346
26.3015,19.0346
26.1662,19.0615
26.1662,19.0615
26.0387,19.1143
25.9240,19.1910
25.9240,19.1910
25.8264,19.2886
25.8264,19.2886
25.7497,19.4033
25.6969,19.5308
25.6969,19.5308
25.6700,19.6661
23.9573,19.6661
23.9737,19.5838
23.9737,19.4458
23.9468,19.3105
23.8940,19.1830
23.8173,19.0683
23.8173,19.0683
23.7197,18.9707
23.7197,18.9707
23.6817,18.9452
23.6050,18.8940
23.4904,18.8465
23.4775,18.8412
23.4775,18.8412
23.3422,18.8143
23.3422,18.8143
23.2042,18.8143
23.2042,18.8143
23.0689,18.8412
23.0689,18.8412
22.9414,18.8940
22.8267,18.9707
22.8267,18.9707
22.7291,19.0683
22.7291,19.0683
22.6524,19.1830
22.5996,19.3105
22.5996,19.3105
22.5727,19.4458
17.9667,19.4458
18.0451,19.2564
18.0855,19.0535
18.0855,18.8465
18.0451,18.6436
17.9659,18.4524
17.8510,18.2803
17.8510,18.2803
17.8510,18.2803
17.7047,18.1340
17.7047,18.1340
17.7005,18.1312
17.5326,18.0191
17.3414,17.9399
17.1385,17.8995
17.1385,17.8995
16.9315,17.8995
16.9315,17.8995
16.7286,17.9399
16.7286,17.9399
16.5374,18.0191
16.3653,18.1340
16.3653,18.1340
16.2190,18.2803
16.2190,18.2803
16.1041,18.4524
16.0249,18.6436
16.0249,18.6436
15.9845,18.8465
0.8750,18.8465
0.8750,17.5765
13.4445,17.5765
13.4445,17.7835
13.4756,17.9399
13.4849,17.9864
13.5641,18.1776
13.6495,18.3055
13.6790,18.3497
13.6790,18.3497
13.8253,18.4960
13.8253,18.4960
13.8253,18.4960
13.9974,18.6109
14.1886,18.6901
14.3915,18.7305
14.3915,18.7305
14.5985,18.7305
14.5985,18.7305
14.8014,18.6901
14.9926,18.6109
15.1647,18.4960
15.3110,18.3497
15.4259,18.1776
15.5051,17.9864
15.5455,17.7835
15.5455,17.6157
36.7821,17.6157
36.7821,17.7537
36.8090,17.8890
36.8090,17.8890
36.8285,17.9361
36.8618,18.0165
36.8635,18.0191
36.9385,18.1312
36.9385,18.1312
37.0361,18.2288
37.0361,18.2288
37.1508,18.3055
37.2783,18.3583
37.4136,18.3852
37.4136,18.3852
37.5516,18.3852
37.5516,18.3852
37.6869,18.3583
37.8144,18.3055
37.9291,18.2288
38.0267,18.1312
38.1034,18.0165
38.1562,17.8890
38.1831,17.7537
38.1831,17.6157
38.1562,17.4804
38.1034,17.3529
38.0267,17.2382
38.0267,17.2382
37.9291,17.1406
37.9291,17.1406
37.8504,17.0879
37.8144,17.0639
37.7340,17.0306
37.6869,17.0111
37.6869,17.0111
37.5516,16.9842
37.5516,16.9842
37.4136,16.9842
37.4136,16.9842
37.2783,17.0111
37.2783,17.0111
37.1508,17.0639
37.0361,17.1406
37.0361,17.1406
36.9385,17.2382
36.9385,17.2382
36.8618,17.3529
36.8090,17.4804
36.8090,17.4804
36.7821,17.6157
15.5455,17.6157
15.5455,17.5765
15.5051,17.3736
15.4259,17.1824
15.3110,17.0103
15.3110,17.0103
15.3110,17.0103
15.1647,16.8640
15.1647,16.8640
15.1647,16.8640
14.9926,16.7491
14.8014,16.6699
14.5985,16.6295
14.5985,16.6295
14.3915,16.6295
14.3915,16.6295
14.1886,16.6699
14.1886,16.6699
13.9974,16.7491
13.8253,16.8640
13.8253,16.8640
13.6790,17.0103
13.6790,17.0103
13.5641,17.1824
13.4849,17.3736
13.4849,17.3736
13.4445,17.5765
0.8750,17.5765
0.8750,16.3065
15.9845,16.3065
15.9845,16.5135
16.0156,16.6699
16.0249,16.7164
16.1041,16.9076
16.2085,17.0639
16.2190,17.0797
16.2190,17.0797
16.3653,17.2260
16.3653,17.2260
16.3653,17.2260
16.5374,17.3409
16.7286,17.4201
16.9315,17.4605
16.9315,17.4605
17.1385,17.4605
17.1385,17.4605
17.3414,17.4201
17.5326,17.3409
17.7047,17.2260
17.8510,17.0797
17.9659,16.9076
18.0451,16.7164
18.0738,16.5724
62.6190,16.5724
62.6190,16.7104
62.6267,16.7491
62.6459,16.8457
62.6987,16.9732
62.7241,17.0111
62.7754,17.0879
62.7754,17.0879
62.8730,17.1855
62.8730,17.1855
62.9877,17.2622
63.1152,17.3150
63.2505,17.3419
63.2505,17.3419
63.3885,17.3419
63.3885,17.3419
63.5238,17.3150
63.6513,17.2622
63.7660,17.1855
63.8636,17.0879
63.9403,16.9732
63.9931,16.8457
64.0200,16.7104
64.0200,16.5724
63.9931,16.4371
63.9403,16.3096
63.8636,16.1949
63.8636,16.1949
63.7660,16.0973
63.7660,16.0973
63.7233,16.0687
63.6513,16.0206
63.5709,15.9873
63.5238,15.9678
63.5238,15.9678
63.3885,15.9409
63.3885,15.9409
63.2505,15.9409
63.2505,15.9409
63.1152,15.9678
63.1152,15.9678
62.9877,16.0206
62.8730,16.0973
62.8730,16.0973
62.7754,16.1949
62.7754,16.1949
62.6987,16.3096
62.6459,16.4371
62.6459,16.4371
62.6190,16.5724
18.0738,16.5724
18.0855,16.5135
18.0855,16.3065
18.0451,16.1036
17.9659,15.9124
17.8510,15.7403
17.8510,15.7403
17.8510,15.7403
17.7785,15.6679
24.6485,15.6679
24.6485,15.8059
24.6697,15.9124
24.6754,15.9412
24.7282,16.0687
24.7473,16.0973
24.8049,16.1834
24.8049,16.1834
24.9025,16.2810
24.9025,16.2810
25.0172,16.3577
25.1447,16.4105
25.2800,16.4374
25.2800,16.4374
25.4180,16.4374
25.4180,16.4374
25.5533,16.4105
25.6808,16.3577
25.7955,16.2810
25.8931,16.1834
25.9698,16.0687
26.0226,15.9412
26.0495,15.8059
26.0495,15.6679
26.0495,15.6679
26.0487,15.6638
73.2871,15.6638
73.2871,15.8018
73.3140,15.9371
73.3140,15.9371
73.3218,15.9560
73.3668,16.0646
73.4180,16.1413
73.4435,16.1793
73.4435,16.1793
73.5411,16.2769
73.5411,16.2769
73.6558,16.3536
73.7833,16.4064
73.9186,16.4333
73.9186,16.4333
74.0566,16.4333
74.0566,16.4333
74.1919,16.4064
74.3194,16.3536
74.4341,16.2769
74.5317,16.1793
74.6084,16.0646
74.6612,15.9371
74.6881,15.8018
74.6881,15.6638
74.6612,15.5285
74.6084,15.4010
74.5317,15.2863
74.5317,15.2863
74.4341,15.1887
74.4341,15.1887
74.3961,15.1632
74.3194,15.1120
74.2018,15.0633
74.1919,15.0592
74.1919,15.0592
74.0566,15.0323
74.0566,15.0323
73.9186,15.0323
73.9186,15.0323
73.7833,15.0592
73.7833,15.0592
73.6558,15.1120
73.5411,15.1887
73.5411,15.1887
73.4435,15.2863
73.4435,15.2863
73.3668,15.4010
73.3140,15.5285
73.3140,15.5285
73.2871,15.6638
26.0487,15.6638
26.0435,15.6376
26.0226,15.5326
25.9698,15.4051
25.8931,15.2904
25.8931,15.2904
25.7955,15.1928
25.7955,15.1928
25.7575,15.1673
25.6808,15.1161
25.6004,15.0828
25.5533,15.0633
25.5533,15.0633
25.4180,15.0364
25.4180,15.0364
25.2800,15.0364
25.2800,15.0364
25.1447,15.0633
25.1447,15.0633
25.0172,15.1161
24.9025,15.1928
24.9025,15.1928
24.8049,15.2904
24.8049,15.2904
24.7282,15.4051
24.6754,15.5326
24.6754,15.5326
24.6485,15.6679
17.7785,15.6679
17.7047,15.5940
17.7047,15.5940
17.6127,15.5326
17.5326,15.4791
17.3540,15.4051
17.3414,15.3999
17.3414,15.3999
17.1385,15.3595
17.1385,15.3595
16.9315,15.3595
16.9315,15.3595
16.7286,15.3999
16.7286,15.3999
16.5374,15.4791
16.3653,15.5940
16.3653,15.5940
16.2190,15.7403
16.2190,15.7403
16.1041,15.9124
16.0249,16.1036
16.0249,16.1036
15.9845,16.3065
0.8750,16.3065
0.8750,15.0365
13.4445,15.0365
13.4445,15.2435
13.4756,15.3999
13.4849,15.4464
13.5641,15.6376
13.6765,15.8059
13.6790,15.8097
13.6790,15.8097
13.8253,15.9560
13.8253,15.9560
13.8253,15.9560
13.9974,16.0709
14.1886,16.1501
14.3915,16.1905
14.3915,16.1905
14.5985,16.1905
14.5985,16.1905
14.8014,16.1501
14.9926,16.0709
15.1647,15.9560
15.3110,15.8097
15.4259,15.6376
15.5051,15.4464
15.5455,15.2435
15.5455,15.0365
15.5051,14.8336
15.4259,14.6424
15.3110,14.4703
15.3110,14.4703
15.3110,14.4703
15.1647,14.3240
15.1647,14.3240
15.1568,14.3188
14.9926,14.2091
14.8014,14.1299
14.7225,14.1142
14.5985,14.0895
14.5985,14.0895
14.3915,14.0895
14.3915,14.0895
14.1886,14.1299
14.1886,14.1299
13.9974,14.2091
13.8253,14.3240
13.8253,14.3240
13.6790,14.4703
13.6790,14.4703
13.5641,14.6424
13.4849,14.8336
13.4849,14.8336
13.4445,15.0365
0.8750,15.0365
0.8750,13.7665
15.9845,13.7665
15.9845,13.9735
16.0125,14.1142
16.0249,14.1764
16.1041,14.3676
16.1727,14.4703
16.2190,14.5397
16.2190,14.5397
16.3653,14.6860
16.3653,14.6860
16.3653,14.6860
16.5374,14.8009
16.7286,14.8801
16.9315,14.9205
16.9315,14.9205
17.1385,14.9205
17.1385,14.9205
17.3414,14.8801
17.5326,14.8009
17.7047,14.6860
17.8510,14.5397
17.9659,14.3676
17.9862,14.3188
35.1508,14.3188
35.1508,14.4568
35.1673,14.5397
35.1777,14.5921
35.2305,14.7196
35.2817,14.7963
35.3072,14.8343
35.3072,14.8343
35.4048,14.9319
35.4048,14.9319
35.5195,15.0086
35.6470,15.0614
35.7823,15.0883
35.7823,15.0883
35.9203,15.0883
35.9203,15.0883
36.0556,15.0614
36.1831,15.0086
36.2978,14.9319
36.3954,14.8343
36.4721,14.7196
36.5249,14.5921
36.5518,14.4568
36.5518,14.3188
36.5249,14.1835
36.4721,14.0560
36.3954,13.9413
36.3954,13.9413
36.2978,13.8437
36.2978,13.8437
36.2598,13.8182
36.1831,13.7670
36.1027,13.7337
36.0556,13.7142
36.0556,13.7142
35.9203,13.6873
35.9203,13.6873
35.7823,13.6873
35.7823,13.6873
35.6470,13.7142
35.6470,13.7142
35.5195,13.7670
35.4048,13.8437
35.4048,13.8437
35.3072,13.9413
35.3072,13.9413
35.2305,14.0560
35.1777,14.1835
35.1777,14.1835
35.1508,14.3188
17.9862,14.3188
18.0451,14.1764
18.0855,13.9735
18.0855,13.7665
18.0451,13.5636
17.9659,13.3724
17.9654,13.3716
24.5716,13.3716
24.5716,13.5096
24.5985,13.6449
24.5985,13.6449
24.6008,13.6505
24.6513,13.7724
24.6989,13.8437
24.7280,13.8871
24.7280,13.8871
24.8256,13.9847
24.8256,13.9847
24.9403,14.0614
25.0678,14.1142
25.2031,14.1411
25.2031,14.1411
25.3411,14.1411
25.3411,14.1411
25.4764,14.1142
25.6039,14.0614
25.7186,13.9847
25.8162,13.8871
25.8929,13.7724
25.9457,13.6449
25.9726,13.5096
25.9726,13.4315
25.9926,13.3634
26.0463,13.3169
26.0740,13.3079
26.1897,13.2849
26.3172,13.2321
26.4319,13.1554
26.5295,13.0578
26.6062,12.9431
26.6590,12.8156
26.6859,12.6803
26.6859,12.5423
26.6747,12.4862
26.6714,12.4693
26.6677,12.4509
28.8227,12.4509
28.8227,12.5889
28.8496,12.7242
28.8496,12.7242
28.8562,12.7401
28.9024,12.8517
28.9536,12.9284
28.9791,12.9664
28.9791,12.9664
29.0767,13.0640
29.0767,13.0640
29.1914,13.1407
29.3189,13.1935
29.4542,13.2204
29.4542,13.2204
29.5922,13.2204
29.5922,13.2204
29.7275,13.1935
29.8550,13.1407
29.9697,13.0640
30.0673,12.9664
30.1440,12.8517
30.1968,12.7242
30.2237,12.5889
30.2237,12.4509
30.2033,12.3482
32.2056,12.3482
32.2056,12.4862
32.2188,12.5527
32.2325,12.6215
32.2853,12.7490
32.2974,12.7670
32.3620,12.8637
32.3620,12.8637
32.4596,12.9613
32.4596,12.9613
32.5743,13.0380
32.7018,13.0908
32.8371,13.1177
32.8371,13.1177
32.9751,13.1177
32.9751,13.1177
33.1104,13.0908
33.2379,13.0380
33.3526,12.9613
33.4502,12.8637
33.5269,12.7490
33.5797,12.6215
33.6066,12.4862
33.6066,12.3482
33.5797,12.2129
33.5269,12.0854
33.4502,11.9707
33.4502,11.9707
33.3526,11.8731
33.3526,11.8731
33.2723,11.8194
33.2379,11.7964
33.1575,11.7631
33.1104,11.7436
33.1104,11.7436
32.9751,11.7167
32.9751,11.7167
32.8371,11.7167
32.8371,11.7167
32.7018,11.7436
32.7018,11.7436
32.5743,11.7964
32.4596,11.8731
32.4596,11.8731
32.3620,11.9707
32.3620,11.9707
32.2853,12.0854
32.2325,12.2129
32.2325,12.2129
32.2056,12.3482
30.2033,12.3482
30.1968,12.3156
30.1440,12.1881
30.0673,12.0734
30.0673,12.0734
29.9697,11.9758
29.9697,11.9758
29.9212,11.9434
29.8550,11.8991
29.7746,11.8658
29.7275,11.8463
29.7275,11.8463
29.5922,11.8194
29.5922,11.8194
29.4542,11.8194
29.4542,11.8194
29.3189,11.8463
29.3189,11.8463
29.1914,11.8991
29.0767,11.9758
29.0767,11.9758
28.9791,12.0734
28.9791,12.0734
28.9024,12.1881
28.8496,12.3156
28.8496,12.3156
28.8227,12.4509
26.6677,12.4509
26.6590,12.4070
26.6062,12.2795
26.5295,12.1648
26.5295,12.1648
26.4319,12.0672
26.4319,12.0672
26.3939,12.0417
26.3172,11.9905
26.2368,11.9572
26.1897,11.9377
26.1897,11.9377
26.0544,11.9108
26.0544,11.9108
25.9164,11.9108
25.9164,11.9108
25.7811,11.9377
25.7811,11.9377
25.6536,11.9905
25.5389,12.0672
25.5389,12.0672
25.4413,12.1648
25.4413,12.1648
25.3646,12.2795
25.3118,12.4070
25.3118,12.4070
25.2849,12.5423
25.2849,12.6204
25.2649,12.6885
25.2112,12.7350
25.1835,12.7440
25.1203,12.7566
25.0678,12.7670
25.0678,12.7670
25.0678,12.7670
25.0678,12.7670
24.9403,12.8198
24.8256,12.8965
24.8256,12.8965
24.7280,12.9941
24.7280,12.9941
24.6513,13.1088
24.5985,13.2363
24.5985,13.2363
24.5716,13.3716
17.9654,13.3716
17.8510,13.2003
17.8510,13.2003
17.8510,13.2003
17.7047,13.0540
17.7047,13.0540
17.6806,13.0380
17.5326,12.9391
17.3414,12.8599
17.3004,12.8517
17.1385,12.8195
17.1385,12.8195
16.9315,12.8195
16.9315,12.8195
16.7286,12.8599
16.7286,12.8599
16.5374,12.9391
16.3653,13.0540
16.3653,13.0540
16.2190,13.2003
16.2190,13.2003
16.1041,13.3724
16.0249,13.5636
16.0249,13.5636
15.9845,13.7665
0.8750,13.7665
0.8750,11.2087
6.2945,11.2087
6.2945,11.4513
6.3262,11.6918
6.3889,11.9261
6.3889,11.9261
6.3889,11.9261
6.4818,12.1502
6.4818,12.1502
6.4818,12.1502
6.6031,12.3603
6.6031,12.3603
6.6031,12.3603
6.7507,12.5527
6.7507,12.5527
6.7507,12.5527
6.9223,12.7243
6.9223,12.7243
6.9223,12.7243
7.1040,12.8637
7.1147,12.8719
7.3248,12.9932
7.3248,12.9932
7.3248,12.9932
7.5489,13.0861
7.7832,13.1488
7.7832,13.1488
7.7832,13.1488
7.8452,13.1570
8.0237,13.1805
8.0237,13.1805
8.2663,13.1805
8.2663,13.1805
8.4836,13.1519
8.5068,13.1488
8.5068,13.1488
8.5068,13.1488
8.7411,13.0861
8.9652,12.9932
9.1753,12.8719
9.3677,12.7243
9.5393,12.5527
9.6869,12.3603
9.8082,12.1502
9.9011,11.9261
9.9335,11.8051
13.4445,11.8051
13.4445,13.3949
13.4445,13.3949
13.4474,13.4200
13.4474,13.4200
13.4928,13.5228
13.5722,13.6022
13.5722,13.6022
13.5722,13.6022
13.6750,13.6476
13.7001,13.6505
15.2899,13.6505
15.3150,13.6476
15.3185,13.6460
15.3207,13.6451
15.4178,13.6022
15.4972,13.5228
15.4972,13.5228
15.5426,13.4200
15.5455,13.3949
15.5455,11.8051
15.5426,11.7800
15.5265,11.7436
15.4972,11.6772
15.4178,11.5978
15.4178,11.5978
15.3150,11.5524
15.3150,11.5524
15.2899,11.5495
13.7001,11.5495
13.7001,11.5495
13.6750,11.5524
13.6750,11.5524
13.5722,11.5978
13.4928,11.6772
13.4928,11.6772
13.4474,11.7800
13.4445,11.8051
9.9335,11.8051
9.9638,11.6918
9.9955,11.4513
9.9955,11.2087
9.9945,11.2008
35.6565,11.2008
35.6565,11.2008
35.6565,11.3388
35.6834,11.4741
35.7362,11.6016
35.7868,11.6772
35.8129,11.7163
35.8129,11.7163
35.9105,11.8139
35.9105,11.8139
36.0252,11.8906
36.1527,11.9434
36.2880,11.9703
36.2880,11.9703
36.4260,11.9703
36.4260,11.9703
36.5613,11.9434
36.6888,11.8906
36.8035,11.8139
36.9011,11.7163
36.9778,11.6016
37.0306,11.4741
37.0575,11.3388
37.0575,11.2008
37.0306,11.0655
36.9778,10.9380
36.9011,10.8233
36.9011,10.8233
36.8035,10.7257
36.8035,10.7257
36.7655,10.7002
36.6888,10.6490
36.5740,10.6015
36.5613,10.5962
36.5613,10.5962
36.4260,10.5693
36.4260,10.5693
36.2880,10.5693
36.2880,10.5693
36.1527,10.5962
36.1527,10.5962
36.0252,10.6490
35.9105,10.7257
35.9105,10.7257
35.8129,10.8233
35.8129,10.8233
35.7362,10.9380
35.6834,11.0655
35.6834,11.0655
35.6565,11.2008
9.9945,11.2008
9.9638,10.9682
9.9011,10.7339
9.8082,10.5098
9.8082,10.5098
9.8082,10.5098
9.6869,10.2997
9.6562,10.2597
9.5393,10.1073
9.5393,10.1073
9.5393,10.1073
9.3677,9.9357
9.3677,9.9357
9.3677,9.9357
9.2676,9.8589
37.4217,9.8589
37.4217,9.9969
37.4320,10.0488
37.4486,10.1322
37.5014,10.2597
37.5526,10.3364
37.5781,10.3744
37.5781,10.3744
37.6757,10.4720
37.6757,10.4720
37.7904,10.5487
37.9179,10.6015
38.0532,10.6284
38.0532,10.6284
38.1912,10.6284
38.1912,10.6284
38.3265,10.6015
38.4540,10.5487
38.5687,10.4720
38.6663,10.3744
38.7430,10.2597
38.7958,10.1322
38.8227,9.9969
38.8227,9.8589
38.8061,9.7755
71.3467,9.7755
71.3467,9.9135
71.3511,9.9357
71.3736,10.0488
71.4264,10.1763
71.4652,10.2344
71.5031,10.2910
71.5031,10.2910
71.6007,10.3886
71.6007,10.3886
71.7154,10.4653
71.8429,10.5181
71.9782,10.5450
71.9782,10.5450
72.1162,10.5450
72.1162,10.5450
72.2515,10.5181
72.3790,10.4653
72.4937,10.3886
72.5718,10.3106
87.9125,10.3106
87.9125,10.4486
87.9263,10.5181
87.9394,10.5839
87.9922,10.7114
88.0434,10.7881
88.0689,10.8261
88.0689,10.8261
88.1665,10.9237
88.1665,10.9237
88.2812,11.0004
88.4087,11.0532
88.5440,11.0801
88.5440,11.0801
88.6820,11.0801
88.6820,11.0801
88.8173,11.0532
88.9448,11.0004
89.0595,10.9237
89.1571,10.8261
89.2338,10.7114
89.2866,10.5839
89.3135,10.4486
89.3135,10.3106
89.2866,10.1753
89.2338,10.0478
89.1571,9.9331
89.1571,9.9331
89.0595,9.8355
89.0595,9.8355
88.9886,9.7881
88.9448,9.7588
88.8597,9.7236
88.8173,9.7060
88.8173,9.7060
88.6820,9.6791
88.6820,9.6791
88.5440,9.6791
88.5440,9.6791
88.4087,9.7060
88.4087,9.7060
88.2812,9.7588
88.1665,9.8355
88.1665,9.8355
88.0689,9.9331
88.0689,9.9331
87.9922,10.0478
87.9394,10.1753
87.9394,10.1753
87.9125,10.3106
72.5718,10.3106
72.5913,10.2910
72.6680,10.1763
72.7208,10.0488
72.7477,9.9135
72.7477,9.7755
72.7208,9.6402
72.6680,9.5127
72.5913,9.3980
72.5913,9.3980
72.4937,9.3004
72.4937,9.3004
72.4248,9.2543
72.3790,9.2237
72.2986,9.1904
72.2515,9.1709
72.2515,9.1709
72.1162,9.1440
72.1162,9.1440
71.9782,9.1440
71.9782,9.1440
71.8429,9.1709
71.8429,9.1709
71.7154,9.2237
71.6007,9.3004
71.6007,9.3004
71.5031,9.3980
71.5031,9.3980
71.4264,9.5127
71.3736,9.6402
71.3736,9.6402
71.3467,9.7755
38.8061,9.7755
38.7958,9.7236
38.7430,9.5961
38.6663,9.4814
38.6663,9.4814
38.5687,9.3838
38.5687,9.3838
38.5025,9.3395
38.4540,9.3071
38.3736,9.2738
38.3265,9.2543
38.3265,9.2543
38.1912,9.2274
38.1912,9.2274
38.0532,9.2274
38.0532,9.2274
37.9179,9.2543
37.9179,9.2543
37.7904,9.3071
37.6757,9.3838
37.6757,9.3838
37.5781,9.4814
37.5781,9.4814
37.5014,9.5961
37.4486,9.7236
37.4486,9.7236
37.4217,9.8589
9.2676,9.8589
9.1753,9.7881
9.1753,9.7881
9.1753,9.7881
8.9652,9.6668
8.9652,9.6668
8.9652,9.6668
8.7411,9.5739
8.7411,9.5739
8.7411,9.5739
8.5068,9.5112
8.2663,9.4795
8.2663,9.4795
8.0237,9.4795
8.0237,9.4795
7.7832,9.5112
7.5489,9.5739
7.5489,9.5739
7.3555,9.6541
7.3248,9.6668
7.3248,9.6668
7.1147,9.7881
6.9223,9.9357
6.9223,9.9357
6.7507,10.1073
6.7507,10.1073
6.6031,10.2997
6.4818,10.5098
6.4818,10.5098
6.4818,10.5098
6.4241,10.6490
6.3889,10.7339
6.3889,10.7339
6.3262,10.9682
6.2945,11.2087
0.8750,11.2087
0.8750,8.9387
19.4863,8.9387
19.4863,9.0767
19.5132,9.2120
19.5132,9.2120
19.5181,9.2237
19.5660,9.3395
19.6051,9.3980
19.6427,9.4542
19.6427,9.4542
19.7403,9.5518
19.7403,9.5518
19.8550,9.6285
19.9825,9.6813
20.1178,9.7082
20.1178,9.7082
20.2558,9.7082
20.2558,9.7082
20.3911,9.6813
20.5186,9.6285
20.6333,9.5518
20.7309,9.4542
20.8076,9.3395
20.8604,9.2120
20.8873,9.0767
20.8873,8.9387
20.8604,8.8034
20.8076,8.6759
20.7309,8.5612
20.7309,8.5612
20.6333,8.4636
20.6333,8.4636
20.5867,8.4324
20.5186,8.3869
20.4174,8.3450
20.3911,8.3341
20.3911,8.3341
20.2558,8.3072
20.2558,8.3072
20.1178,8.3072
20.1178,8.3072
19.9825,8.3341
19.9825,8.3341
19.8550,8.3869
19.7403,8.4636
19.7403,8.4636
19.6427,8.5612
19.6427,8.5612
19.5660,8.6759
19.5132,8.8034
19.5132,8.8034
19.4863,8.9387
0.8750,8.9387
0.8750,8.0316
22.6288,8.0316
22.6288,8.1696
22.6557,8.3049
22.6557,8.3049
22.6673,8.3328
22.7085,8.4324
22.7366,8.4745
22.7852,8.5471
22.7852,8.5471
22.8828,8.6447
22.8828,8.6447
22.9975,8.7214
23.1250,8.7742
23.2603,8.8011
23.2603,8.8011
23.3983,8.8011
23.3983,8.8011
23.5336,8.7742
23.6611,8.7214
23.7758,8.6447
23.8734,8.5471
23.9501,8.4324
24.0029,8.3049
24.0298,8.1696
24.0298,8.0316
24.0235,7.9999
25.0788,7.9999
25.0788,8.1379
25.1057,8.2732
25.1057,8.2732
25.1189,8.3049
25.1585,8.4007
25.2097,8.4774
25.2352,8.5154
25.2352,8.5154
25.3328,8.6130
25.3328,8.6130
25.4309,8.6786
25.4765,8.7331
25.4853,8.8035
25.4774,8.8316
25.4573,8.8800
25.4573,8.8800
25.4304,9.0153
25.4304,9.1533
25.4444,9.2237
25.4573,9.2886
25.5101,9.4161
25.5356,9.4542
25.5868,9.5308
25.5868,9.5308
25.6844,9.6284
25.6844,9.6284
25.7991,9.7051
25.9266,9.7579
26.0619,9.7848
26.0619,9.7848
26.1999,9.7848
26.1999,9.7848
26.3352,9.7579
26.3934,9.7338
26.3952,9.7330
26.4627,9.7051
26.5774,9.6284
26.6750,9.5308
26.7517,9.4161
26.8045,9.2886
26.8314,9.1533
26.8314,9.0153
26.8045,8.8800
26.7517,8.7525
26.6750,8.6378
26.6750,8.6378
26.5774,8.5402
26.5774,8.5402
26.4793,8.4746
26.4337,8.4201
26.4249,8.3497
26.4328,8.3216
26.4529,8.2732
26.4798,8.1379
26.4798,7.9999
26.4529,7.8646
26.4001,7.7371
26.3966,7.7319
31.2195,7.7319
31.2195,7.8699
31.2464,8.0052
31.2464,8.0052
31.2573,8.0316
31.2992,8.1327
31.3350,8.1863
31.3759,8.2474
31.3759,8.2474
31.4735,8.3450
31.4735,8.3450
31.5882,8.4217
31.7157,8.4745
31.8510,8.5014
31.8510,8.5014
31.9890,8.5014
31.9890,8.5014
32.1243,8.4745
32.2518,8.4217
32.3665,8.3450
32.4641,8.2474
32.5408,8.1327
32.5757,8.0483
35.6953,8.0483
35.6953,8.1863
35.7222,8.3216
35.7222,8.3216
35.7281,8.3359
35.7750,8.4491
35.8262,8.5258
35.8517,8.5638
35.8517,8.5638
35.9493,8.6614
35.9493,8.6614
36.0640,8.7381
36.1915,8.7909
36.3268,8.8178
36.3268,8.8178
36.4648,8.8178
36.4648,8.8178
36.6001,8.7909
36.7276,8.7381
36.8423,8.6614
36.9399,8.5638
37.0018,8.4712
40.2015,8.4712
40.2015,8.6092
40.2284,8.7445
40.2284,8.7445
40.2407,8.7742
40.2812,8.8720
40.3258,8.9387
40.3579,8.9867
40.3579,8.9867
40.4555,9.0843
40.4555,9.0843
40.5702,9.1610
40.6977,9.2138
40.8330,9.2407
40.8330,9.2407
40.9710,9.2407
40.9710,9.2407
41.1063,9.2138
41.2338,9.1610
41.3485,9.0843
41.4461,8.9867
41.4611,8.9643
81.0685,8.9643
81.0685,9.1023
81.0954,9.2376
81.1482,9.3651
81.1607,9.3838
81.2249,9.4798
81.2249,9.4798
81.3225,9.5774
81.3225,9.5774
81.4372,9.6541
81.5647,9.7069
81.7000,9.7338
81.7000,9.7338
81.8380,9.7338
81.8380,9.7338
81.9733,9.7069
82.1008,9.6541
82.2155,9.5774
82.3131,9.4798
82.3898,9.3651
82.4426,9.2376
82.4695,9.1023
82.4695,8.9643
82.4426,8.8290
82.3898,8.7015
82.3131,8.5868
82.3131,8.5868
82.2155,8.4892
82.2155,8.4892
82.1771,8.4635
82.1008,8.4125
82.0204,8.3792
81.9733,8.3597
81.9733,8.3597
81.8380,8.3328
81.8380,8.3328
81.7000,8.3328
81.7000,8.3328
81.5647,8.3597
81.5647,8.3597
81.4372,8.4125
81.3225,8.4892
81.3225,8.4892
81.2249,8.5868
81.2249,8.5868
81.1482,8.7015
81.0954,8.8290
81.0954,8.8290
81.0685,8.9643
41.4611,8.9643
41.5228,8.8720
41.5756,8.7445
41.6025,8.6092
41.6025,8.4712
41.5756,8.3359
41.5228,8.2084
41.4461,8.0937
41.4461,8.0937
41.3485,7.9961
41.3485,7.9961
41.3105,7.9706
41.2338,7.9194
41.1142,7.8699
41.1063,7.8666
41.1063,7.8666
40.9710,7.8397
40.9710,7.8397
40.8330,7.8397
40.8330,7.8397
40.6977,7.8666
40.6977,7.8666
40.5702,7.9194
40.4555,7.9961
40.4555,7.9961
40.3579,8.0937
40.3579,8.0937
40.2812,8.2084
40.2284,8.3359
40.2284,8.3359
40.2015,8.4712
37.0018,8.4712
37.0166,8.4491
37.0694,8.3216
37.0963,8.1863
37.0963,8.0483
37.0694,7.9130
37.0166,7.7855
36.9399,7.6708
36.9399,7.6708
36.8423,7.5732
36.8423,7.5732
36.7745,7.5279
36.7276,7.4965
36.6001,7.4437
36.6001,7.4437
36.5277,7.4293
86.1783,7.4293
86.1783,7.5673
86.1956,7.6541
86.2052,7.7026
86.2580,7.8301
86.3092,7.9068
86.3347,7.9448
86.3347,7.9448
86.4323,8.0424
86.4323,8.0424
86.5470,8.1191
86.6745,8.1719
86.8098,8.1988
86.8098,8.1988
86.9478,8.1988
86.9478,8.1988
87.0831,8.1719
87.2106,8.1191
87.3253,8.0424
87.4229,7.9448
87.4996,7.8301
87.5524,7.7026
87.5793,7.5673
87.5793,7.4293
87.5524,7.2940
87.4996,7.1665
87.4229,7.0518
87.4229,7.0518
87.3253,6.9542
87.3253,6.9542
87.2873,6.9287
87.2106,6.8775
87.1302,6.8442
87.0831,6.8247
87.0831,6.8247
86.9478,6.7978
86.9478,6.7978
86.8098,6.7978
86.8098,6.7978
86.6745,6.8247
86.6745,6.8247
86.5470,6.8775
86.4323,6.9542
86.4323,6.9542
86.3347,7.0518
86.3347,7.0518
86.2580,7.1665
86.2052,7.2940
86.2052,7.2940
86.1783,7.4293
36.5277,7.4293
36.4648,7.4168
36.4648,7.4168
36.3268,7.4168
36.3268,7.4168
36.1915,7.4437
36.1915,7.4437
36.0640,7.4965
35.9493,7.5732
35.9493,7.5732
35.8517,7.6708
35.8517,7.6708
35.7750,7.7855
35.7222,7.9130
35.7222,7.9130
35.6953,8.0483
32.5757,8.0483
32.5936,8.0052
32.6205,7.8699
32.6205,7.7319
32.5936,7.5966
32.5408,7.4691
32.4641,7.3544
32.4641,7.3544
32.3665,7.2568
32.3665,7.2568
32.3285,7.2313
32.2518,7.1801
32.1714,7.1468
32.1243,7.1273
32.1243,7.1273
31.9890,7.1004
31.9890,7.1004
31.8510,7.1004
31.8510,7.1004
31.7157,7.1273
31.7157,7.1273
31.5882,7.1801
31.4735,7.2568
31.4735,7.2568
31.3759,7.3544
31.3759,7.3544
31.2992,7.4691
31.2464,7.5966
31.2464,7.5966
31.2195,7.7319
26.3966,7.7319
26.3234,7.6224
26.3234,7.6224
26.2258,7.5248
26.2258,7.5248
26.1878,7.4993
26.1111,7.4481
25.9952,7.4001
25.9836,7.3953
25.9836,7.3953
25.8483,7.3684
25.8483,7.3684
25.7103,7.3684
25.7103,7.3684
25.5750,7.3953
25.5750,7.3953
25.4475,7.4481
25.3328,7.5248
25.3328,7.5248
25.2352,7.6224
25.2352,7.6224
25.1585,7.7371
25.1057,7.8646
25.1057,7.8646
25.0788,7.9999
24.0235,7.9999
24.0029,7.8963
23.9501,7.7688
23.8734,7.6541
23.8734,7.6541
23.7758,7.5565
23.7758,7.5565
23.6861,7.4965
23.6611,7.4798
23.5392,7.4293
23.5336,7.4270
23.5336,7.4270
23.3983,7.4001
23.3983,7.4001
23.2603,7.4001
23.2603,7.4001
23.1250,7.4270
23.1250,7.4270
22.9975,7.4798
22.8828,7.5565
22.8828,7.5565
22.7852,7.6541
22.7852,7.6541
22.7085,7.7688
22.6557,7.8963
22.6557,7.8963
22.6288,8.0316
0.8750,8.0316
0.8750,5.7065
40.1890,5.7065
40.1890,5.7065
40.1890,5.8445
40.2159,5.9798
40.2687,6.1073
40.3199,6.1840
40.3454,6.2220
40.3454,6.2220
40.4430,6.3196
40.4430,6.3196
40.5577,6.3963
40.6852,6.4491
40.8205,6.4760
40.8205,6.4760
40.9585,6.4760
40.9585,6.4760
41.0938,6.4491
41.2213,6.3963
41.3360,6.3196
41.4336,6.2220
41.5103,6.1073
41.5631,5.9798
41.5900,5.8445
41.5900,5.7065
41.5631,5.5712
41.5103,5.4437
41.4336,5.3290
41.4336,5.3290
41.3360,5.2314
41.3360,5.2314
41.2980,5.2059
41.2213,5.1547
41.1409,5.1214
41.0938,5.1019
41.0938,5.1019
40.9585,5.0750
40.9585,5.0750
40.8205,5.0750
40.8205,5.0750
40.6852,5.1019
40.6852,5.1019
40.5577,5.1547
40.4430,5.2314
40.4430,5.2314
40.3454,5.3290
40.3454,5.3290
40.2687,5.4437
40.2159,5.5712
40.2159,5.5712
40.1890,5.7065
0.8750,5.7065
0.8750,1.9630
33.4525,1.9630
33.4525,2.1010
33.4549,2.1130
33.4794,2.2363
33.5322,2.3638
33.5660,2.4143
33.6089,2.4785
33.6089,2.4785
33.7065,2.5761
33.7065,2.5761
33.8212,2.6528
33.9487,2.7056
34.0840,2.7325
34.0840,2.7325
34.2220,2.7325
34.2220,2.7325
34.3573,2.7056
34.4848,2.6528
34.5995,2.5761
34.6971,2.4785
34.7738,2.3638
34.8266,2.2363
34.8535,2.1010
34.8535,1.9630
34.8535,1.9630
89.0045,1.9630
89.0045,2.1010
89.0069,2.1130
89.0314,2.2363
89.0842,2.3638
89.1180,2.4143
89.1609,2.4785
89.1609,2.4785
89.2585,2.5761
89.2585,2.5761
89.3732,2.6528
89.5007,2.7056
89.6360,2.7325
89.6360,2.7325
89.7740,2.7325
89.7740,2.7325
89.9093,2.7056
90.0368,2.6528
90.1515,2.5761
90.2372,2.4905
90.6776,2.4905
90.6776,2.6285
90.6983,2.7325
90.7045,2.7638
90.7573,2.8913
90.8085,2.9680
90.8340,3.0060
90.8340,3.0060
90.9316,3.1036
90.9316,3.1036
91.0463,3.1803
91.1738,3.2331
91.3091,3.2600
91.3091,3.2600
91.4471,3.2600
91.4471,3.2600
91.5824,3.2331
91.7099,3.1803
91.8246,3.1036
91.9222,3.0060
91.9989,2.8913
92.0517,2.7638
92.0786,2.6285
92.0786,2.4905
92.0517,2.3552
91.9989,2.2277
91.9222,2.1130
91.9222,2.1130
91.8246,2.0154
91.8246,2.0154
91.7866,1.9899
91.7099,1.9387
91.6295,1.9054
91.5824,1.8859
91.5824,1.8859
91.4471,1.8590
91.4471,1.8590
91.3091,1.8590
91.3091,1.8590
91.1738,1.8859
91.1738,1.8859
91.0463,1.9387
90.9316,2.0154
90.9316,2.0154
90.8340,2.1130
90.8340,2.1130
90.7573,2.2277
90.7045,2.3552
90.7045,2.3552
90.6776,2.4905
90.2372,2.4905
90.2491,2.4785
90.3258,2.3638
90.3786,2.2363
90.4055,2.1010
90.4055,1.9630
90.3786,1.8277
90.3258,1.7002
90.2491,1.5855
90.2491,1.5855
90.1515,1.4879
90.1515,1.4879
90.1135,1.4624
90.0368,1.4112
89.9564,1.3779
89.9093,1.3584
89.9093,1.3584
89.7740,1.3315
89.7740,1.3315
89.6360,1.3315
89.6360,1.3315
89.5007,1.3584
89.5007,1.3584
89.3732,1.4112
89.2585,1.4879
89.2585,1.4879
89.1609,1.5855
89.1609,1.5855
89.0842,1.7002
89.0314,1.8277
89.0314,1.8277
89.0045,1.9630
34.8535,1.9630
34.8266,1.8277
34.7738,1.7002
34.6971,1.5855
34.6971,1.5855
34.5995,1.4879
34.5995,1.4879
34.5615,1.4624
34.4848,1.4112
34.4044,1.3779
34.3573,1.3584
34.3573,1.3584
34.2220,1.3315
34.2220,1.3315
34.0840,1.3315
34.0840,1.3315
33.9487,1.3584
33.9487,1.3584
33.8212,1.4112
33.7065,1.4879
33.7065,1.4879
33.6089,1.5855
33.6089,1.5855
33.5322,1.7002
33.4794,1.8277
33.4794,1.8277
33.4525,1.9630
0.8750,1.9630
0.8750,0.5260
0.8950,0.4579
0.9487,0.4114
1.0010,0.4000
99.0490,0.4000
Z" /> 
</g>
<g style="fill:#FFFFFF; fill-opacity:1.0000; stroke:none;">
<circle cx="32.6570" cy="20.2532" r="0.2000" /> 
</g>
<g style="fill:#FFFFFF; fill-opacity:1.0000; stroke:none;">
<circle cx="36.3570" cy="11.2698" r="0.2000" /> 
</g>
<g style="fill:#FFFFFF; fill-opacity:1.0000; stroke:none;">
<circle cx="81.1691" cy="31.2049" r="0.2000" /> 
</g>
<g style="fill:#FFFFFF; fill-opacity:1.0000; stroke:none;">
<circle cx="81.2461" cy="24.7107" r="0.2000" /> 
</g>
<g style="fill:#FFFFFF; fill-opacity:1.0000; stroke:none;">
<circle cx="79.9321" cy="28.0311" r="0.2000" /> 
</g>
<g style="fill:#FFFFFF; fill-opacity:1.0000; stroke:none;">
<circle cx="86.5250" cy="24.7500" r="0.2000" /> 
</g>
<g style="fill:#FFFFFF; fill-opacity:1.0000; stroke:none;">
<circle cx="73.2250" cy="38.0500" r="0.2000" /> 
</g>
<g style="fill:#FFFFFF; fill-opacity:1.0000; stroke:none;">
<circle cx="91.0969" cy="28.2367" r="0.2000" /> 
</g>
<g style="fill:#FFFFFF; fill-opacity:1.0000; stroke:none;">
<circle cx="78.3250" cy="39.0500" r="0.2000" /> 
</g>
<g style="fill:#FFFFFF; fill-opacity:1.0000; stroke:none;">
<circle cx="85.3510" cy="34.3829" r="0.2000" /> 
</g>
<g style="fill:#FFFFFF; fill-opacity:1.0000; stroke:none;">
<circle cx="31.4750" cy="38.6500" r="0.2000" /> 
</g>
<g style="fill:#FFFFFF; fill-opacity:1.0000; stroke:none;">
<circle cx="78.3050" cy="20.0497" r="0.2000" /> 
</g>
<g style="fill:#FFFFFF; fill-opacity:1.0000; stroke:none;">
<circle cx="26.1309" cy="9.0843" r="0.2000" /> 
</g>
<g style="fill:#FFFFFF; fill-opacity:1.0000; stroke:none;">
<circle cx="86.8788" cy="7.4983" r="0.2000" /> 
</g>
<g style="fill:#FFFFFF; fill-opacity:1.0000; stroke:none;">
<circle cx="40.8895" cy="5.7755" r="0.2000" /> 
</g>
<g style="fill:#FFFFFF; fill-opacity:1.0000; stroke:none;">
<circle cx="81.3510" cy="28.8086" r="0.2000" /> 
</g>
<g style="fill:#FFFFFF; fill-opacity:1.0000; stroke:none;">
<circle cx="88.9133" cy="31.5313" r="0.2000" /> 
</g>
<g style="fill:#FFFFFF; fill-opacity:1.0000; stroke:none;">
<circle cx="89.7050" cy="2.0320" r="0.2000" /> 
</g>
<g style="fill:#FFFFFF; fill-opacity:1.0000; stroke:none;">
<circle cx="91.3781" cy="2.5595" r="0.2000" /> 
</g>
<g style="fill:#FFFFFF; fill-opacity:1.0000; stroke:none;">
<circle cx="74.3246" cy="30.7216" r="0.2000" /> 
</g>
<g style="fill:#FFFFFF; fill-opacity:1.0000; stroke:none;">
<circle cx="32.9061" cy="12.4172" r="0.2000" /> 
</g>
<g style="fill:#FFFFFF; fill-opacity:1.0000; stroke:none;">
<circle cx="73.9876" cy="15.7328" r="0.2000" /> 
</g>
<g style="fill:#FFFFFF; fill-opacity:1.0000; stroke:none;">
<circle cx="36.8790" cy="30.8084" r="0.2000" /> 
</g>
<g style="fill:#FFFFFF; fill-opacity:1.0000; stroke:none;">
<circle cx="35.8513" cy="14.3878" r="0.2000" /> 
</g>
<g style="fill:#FFFFFF; fill-opacity:1.0000; stroke:none;">
<circle cx="23.3293" cy="8.1006" r="0.2000" /> 
</g>
<g style="fill:#FFFFFF; fill-opacity:1.0000; stroke:none;">
<circle cx="26.2170" cy="31.2738" r="0.2000" /> 
</g>
<g style="fill:#FFFFFF; fill-opacity:1.0000; stroke:none;">
<circle cx="25.9790" cy="34.6681" r="0.2000" /> 
</g>
<g style="fill:#FFFFFF; fill-opacity:1.0000; stroke:none;">
<circle cx="38.1222" cy="9.9279" r="0.2000" /> 
</g>
<g style="fill:#FFFFFF; fill-opacity:1.0000; stroke:none;">
<circle cx="78.2591" cy="21.2133" r="0.2000" /> 
</g>
<g style="fill:#FFFFFF; fill-opacity:1.0000; stroke:none;">
<circle cx="25.2721" cy="13.4406" r="0.2000" /> 
</g>
<g style="fill:#FFFFFF; fill-opacity:1.0000; stroke:none;">
<circle cx="31.9200" cy="7.8009" r="0.2000" /> 
</g>
<g style="fill:#FFFFFF; fill-opacity:1.0000; stroke:none;">
<circle cx="38.4711" cy="28.6095" r="0.2000" /> 
</g>
<g style="fill:#FFFFFF; fill-opacity:1.0000; stroke:none;">
<circle cx="23.2732" cy="19.5148" r="0.2000" /> 
</g>
<g style="fill:#FFFFFF; fill-opacity:1.0000; stroke:none;">
<circle cx="20.1868" cy="9.0077" r="0.2000" /> 
</g>
<g style="fill:#FFFFFF; fill-opacity:1.0000; stroke:none;">
<circle cx="73.0250" cy="32.0500" r="0.2000" /> 
</g>
<g style="fill:#FFFFFF; fill-opacity:1.0000; stroke:none;">
<circle cx="70.3250" cy="9.3500" r="0.2000" /> 
</g>
<g style="fill:#FFFFFF; fill-opacity:1.0000; stroke:none;">
<circle cx="83.9250" cy="39.0500" r="0.2000" /> 
</g>
<g style="fill:#FFFFFF; fill-opacity:1.0000; stroke:none;">
<circle cx="62.1750" cy="10.2500" r="0.2000" /> 
</g>
<g style="fill:#FFFFFF; fill-opacity:1.0000; stroke:none;">
<circle cx="18.0250" cy="21.4900" r="0.2000" /> 
</g>
<g style="fill:#FFFFFF; fill-opacity:1.0000; stroke:none;">
<circle cx="36.0250" cy="22.0500" r="0.2000" /> 
</g>
<g style="fill:#FFFFFF; fill-opacity:1.0000; stroke:none;">
<circle cx="36.0250" cy="15.5500" r="0.2000" /> 
</g>
<g style="fill:#FFFFFF; fill-opacity:1.0000; stroke:none;">
<circle cx="55.5250" cy="4.0500" r="0.2000" /> 
</g>
<g style="fill:#FFFFFF; fill-opacity:1.0000; stroke:none;">
<circle cx="26.7250" cy="15.5500" r="0.2000" /> 
</g>
<g style="fill:#FFFFFF; fill-opacity:1.0000; stroke:none;">
<circle cx="70.3250" cy="20.0500" r="0.2000" /> 
</g>
<g style="fill:#FFFFFF; fill-opacity:1.0000; stroke:none;">
<circle cx="69.0250" cy="32.0500" r="0.2000" /> 
</g>
<g style="fill:#FFFFFF; fill-opacity:1.0000; stroke:none;">
<circle cx="54.7250" cy="36.2500" r="0.2000" /> 
</g>
<g style="fill:#FFFFFF; fill-opacity:1.0000; stroke:none;">
<circle cx="81.2750" cy="26.5500" r="0.2000" /> 
</g>
<g style="fill:#FFFFFF; fill-opacity:1.0000; stroke:none;">
<circle cx="68.5250" cy="26.3500" r="0.2000" /> 
</g>
<g style="fill:#FFFFFF; fill-opacity:1.0000; stroke:none;">
<circle cx="48.5250" cy="38.0500" r="0.2000" /> 
</g>
<g style="fill:#FFFFFF; fill-opacity:1.0000; stroke:none;">
<circle cx="47.1250" cy="34.0500" r="0.2000" /> 
</g>
<g style="fill:#FFFFFF; fill-opacity:1.0000; stroke:none;">
<circle cx="19.5250" cy="22.3000" r="0.2000" /> 
</g>
<g style="fill:#FFFFFF; fill-opacity:1.0000; stroke:none;">
<circle cx="90.5250" cy="24.0500" r="0.2000" /> 
</g>
<g style="fill:#FFFFFF; fill-opacity:1.0000; stroke:none;">
<circle cx="58.2750" cy="19.8000" r="0.2000" /> 
</g>
<g style="fill:#FFFFFF; fill-opacity:1.0000; stroke:none;">
<circle cx="26.7250" cy="22.0500" r="0.2000" /> 
</g>
<g style="fill:#FFFFFF; fill-opacity:1.0000; stroke:none;">
<circle cx="68.5250" cy="11.5500" r="0.2000" /> 
</g>
<g style="fill:#FFFFFF; fill-opacity:1.0000; stroke:none;">
<circle cx="21.2750" cy="13.8000" r="0.2000" /> 
</g>
<g style="fill:#FFFFFF; fill-opacity:1.0000; stroke:none;">
<circle cx="62.1750" cy="24.7500" r="0.2000" /> 
</g>
<g style="fill:#FFFFFF; fill-opacity:1.0000; stroke:none;">
<circle cx="81.9441" cy="32.6772" r="0.2000" /> 
</g>
<g style="fill:#FFFFFF; fill-opacity:1.0000; stroke:none;">
<circle cx="85.7778" cy="28.7355" r="0.2000" /> 
</g>
<g style="fill:#FFFFFF; fill-opacity:1.0000; stroke:none;">
<circle cx="81.6629" cy="30.2003" r="0.2000" /> 
</g>
<g style="fill:#FFFFFF; fill-opacity:1.0000; stroke:none;">
<circle cx="78.2557" cy="23.6565" r="0.2000" /> 
</g>
<g style="fill:#FFFFFF; fill-opacity:1.0000; stroke:none;">
<circle cx="86.5250" cy="30.9500" r="0.2000" /> 
</g>
<g style="fill:#FFFFFF; fill-opacity:1.0000; stroke:none;">
<circle cx="90.5250" cy="25.5500" r="0.2000" /> 
</g>
<g style="fill:#FFFFFF; fill-opacity:1.0000; stroke:none;">
<circle cx="25.7744" cy="24.6706" r="0.2000" /> 
</g>
<g style="fill:#FFFFFF; fill-opacity:1.0000; stroke:none;">
<circle cx="37.4826" cy="17.6847" r="0.2000" /> 
</g>
<g style="fill:#FFFFFF; fill-opacity:1.0000; stroke:none;">
<circle cx="25.9854" cy="12.6113" r="0.2000" /> 
</g>
<g style="fill:#FFFFFF; fill-opacity:1.0000; stroke:none;">
<circle cx="29.5232" cy="12.5199" r="0.2000" /> 
</g>
<g style="fill:#FFFFFF; fill-opacity:1.0000; stroke:none;">
<circle cx="26.3705" cy="19.7351" r="0.2000" /> 
</g>
<g style="fill:#FFFFFF; fill-opacity:1.0000; stroke:none;">
<circle cx="31.4032" cy="24.7852" r="0.2000" /> 
</g>
<g style="fill:#FFFFFF; fill-opacity:1.0000; stroke:none;">
<circle cx="36.3958" cy="8.1173" r="0.2000" /> 
</g>
<g style="fill:#FFFFFF; fill-opacity:1.0000; stroke:none;">
<circle cx="31.0478" cy="19.7089" r="0.2000" /> 
</g>
<g style="fill:#FFFFFF; fill-opacity:1.0000; stroke:none;">
<circle cx="25.3490" cy="15.7369" r="0.2000" /> 
</g>
<g style="fill:#FFFFFF; fill-opacity:1.0000; stroke:none;">
<circle cx="34.8213" cy="30.0806" r="0.2000" /> 
</g>
<g style="fill:#FFFFFF; fill-opacity:1.0000; stroke:none;">
<circle cx="40.9020" cy="8.5402" r="0.2000" /> 
</g>
<g style="fill:#FFFFFF; fill-opacity:1.0000; stroke:none;">
<circle cx="73.5250" cy="22.4736" r="0.2000" /> 
</g>
<g style="fill:#FFFFFF; fill-opacity:1.0000; stroke:none;">
<circle cx="72.0472" cy="9.8445" r="0.2000" /> 
</g>
<g style="fill:#FFFFFF; fill-opacity:1.0000; stroke:none;">
<circle cx="44.1428" cy="21.4725" r="0.2000" /> 
</g>
<g style="fill:#FFFFFF; fill-opacity:1.0000; stroke:none;">
<circle cx="58.6853" cy="23.3247" r="0.2000" /> 
</g>
<g style="fill:#FFFFFF; fill-opacity:1.0000; stroke:none;">
<circle cx="63.3195" cy="16.6414" r="0.2000" /> 
</g>
<g style="fill:#FFFFFF; fill-opacity:1.0000; stroke:none;">
<circle cx="52.4250" cy="31.8500" r="0.2000" /> 
</g>
<g style="fill:#FFFFFF; fill-opacity:1.0000; stroke:none;">
<circle cx="65.3250" cy="33.7500" r="0.2000" /> 
</g>
<g style="fill:#FFFFFF; fill-opacity:1.0000; stroke:none;">
<circle cx="57.8947" cy="21.3498" r="0.2000" /> 
</g>
<g style="fill:#FFFFFF; fill-opacity:1.0000; stroke:none;">
<circle cx="54.9953" cy="26.4783" r="0.2000" /> 
</g>
<g style="fill:#FFFFFF; fill-opacity:1.0000; stroke:none;">
<circle cx="78.4328" cy="24.7239" r="0.2000" /> 
</g>
<g style="fill:#FFFFFF; fill-opacity:1.0000; stroke:none;">
<circle cx="38.1210" cy="31.0135" r="0.2000" /> 
</g>
<g style="fill:#FFFFFF; fill-opacity:1.0000; stroke:none;">
<circle cx="25.7793" cy="8.0689" r="0.2000" /> 
</g>
<g style="fill:#FFFFFF; fill-opacity:1.0000; stroke:none;">
<circle cx="25.3042" cy="27.9850" r="0.2000" /> 
</g>
<g style="fill:#FFFFFF; fill-opacity:1.0000; stroke:none;">
<circle cx="81.7690" cy="9.0333" r="0.2000" /> 
</g>
<g style="fill:#FFFFFF; fill-opacity:1.0000; stroke:none;">
<circle cx="33.7926" cy="34.8287" r="0.2000" /> 
</g>
<g style="fill:#FFFFFF; fill-opacity:1.0000; stroke:none;">
<circle cx="88.6130" cy="10.3796" r="0.2000" /> 
</g>
<g style="fill:#FFFFFF; fill-opacity:1.0000; stroke:none;">
<circle cx="14.3130" cy="34.6681" r="0.2000" /> 
</g>
<g style="fill:#FFFFFF; fill-opacity:1.0000; stroke:none;">
<circle cx="34.1530" cy="2.0320" r="0.2000" /> 
</g>
<g style="fill:#FFFFFF; fill-opacity:1.0000; stroke:none;">
<circle cx="29.3041" cy="30.2893" r="0.2000" /> 
</g>
<g style="fill:#FFFFFF; fill-opacity:1.0000; stroke:none;">
<circle cx="18.2810" cy="27.3589" r="0.2000" /> 
</g>
<g style="fill:#FFFFFF; fill-opacity:1.0000; stroke:none;">
<circle cx="94.5250" cy="35.0500" r="1.6000" /> 
</g>
<g style="fill:#FFFFFF; fill-opacity:1.0000; stroke:none;">
<circle cx="8.1450" cy="11.3300" r="1.6000" /> 
</g>
<g style="fill:#FFFFFF; fill-opacity:1.0000; stroke:none;">
<circle cx="8.1450" cy="22.7600" r="1.6000" /> 
</g>
<g style="fill:#FFFFFF; fill-opacity:1.0000; stroke:none;">
<circle cx="14.4950" cy="12.6000" r="0.4500" /> 
</g>
<g style="fill:#FFFFFF; fill-opacity:1.0000; stroke:none;">
<circle cx="17.0350" cy="13.8700" r="0.4500" /> 
</g>
<g style="fill:#FFFFFF; fill-opacity:1.0000; stroke:none;">
<circle cx="14.4950" cy="15.1400" r="0.4500" /> 
</g>
<g style="fill:#FFFFFF; fill-opacity:1.0000; stroke:none;">
<circle cx="17.0350" cy="16.4100" r="0.4500" /> 
</g>
<g style="fill:#FFFFFF; fill-opacity:1.0000; stroke:none;">
<circle cx="14.4950" cy="17.6800" r="0.4500" /> 
</g>
<g style="fill:#FFFFFF; fill-opacity:1.0000; stroke:none;">
<circle cx="17.0350" cy="18.9500" r="0.4500" /> 
</g>
<g style="fill:#FFFFFF; fill-opacity:1.0000; stroke:none;">
<circle cx="14.4950" cy="20.2200" r="0.4500" /> 
</g>
<g style="fill:#FFFFFF; fill-opacity:1.0000; stroke:none;">
<circle cx="17.0350" cy="21.4900" r="0.4500" /> 
</g>
<g style="fill:#FFFFFF; fill-opacity:1.0000; stroke:none;">
<circle cx="5.0250" cy="33.0500" r="1.6000" /> 
</g> 
</svg>
