%TF.GenerationSoftware,KiCad,Pcbnew,9.0.9*%
%TF.CreationDate,2026-10-03T19:22:29-04:00*%
%TF.ProjectId,OnionStraws,4f6e696f-6e53-4747-9261-77732e6b6963,rev?*%
%TF.SameCoordinates,Original*%
%TF.FileFunction,Copper,L2,Bot*%
%TF.FilePolarity,Positive*%
%FSLAX46Y46*%
G04 Gerber Fmt 4.6, Leading zero omitted, Abs format (unit mm)*
G04 Created by KiCad (PCBNEW 9.0.9) date 2026-10-03 19:22:29*
%MOMM*%
%LPD*%
G01*
G04 APERTURE LIST*
G04 Aperture macros list*
%AMRoundRect*
0 Rectangle with rounded corners*
0 $1 Rounding radius*
0 $2 $3 $4 $5 $6 $7 $8 $9 X,Y pos of 4 corners*
0 Add a 4 corners polygon primitive as box body*
4,1,4,$2,$3,$4,$5,$6,$7,$8,$9,$2,$3,0*
0 Add four circle primitives for the rounded corners*
1,1,$1+$1,$2,$3*
1,1,$1+$1,$4,$5*
1,1,$1+$1,$6,$7*
1,1,$1+$1,$8,$9*
0 Add four rect primitives between the rounded corners*
20,1,$1+$1,$2,$3,$4,$5,0*
20,1,$1+$1,$4,$5,$6,$7,0*
20,1,$1+$1,$6,$7,$8,$9,0*
20,1,$1+$1,$8,$9,$2,$3,0*%
%AMFreePoly0*
4,1,23,0.550000,-0.750000,0.000000,-0.750000,0.000000,-0.745722,-0.065263,-0.745722,-0.191342,-0.711940,-0.304381,-0.646677,-0.396677,-0.554381,-0.461940,-0.441342,-0.495722,-0.315263,-0.495722,-0.250000,-0.500000,-0.250000,-0.500000,0.250000,-0.495722,0.250000,-0.495722,0.315263,-0.461940,0.441342,-0.396677,0.554381,-0.304381,0.646677,-0.191342,0.711940,-0.065263,0.745722,0.000000,0.745722,
0.000000,0.750000,0.550000,0.750000,0.550000,-0.750000,0.550000,-0.750000,$1*%
%AMFreePoly1*
4,1,23,0.000000,0.745722,0.065263,0.745722,0.191342,0.711940,0.304381,0.646677,0.396677,0.554381,0.461940,0.441342,0.495722,0.315263,0.495722,0.250000,0.500000,0.250000,0.500000,-0.250000,0.495722,-0.250000,0.495722,-0.315263,0.461940,-0.441342,0.396677,-0.554381,0.304381,-0.646677,0.191342,-0.711940,0.065263,-0.745722,0.000000,-0.745722,0.000000,-0.750000,-0.550000,-0.750000,
-0.550000,0.750000,0.000000,0.750000,0.000000,0.745722,0.000000,0.745722,$1*%
G04 Aperture macros list end*
%TA.AperFunction,EtchedComponent*%
%ADD10C,0.000000*%
%TD*%
%TA.AperFunction,HeatsinkPad*%
%ADD11C,0.600000*%
%TD*%
%TA.AperFunction,ComponentPad*%
%ADD12R,1.500000X1.500000*%
%TD*%
%TA.AperFunction,ComponentPad*%
%ADD13C,1.500000*%
%TD*%
%TA.AperFunction,SMDPad,CuDef*%
%ADD14C,2.000000*%
%TD*%
%TA.AperFunction,SMDPad,CuDef*%
%ADD15RoundRect,0.250000X-0.262500X-0.450000X0.262500X-0.450000X0.262500X0.450000X-0.262500X0.450000X0*%
%TD*%
%TA.AperFunction,ConnectorPad*%
%ADD16C,0.787400*%
%TD*%
%TA.AperFunction,SMDPad,CuDef*%
%ADD17FreePoly0,270.000000*%
%TD*%
%TA.AperFunction,SMDPad,CuDef*%
%ADD18R,1.500000X1.000000*%
%TD*%
%TA.AperFunction,SMDPad,CuDef*%
%ADD19FreePoly1,270.000000*%
%TD*%
%TA.AperFunction,ComponentPad*%
%ADD20R,1.700000X1.700000*%
%TD*%
%TA.AperFunction,ComponentPad*%
%ADD21O,1.700000X1.700000*%
%TD*%
%TA.AperFunction,ViaPad*%
%ADD22C,0.800000*%
%TD*%
%TA.AperFunction,Conductor*%
%ADD23C,0.406400*%
%TD*%
%TA.AperFunction,Conductor*%
%ADD24C,0.250000*%
%TD*%
G04 APERTURE END LIST*
D10*
%TA.AperFunction,EtchedComponent*%
%TO.C,JP2*%
G36*
X115825000Y-106100000D02*
G01*
X115225000Y-106100000D01*
X115225000Y-105600000D01*
X115825000Y-105600000D01*
X115825000Y-106100000D01*
G37*
%TD.AperFunction*%
%TA.AperFunction,EtchedComponent*%
%TO.C,JP1*%
G36*
X59800000Y-103400000D02*
G01*
X59200000Y-103400000D01*
X59200000Y-102900000D01*
X59800000Y-102900000D01*
X59800000Y-103400000D01*
G37*
%TD.AperFunction*%
%TD*%
D11*
%TO.P,U2,19,GND*%
%TO.N,GND*%
X49350000Y-95000000D03*
X50450000Y-95000000D03*
X48800000Y-94450000D03*
X49900000Y-94450000D03*
X51000000Y-94450000D03*
X49350000Y-93900000D03*
X50450000Y-93900000D03*
X48800000Y-93350000D03*
X49900000Y-93350000D03*
X51000000Y-93350000D03*
X49350000Y-92800000D03*
X50450000Y-92800000D03*
%TD*%
D12*
%TO.P,J1,1*%
%TO.N,VDC*%
X122425000Y-99282500D03*
D13*
%TO.P,J1,2*%
%TO.N,unconnected-(J1-Pad2)*%
X119885000Y-98012500D03*
%TO.P,J1,3*%
%TO.N,/ALT_PWR*%
X122425000Y-96742500D03*
%TO.P,J1,4*%
%TO.N,GEA_FullTx*%
X119885000Y-95472500D03*
%TO.P,J1,5*%
%TO.N,GEA_FullRx*%
X122425000Y-94202500D03*
%TO.P,J1,6*%
%TO.N,unconnected-(J1-Pad6)*%
X119885000Y-92932500D03*
%TO.P,J1,7*%
%TO.N,GEA_HalfDplx*%
X122425000Y-91662500D03*
%TO.P,J1,8*%
%TO.N,GND*%
X119885000Y-90392500D03*
%TD*%
D14*
%TO.P,TP1,1,1*%
%TO.N,+5V*%
X88925000Y-83800000D03*
%TD*%
%TO.P,TP4,1,1*%
%TO.N,Net-(D9-A)*%
X100325000Y-83800000D03*
%TD*%
D15*
%TO.P,R8,1*%
%TO.N,Net-(Q2-G)*%
X108500000Y-108200000D03*
%TO.P,R8,2*%
%TO.N,/p2*%
X110325000Y-108200000D03*
%TD*%
D16*
%TO.P,J3,1,Pin_1*%
%TO.N,/EN*%
X52000000Y-108000000D03*
%TO.P,J3,2,Pin_2*%
%TO.N,+3V3*%
X52000000Y-106730000D03*
%TO.P,J3,3,Pin_3*%
%TO.N,GEA3_RX*%
X50730000Y-108000000D03*
%TO.P,J3,4,Pin_4*%
%TO.N,GND*%
X50730000Y-106730000D03*
%TO.P,J3,5,Pin_5*%
%TO.N,GEA3_TX*%
X49460000Y-108000000D03*
%TO.P,J3,6,Pin_6*%
%TO.N,/BOOT*%
X49460000Y-106730000D03*
%TD*%
D17*
%TO.P,JP2,1,A*%
%TO.N,Net-(JP2-A)*%
X115525000Y-105200000D03*
D18*
%TO.P,JP2,2,C*%
%TO.N,/p1*%
X115525000Y-106500000D03*
D19*
%TO.P,JP2,3,B*%
%TO.N,Net-(JP2-B)*%
X115525000Y-107800000D03*
%TD*%
D14*
%TO.P,TP5,1,1*%
%TO.N,Net-(R20-Pad1)*%
X106025000Y-83800000D03*
%TD*%
%TO.P,TP2,1,1*%
%TO.N,+3V3*%
X94625000Y-83800000D03*
%TD*%
%TO.P,TP6,1,1*%
%TO.N,Net-(R21-Pad1)*%
X111725000Y-83800000D03*
%TD*%
%TO.P,TP3,1,1*%
%TO.N,/p1*%
X109525000Y-104600000D03*
%TD*%
D17*
%TO.P,JP1,1,A*%
%TO.N,Net-(JP1-A)*%
X59500000Y-102500000D03*
D18*
%TO.P,JP1,2,C*%
%TO.N,GEA2_TX*%
X59500000Y-103800000D03*
D19*
%TO.P,JP1,3,B*%
%TO.N,/BOOT*%
X59500000Y-105100000D03*
%TD*%
D20*
%TO.P,J2,1,Pin_1*%
%TO.N,+3V3*%
X58000000Y-98500000D03*
D21*
%TO.P,J2,2,Pin_2*%
%TO.N,GND*%
X55460000Y-98500000D03*
%TO.P,J2,3,Pin_3*%
%TO.N,/BOOT*%
X52920000Y-98500000D03*
%TO.P,J2,4,Pin_4*%
%TO.N,GEA3_TX*%
X50380000Y-98500000D03*
%TO.P,J2,5,Pin_5*%
%TO.N,GEA3_RX*%
X47840000Y-98500000D03*
%TO.P,J2,6,Pin_6*%
%TO.N,/EN*%
X45300000Y-98500000D03*
%TD*%
D22*
%TO.N,+5V*%
X87200000Y-87600000D03*
X91200000Y-82800000D03*
X73600000Y-108800000D03*
X92800000Y-91600000D03*
X108600000Y-89000000D03*
X79800000Y-96000000D03*
%TO.N,Net-(Q2-G)*%
X106400000Y-106400000D03*
%TO.N,GEA_FullRx*%
X109800000Y-95000000D03*
%TO.N,Net-(D9-K-Pad3)*%
X82200000Y-84400000D03*
X91200000Y-81600000D03*
%TO.N,Net-(D9-A)*%
X82400000Y-89206400D03*
X98600000Y-84600000D03*
X90935896Y-88625000D03*
%TO.N,Net-(JP2-B)*%
X127800000Y-109000000D03*
%TO.N,Net-(JP2-A)*%
X117200000Y-105200000D03*
%TO.N,/BOOT*%
X56800000Y-105000000D03*
X62400000Y-106400000D03*
%TO.N,GEA3_RX*%
X54200000Y-96075000D03*
%TO.N,/EN*%
X52980901Y-108473213D03*
X57653431Y-107268075D03*
X44582347Y-102217653D03*
%TO.N,/BOOT_SEL*%
X62000000Y-82600000D03*
X45747584Y-88316520D03*
%TO.N,/LED1*%
X56000000Y-84600000D03*
X44503200Y-100800000D03*
%TO.N,GEA2_TX*%
X62203200Y-103800000D03*
%TO.N,Net-(R20-Pad1)*%
X88800000Y-89656400D03*
X80400000Y-92600000D03*
X103200000Y-84400000D03*
%TO.N,Net-(R21-Pad1)*%
X85200000Y-92600000D03*
X89000000Y-93000000D03*
X103200000Y-87800000D03*
%TO.N,Net-(JP1-A)*%
X48670851Y-101870851D03*
%TO.N,GND*%
X61400000Y-88600000D03*
X108200000Y-102800000D03*
X70600000Y-85800000D03*
X87600000Y-82400000D03*
X52743961Y-82659280D03*
X89600000Y-104600000D03*
X112800000Y-87800000D03*
X72800000Y-107400000D03*
X85262500Y-90404383D03*
X97587347Y-90387347D03*
X107000000Y-86000000D03*
X85200000Y-85400000D03*
X80000000Y-105200000D03*
X106400000Y-91600000D03*
X72600000Y-103000000D03*
X116800000Y-86800000D03*
X109800000Y-98400000D03*
X74400000Y-95400000D03*
X102800000Y-102800000D03*
X99000000Y-88200000D03*
X95800000Y-91400000D03*
X80600000Y-108800000D03*
X111600000Y-85800000D03*
X45035113Y-107386787D03*
X49400000Y-105000000D03*
X79200000Y-98200000D03*
X114800000Y-82600000D03*
X91200000Y-86200000D03*
X55600000Y-101800000D03*
X67200000Y-102625000D03*
X50200000Y-82600000D03*
X94200000Y-96200000D03*
X85800000Y-98000000D03*
X73600000Y-85000000D03*
%TO.N,+3V3*%
X79000000Y-93000000D03*
X88600000Y-91600000D03*
X52000000Y-105600000D03*
X79800000Y-90600000D03*
X45800000Y-89400000D03*
X60800000Y-85600000D03*
%TO.N,/p2*%
X111600000Y-108800000D03*
%TO.N,/p1*%
X110600000Y-106450000D03*
X114200000Y-106400000D03*
%TD*%
D23*
%TO.N,+5V*%
X88925000Y-83800000D02*
X90200000Y-83800000D01*
X101660903Y-87396800D02*
X103264103Y-89000000D01*
X95800000Y-88600000D02*
X96028200Y-88371800D01*
X82603200Y-98803200D02*
X86196800Y-98803200D01*
X92800000Y-92200000D02*
X92800000Y-91600000D01*
X73600000Y-108800000D02*
X74000000Y-108400000D01*
X95800000Y-88600000D02*
X97003200Y-87396800D01*
X91603200Y-82396800D02*
X91200000Y-82800000D01*
X92800000Y-91600000D02*
X95800000Y-88600000D01*
X87200000Y-87600000D02*
X88925000Y-85875000D01*
X86196800Y-98803200D02*
X92800000Y-92200000D01*
X97003200Y-87396800D02*
X101660903Y-87396800D01*
X76800000Y-97000000D02*
X77800000Y-96000000D01*
X88925000Y-85875000D02*
X88925000Y-83800000D01*
X90200000Y-83800000D02*
X91200000Y-82800000D01*
X103264103Y-89000000D02*
X108600000Y-89000000D01*
X77800000Y-96000000D02*
X79800000Y-96000000D01*
X95596800Y-82396800D02*
X91603200Y-82396800D01*
X96028200Y-88371800D02*
X96028200Y-82828200D01*
X74000000Y-97000000D02*
X76800000Y-97000000D01*
X96028200Y-82828200D02*
X95596800Y-82396800D01*
X79800000Y-96000000D02*
X82603200Y-98803200D01*
X74000000Y-108400000D02*
X74000000Y-97000000D01*
D24*
%TO.N,Net-(Q2-G)*%
X108200000Y-108200000D02*
X106400000Y-106400000D01*
X108500000Y-108200000D02*
X108200000Y-108200000D01*
%TO.N,GEA_FullRx*%
X109800000Y-95000000D02*
X110597500Y-94202500D01*
X110597500Y-94202500D02*
X122425000Y-94202500D01*
%TO.N,Net-(D9-K-Pad3)*%
X82200000Y-84400000D02*
X85000000Y-81600000D01*
X85000000Y-81600000D02*
X91200000Y-81600000D01*
%TO.N,Net-(D9-A)*%
X90629496Y-88931400D02*
X82675000Y-88931400D01*
X98800000Y-84800000D02*
X98600000Y-84600000D01*
X100325000Y-83800000D02*
X99325000Y-84800000D01*
X90935896Y-88625000D02*
X90629496Y-88931400D01*
X82675000Y-88931400D02*
X82400000Y-89206400D01*
X99325000Y-84800000D02*
X98800000Y-84800000D01*
%TO.N,Net-(JP2-B)*%
X117800000Y-109000000D02*
X127800000Y-109000000D01*
X116600000Y-107800000D02*
X117800000Y-109000000D01*
X115525000Y-107800000D02*
X116600000Y-107800000D01*
%TO.N,Net-(JP2-A)*%
X117200000Y-105200000D02*
X115525000Y-105200000D01*
%TO.N,/BOOT*%
X56900000Y-105100000D02*
X56800000Y-105000000D01*
X47878700Y-105478700D02*
X47769700Y-105369700D01*
X49460000Y-106730000D02*
X49460000Y-106173225D01*
X51000000Y-99800000D02*
X52300000Y-98500000D01*
X47769700Y-105369700D02*
X47769700Y-101746696D01*
X49460000Y-106173225D02*
X48765475Y-105478700D01*
X47769700Y-101746696D02*
X49716396Y-99800000D01*
X59500000Y-105100000D02*
X56900000Y-105100000D01*
X52300000Y-98500000D02*
X52920000Y-98500000D01*
X59500000Y-105100000D02*
X61100000Y-105100000D01*
X61100000Y-105100000D02*
X62400000Y-106400000D01*
X49716396Y-99800000D02*
X51000000Y-99800000D01*
X48765475Y-105478700D02*
X47878700Y-105478700D01*
%TO.N,GEA3_RX*%
X46869700Y-108291490D02*
X46869700Y-101373904D01*
X54200000Y-96075000D02*
X50265000Y-96075000D01*
X50265000Y-96075000D02*
X47840000Y-98500000D01*
X46869700Y-101373904D02*
X47840000Y-100403604D01*
X50730000Y-108000000D02*
X49478700Y-109251300D01*
X49478700Y-109251300D02*
X47829510Y-109251300D01*
X47829510Y-109251300D02*
X46869700Y-108291490D01*
X47840000Y-100403604D02*
X47840000Y-98500000D01*
%TO.N,/EN*%
X51752814Y-109701300D02*
X47643114Y-109701300D01*
X52980901Y-108473213D02*
X52473213Y-108473213D01*
X56448293Y-108473213D02*
X52980901Y-108473213D01*
X46419700Y-103800000D02*
X46419700Y-99619700D01*
X46419700Y-108477886D02*
X46419700Y-103800000D01*
X47643114Y-109701300D02*
X46419700Y-108477886D01*
X57653431Y-107268075D02*
X56448293Y-108473213D01*
X52980901Y-108473213D02*
X51752814Y-109701300D01*
X46164694Y-103800000D02*
X46419700Y-103800000D01*
X44582347Y-102217653D02*
X46164694Y-103800000D01*
X52473213Y-108473213D02*
X52000000Y-108000000D01*
X46419700Y-99619700D02*
X45300000Y-98500000D01*
%TO.N,GEA3_TX*%
X48932904Y-107219300D02*
X47829510Y-107219300D01*
X49460000Y-108000000D02*
X49460000Y-107746396D01*
X47829510Y-107219300D02*
X47319700Y-106709490D01*
X49460000Y-107746396D02*
X48932904Y-107219300D01*
X47319700Y-106709490D02*
X47319700Y-101560300D01*
X47319700Y-101560300D02*
X50380000Y-98500000D01*
%TO.N,/BOOT_SEL*%
X58728200Y-87471800D02*
X60075000Y-86125000D01*
X46592304Y-87471800D02*
X58728200Y-87471800D01*
X60075000Y-86125000D02*
X60075000Y-84525000D01*
X60075000Y-84525000D02*
X62000000Y-82600000D01*
X45747584Y-88316520D02*
X46592304Y-87471800D01*
%TO.N,/LED1*%
X45022584Y-88016215D02*
X45447279Y-87591520D01*
X45836188Y-87591520D02*
X46405908Y-87021800D01*
X45022584Y-93777416D02*
X45022584Y-88016215D01*
X46405908Y-87021800D02*
X53578200Y-87021800D01*
X53578200Y-87021800D02*
X56000000Y-84600000D01*
X44503200Y-100800000D02*
X44125000Y-100421800D01*
X44125000Y-94675000D02*
X45022584Y-93777416D01*
X44125000Y-100421800D02*
X44125000Y-94675000D01*
X45447279Y-87591520D02*
X45836188Y-87591520D01*
%TO.N,GEA2_TX*%
X62203200Y-103800000D02*
X59500000Y-103800000D01*
%TO.N,Net-(R20-Pad1)*%
X103800000Y-83800000D02*
X103200000Y-84400000D01*
X83600000Y-89400000D02*
X80400000Y-92600000D01*
X88543600Y-89400000D02*
X83600000Y-89400000D01*
X106025000Y-83800000D02*
X103800000Y-83800000D01*
X88800000Y-89656400D02*
X88543600Y-89400000D01*
%TO.N,Net-(R21-Pad1)*%
X85200000Y-92600000D02*
X88600000Y-92600000D01*
X103800000Y-88400000D02*
X107125000Y-88400000D01*
X103200000Y-87800000D02*
X103800000Y-88400000D01*
X88600000Y-92600000D02*
X89000000Y-93000000D01*
X107125000Y-88400000D02*
X111725000Y-83800000D01*
%TO.N,Net-(JP1-A)*%
X57980000Y-100475000D02*
X49925000Y-100475000D01*
X59500000Y-102500000D02*
X59500000Y-101995000D01*
X48600000Y-101800000D02*
X48670851Y-101870851D01*
X49925000Y-100475000D02*
X48600000Y-101800000D01*
X59500000Y-101995000D02*
X57980000Y-100475000D01*
D23*
%TO.N,GND*%
X70600000Y-85800000D02*
X70600000Y-91600000D01*
X85200000Y-85400000D02*
X85340575Y-85400000D01*
X43596800Y-90003200D02*
X44000000Y-89600000D01*
X109000000Y-91600000D02*
X106400000Y-91600000D01*
X44000000Y-85053012D02*
X46453012Y-82600000D01*
X70600000Y-85800000D02*
X72800000Y-85800000D01*
D24*
X52743961Y-82659280D02*
X52684681Y-82600000D01*
D23*
X85262500Y-90404383D02*
X84000000Y-91666883D01*
X72800000Y-103200000D02*
X72600000Y-103000000D01*
X60600000Y-88600000D02*
X61400000Y-88600000D01*
X106400000Y-91600000D02*
X102400000Y-91600000D01*
X109800000Y-98400000D02*
X109800000Y-101200000D01*
X72800000Y-107400000D02*
X72800000Y-103200000D01*
X72800000Y-85800000D02*
X73600000Y-85000000D01*
X46453012Y-82600000D02*
X50200000Y-82600000D01*
X45035113Y-107386787D02*
X43596800Y-105948474D01*
X43596800Y-105948474D02*
X43596800Y-90003200D01*
X84000000Y-91666883D02*
X84000000Y-96200000D01*
X51410000Y-94450000D02*
X51000000Y-94450000D01*
X114800000Y-82600000D02*
X114800000Y-82709425D01*
X87600000Y-83140575D02*
X87600000Y-82400000D01*
X80600000Y-108800000D02*
X80600000Y-105800000D01*
X97587347Y-90387347D02*
X99200000Y-92000000D01*
X84000000Y-96200000D02*
X85800000Y-98000000D01*
D24*
X52684681Y-82600000D02*
X50200000Y-82600000D01*
D23*
X50730000Y-106730000D02*
X50730000Y-106330000D01*
X49400000Y-105000000D02*
X49400000Y-103200000D01*
X99000000Y-88200000D02*
X95800000Y-91400000D01*
X55460000Y-98500000D02*
X55460000Y-93740000D01*
X97200000Y-96200000D02*
X94200000Y-96200000D01*
X79200000Y-98200000D02*
X80409600Y-99409600D01*
X109800000Y-101200000D02*
X108200000Y-102800000D01*
X50800000Y-101800000D02*
X55600000Y-101800000D01*
X114800000Y-85800000D02*
X114800000Y-82600000D01*
X99200000Y-94200000D02*
X97200000Y-96200000D01*
X70600000Y-91600000D02*
X74400000Y-95400000D01*
X84409600Y-99409600D02*
X89600000Y-104600000D01*
X50730000Y-106330000D02*
X49400000Y-105000000D01*
X49400000Y-103200000D02*
X50800000Y-101800000D01*
X102400000Y-91600000D02*
X99000000Y-88200000D01*
X44000000Y-89600000D02*
X44000000Y-85053012D01*
X85340575Y-85400000D02*
X87600000Y-83140575D01*
X114800000Y-84800000D02*
X114800000Y-82600000D01*
X99200000Y-92000000D02*
X99200000Y-94200000D01*
X80600000Y-105800000D02*
X80000000Y-105200000D01*
X108200000Y-102800000D02*
X102800000Y-102800000D01*
X116800000Y-86800000D02*
X114800000Y-84800000D01*
X72600000Y-103000000D02*
X67575000Y-103000000D01*
X55460000Y-93740000D02*
X60600000Y-88600000D01*
X111709425Y-85800000D02*
X111600000Y-85800000D01*
X67575000Y-103000000D02*
X67200000Y-102625000D01*
X114800000Y-82709425D02*
X111709425Y-85800000D01*
X112800000Y-87800000D02*
X109000000Y-91600000D01*
X112800000Y-87800000D02*
X114800000Y-85800000D01*
X80409600Y-99409600D02*
X84409600Y-99409600D01*
X102800000Y-102800000D02*
X102600000Y-102800000D01*
%TO.N,+3V3*%
X94625000Y-86071793D02*
X94625000Y-83800000D01*
X88114097Y-87821800D02*
X91421800Y-87821800D01*
X81996800Y-88403200D02*
X87532697Y-88403200D01*
X79000000Y-93000000D02*
X79000000Y-91400000D01*
X45800000Y-89400000D02*
X47200000Y-88000000D01*
X89096793Y-91600000D02*
X92148396Y-88548396D01*
X79800000Y-90600000D02*
X81996800Y-88403200D01*
X92148396Y-88548396D02*
X94625000Y-86071793D01*
X88600000Y-91600000D02*
X89096793Y-91600000D01*
X47200000Y-88000000D02*
X59000000Y-88000000D01*
X52000000Y-105600000D02*
X52000000Y-106730000D01*
X60800000Y-86200000D02*
X60800000Y-85600000D01*
X94018600Y-84406400D02*
X94625000Y-83800000D01*
X79000000Y-91400000D02*
X79800000Y-90600000D01*
X59000000Y-88000000D02*
X60800000Y-86200000D01*
X91421800Y-87821800D02*
X92148396Y-88548396D01*
X87532697Y-88403200D02*
X88114097Y-87821800D01*
%TO.N,/p2*%
X111000000Y-108200000D02*
X111600000Y-108800000D01*
X110325000Y-108200000D02*
X111000000Y-108200000D01*
%TO.N,/p1*%
X110600000Y-106450000D02*
X110600000Y-105675000D01*
X115525000Y-106500000D02*
X114300000Y-106500000D01*
X114300000Y-106500000D02*
X114200000Y-106400000D01*
X110600000Y-105675000D02*
X109525000Y-104600000D01*
%TD*%
%TA.AperFunction,Conductor*%
%TO.N,GND*%
G36*
X93306591Y-83002968D02*
G01*
X93314481Y-83001719D01*
X93335136Y-83012243D01*
X93357185Y-83019407D01*
X93361880Y-83025869D01*
X93368998Y-83029496D01*
X93379522Y-83050151D01*
X93393149Y-83068907D01*
X93393149Y-83076896D01*
X93396775Y-83084013D01*
X93393149Y-83106907D01*
X93393149Y-83130093D01*
X93387205Y-83144441D01*
X93327105Y-83262394D01*
X93327102Y-83262400D01*
X93258984Y-83472051D01*
X93224500Y-83689774D01*
X93224500Y-83910225D01*
X93258984Y-84127948D01*
X93327102Y-84337599D01*
X93327103Y-84337601D01*
X93327105Y-84337606D01*
X93341829Y-84366503D01*
X93423759Y-84527299D01*
X93431176Y-84546621D01*
X93456042Y-84639423D01*
X93535517Y-84777077D01*
X93535519Y-84777080D01*
X93647920Y-84889481D01*
X93785580Y-84968959D01*
X93785582Y-84968959D01*
X93785585Y-84968961D01*
X93848260Y-84985753D01*
X93878378Y-84993823D01*
X93897691Y-85001235D01*
X93967247Y-85036676D01*
X94010510Y-85079939D01*
X94021300Y-85124884D01*
X94021300Y-85780723D01*
X94002393Y-85838914D01*
X93992304Y-85850727D01*
X92218399Y-87624631D01*
X92163882Y-87652408D01*
X92103450Y-87642837D01*
X92078394Y-87624633D01*
X91792480Y-87338719D01*
X91780804Y-87331978D01*
X91654822Y-87259242D01*
X91654814Y-87259238D01*
X91622373Y-87250547D01*
X91622372Y-87250546D01*
X91622372Y-87250547D01*
X91501279Y-87218100D01*
X91501278Y-87218100D01*
X88674669Y-87218100D01*
X88616478Y-87199193D01*
X88580514Y-87149693D01*
X88580514Y-87088507D01*
X88604665Y-87049096D01*
X88775868Y-86877893D01*
X89408080Y-86245681D01*
X89450322Y-86172515D01*
X89487527Y-86108075D01*
X89487536Y-86108057D01*
X89487558Y-86108020D01*
X89487559Y-86108019D01*
X89528700Y-85954479D01*
X89528700Y-85124884D01*
X89547607Y-85066693D01*
X89582753Y-85036676D01*
X89632185Y-85011489D01*
X89659017Y-84997818D01*
X89659018Y-84997817D01*
X89659017Y-84997817D01*
X89659022Y-84997815D01*
X89837365Y-84868242D01*
X89993242Y-84712365D01*
X90122815Y-84534022D01*
X90161675Y-84457754D01*
X90204940Y-84414490D01*
X90229623Y-84405796D01*
X90239647Y-84403700D01*
X90279479Y-84403700D01*
X90418300Y-84366503D01*
X90433020Y-84362559D01*
X90570680Y-84283081D01*
X91225675Y-83628085D01*
X91276363Y-83600993D01*
X91278841Y-83600500D01*
X91278842Y-83600500D01*
X91433497Y-83569737D01*
X91579179Y-83509394D01*
X91710289Y-83421789D01*
X91821789Y-83310289D01*
X91909394Y-83179179D01*
X91958090Y-83061614D01*
X91997826Y-83015089D01*
X92049554Y-83000500D01*
X93298994Y-83000500D01*
X93306591Y-83002968D01*
G37*
%TD.AperFunction*%
%TA.AperFunction,Conductor*%
G36*
X131548691Y-80029407D02*
G01*
X131584655Y-80078907D01*
X131589500Y-80109500D01*
X131589500Y-109890500D01*
X131570593Y-109948691D01*
X131521093Y-109984655D01*
X131490500Y-109989500D01*
X127933840Y-109989500D01*
X127875649Y-109970593D01*
X127839685Y-109921093D01*
X127839685Y-109859907D01*
X127875649Y-109810407D01*
X127914526Y-109793402D01*
X127918075Y-109792695D01*
X128033497Y-109769737D01*
X128179179Y-109709394D01*
X128310289Y-109621789D01*
X128421789Y-109510289D01*
X128509394Y-109379179D01*
X128569737Y-109233497D01*
X128600500Y-109078842D01*
X128600500Y-108921158D01*
X128569737Y-108766503D01*
X128513728Y-108631284D01*
X128509396Y-108620825D01*
X128509390Y-108620814D01*
X128432855Y-108506273D01*
X128421789Y-108489711D01*
X128310289Y-108378211D01*
X128258059Y-108343312D01*
X128179185Y-108290609D01*
X128179174Y-108290603D01*
X128033497Y-108230263D01*
X127878844Y-108199500D01*
X127878842Y-108199500D01*
X127721158Y-108199500D01*
X127721155Y-108199500D01*
X127566503Y-108230263D01*
X127566501Y-108230263D01*
X127420825Y-108290603D01*
X127420814Y-108290609D01*
X127289711Y-108378211D01*
X127289707Y-108378214D01*
X127222418Y-108445504D01*
X127167901Y-108473281D01*
X127152414Y-108474500D01*
X118058677Y-108474500D01*
X118000486Y-108455593D01*
X117988673Y-108445504D01*
X117020506Y-107477337D01*
X117020505Y-107477335D01*
X116922665Y-107379495D01*
X116897559Y-107365000D01*
X116802837Y-107310312D01*
X116802839Y-107310312D01*
X116788054Y-107306350D01*
X116774591Y-107302743D01*
X116758170Y-107298343D01*
X116747151Y-107295390D01*
X116695837Y-107262064D01*
X116674996Y-107215252D01*
X116674979Y-107215146D01*
X116663150Y-107140462D01*
X116663150Y-107109487D01*
X116675500Y-107031519D01*
X116675499Y-105996888D01*
X116694406Y-105938698D01*
X116743906Y-105902734D01*
X116805092Y-105902734D01*
X116817575Y-105908050D01*
X116850342Y-105921622D01*
X116966503Y-105969737D01*
X117121158Y-106000500D01*
X117121159Y-106000500D01*
X117278841Y-106000500D01*
X117278842Y-106000500D01*
X117433497Y-105969737D01*
X117579179Y-105909394D01*
X117710289Y-105821789D01*
X117821789Y-105710289D01*
X117909394Y-105579179D01*
X117969737Y-105433497D01*
X118000500Y-105278842D01*
X118000500Y-105121158D01*
X117969737Y-104966503D01*
X117938300Y-104890606D01*
X117909396Y-104820825D01*
X117909390Y-104820814D01*
X117873098Y-104766501D01*
X117821789Y-104689711D01*
X117710289Y-104578211D01*
X117638886Y-104530501D01*
X117579185Y-104490609D01*
X117579174Y-104490603D01*
X117433497Y-104430263D01*
X117278844Y-104399500D01*
X117278842Y-104399500D01*
X117121158Y-104399500D01*
X117121155Y-104399500D01*
X116966503Y-104430263D01*
X116966501Y-104430263D01*
X116820825Y-104490603D01*
X116820814Y-104490609D01*
X116689711Y-104578211D01*
X116689701Y-104578219D01*
X116628414Y-104639506D01*
X116573897Y-104667283D01*
X116513465Y-104657711D01*
X116479869Y-104629769D01*
X116461833Y-104606264D01*
X116461831Y-104606261D01*
X116368739Y-104513169D01*
X116338168Y-104489711D01*
X116284760Y-104448730D01*
X116252774Y-104430263D01*
X116170743Y-104382902D01*
X116170738Y-104382899D01*
X116072945Y-104342392D01*
X116003458Y-104323773D01*
X115945779Y-104308318D01*
X115945774Y-104308317D01*
X115945773Y-104308317D01*
X115881261Y-104299823D01*
X115840826Y-104294500D01*
X115209174Y-104294500D01*
X115179985Y-104298342D01*
X115104226Y-104308317D01*
X115104223Y-104308317D01*
X115104221Y-104308318D01*
X115071974Y-104316958D01*
X114977054Y-104342392D01*
X114879261Y-104382899D01*
X114765239Y-104448730D01*
X114681264Y-104513166D01*
X114588166Y-104606264D01*
X114523730Y-104690239D01*
X114457899Y-104804261D01*
X114417392Y-104902054D01*
X114383317Y-105029226D01*
X114369500Y-105134175D01*
X114369500Y-105500500D01*
X114350593Y-105558691D01*
X114301093Y-105594655D01*
X114270500Y-105599500D01*
X114121155Y-105599500D01*
X113966503Y-105630263D01*
X113966501Y-105630263D01*
X113820825Y-105690603D01*
X113820814Y-105690609D01*
X113689711Y-105778211D01*
X113689707Y-105778214D01*
X113578214Y-105889707D01*
X113578211Y-105889711D01*
X113490609Y-106020814D01*
X113490603Y-106020825D01*
X113430263Y-106166501D01*
X113430263Y-106166503D01*
X113399500Y-106321155D01*
X113399500Y-106478844D01*
X113430263Y-106633496D01*
X113430263Y-106633498D01*
X113490603Y-106779174D01*
X113490609Y-106779185D01*
X113543312Y-106858059D01*
X113578211Y-106910289D01*
X113689711Y-107021789D01*
X113764535Y-107071785D01*
X113820814Y-107109390D01*
X113820825Y-107109396D01*
X113862261Y-107126559D01*
X113966503Y-107169737D01*
X114121158Y-107200500D01*
X114121159Y-107200500D01*
X114270500Y-107200500D01*
X114328691Y-107219407D01*
X114364655Y-107268907D01*
X114369500Y-107299500D01*
X114369500Y-107865826D01*
X114383318Y-107970779D01*
X114390882Y-107999006D01*
X114417392Y-108097945D01*
X114457899Y-108195738D01*
X114457902Y-108195743D01*
X114512669Y-108290603D01*
X114523730Y-108309760D01*
X114558973Y-108355690D01*
X114588169Y-108393739D01*
X114681261Y-108486831D01*
X114765243Y-108551272D01*
X114879257Y-108617098D01*
X114879258Y-108617098D01*
X114879261Y-108617100D01*
X114977054Y-108657607D01*
X115104221Y-108691682D01*
X115209174Y-108705500D01*
X115209175Y-108705500D01*
X115840824Y-108705500D01*
X115840826Y-108705500D01*
X115945779Y-108691682D01*
X116072946Y-108657607D01*
X116170743Y-108617098D01*
X116284757Y-108551272D01*
X116368739Y-108486831D01*
X116386195Y-108469374D01*
X116440707Y-108441596D01*
X116501140Y-108451164D01*
X116526203Y-108469372D01*
X117379493Y-109322662D01*
X117379495Y-109322665D01*
X117477335Y-109420505D01*
X117597164Y-109489688D01*
X117597166Y-109489688D01*
X117597167Y-109489689D01*
X117663989Y-109507594D01*
X117663990Y-109507594D01*
X117730816Y-109525500D01*
X117730817Y-109525500D01*
X127152414Y-109525500D01*
X127210605Y-109544407D01*
X127222418Y-109554496D01*
X127289711Y-109621789D01*
X127367876Y-109674017D01*
X127420814Y-109709390D01*
X127420825Y-109709396D01*
X127474638Y-109731685D01*
X127566503Y-109769737D01*
X127680239Y-109792360D01*
X127685474Y-109793402D01*
X127738858Y-109823299D01*
X127764474Y-109878864D01*
X127752537Y-109938874D01*
X127707607Y-109980406D01*
X127666160Y-109989500D01*
X52446791Y-109989500D01*
X52388600Y-109970593D01*
X52352636Y-109921093D01*
X52352636Y-109859907D01*
X52376787Y-109820496D01*
X52894574Y-109302709D01*
X52949091Y-109274932D01*
X52964578Y-109273713D01*
X53059742Y-109273713D01*
X53059743Y-109273713D01*
X53214398Y-109242950D01*
X53360080Y-109182607D01*
X53491190Y-109095002D01*
X53558483Y-109027709D01*
X53613000Y-108999932D01*
X53628487Y-108998713D01*
X56373031Y-108998713D01*
X56373047Y-108998714D01*
X56379110Y-108998714D01*
X56517477Y-108998714D01*
X56517477Y-108998713D01*
X56633689Y-108967574D01*
X56633690Y-108967574D01*
X56638049Y-108966405D01*
X56651129Y-108962901D01*
X56770958Y-108893718D01*
X56868798Y-108795878D01*
X56868799Y-108795875D01*
X56943519Y-108721155D01*
X72799500Y-108721155D01*
X72799500Y-108878844D01*
X72807917Y-108921158D01*
X72823586Y-108999932D01*
X72830263Y-109033496D01*
X72830263Y-109033498D01*
X72890603Y-109179174D01*
X72890609Y-109179185D01*
X72926899Y-109233496D01*
X72978211Y-109310289D01*
X73089711Y-109421789D01*
X73167876Y-109474017D01*
X73220814Y-109509390D01*
X73220825Y-109509396D01*
X73274638Y-109531685D01*
X73366503Y-109569737D01*
X73521158Y-109600500D01*
X73521159Y-109600500D01*
X73678841Y-109600500D01*
X73678842Y-109600500D01*
X73833497Y-109569737D01*
X73979179Y-109509394D01*
X74110289Y-109421789D01*
X74221789Y-109310289D01*
X74309394Y-109179179D01*
X74369737Y-109033497D01*
X74400500Y-108878842D01*
X74400500Y-108878840D01*
X74400993Y-108876363D01*
X74428085Y-108825675D01*
X74483080Y-108770681D01*
X74533656Y-108683080D01*
X74562559Y-108633019D01*
X74603700Y-108479479D01*
X74603700Y-106321155D01*
X105599500Y-106321155D01*
X105599500Y-106478844D01*
X105630263Y-106633496D01*
X105630263Y-106633498D01*
X105690603Y-106779174D01*
X105690609Y-106779185D01*
X105743312Y-106858059D01*
X105778211Y-106910289D01*
X105889711Y-107021789D01*
X105964535Y-107071785D01*
X106020814Y-107109390D01*
X106020825Y-107109396D01*
X106062261Y-107126559D01*
X106166503Y-107169737D01*
X106321158Y-107200500D01*
X106416323Y-107200500D01*
X106474514Y-107219407D01*
X106486327Y-107229496D01*
X107558004Y-108301173D01*
X107585781Y-108355690D01*
X107587000Y-108371177D01*
X107587000Y-108715688D01*
X107589901Y-108752565D01*
X107589901Y-108752568D01*
X107589902Y-108752569D01*
X107635756Y-108910398D01*
X107719419Y-109051865D01*
X107835635Y-109168081D01*
X107977102Y-109251744D01*
X108134931Y-109297598D01*
X108171806Y-109300500D01*
X108171811Y-109300500D01*
X108828189Y-109300500D01*
X108828194Y-109300500D01*
X108865069Y-109297598D01*
X109022898Y-109251744D01*
X109164365Y-109168081D01*
X109280581Y-109051865D01*
X109327288Y-108972887D01*
X109373182Y-108932427D01*
X109434096Y-108926668D01*
X109486761Y-108957814D01*
X109497708Y-108972881D01*
X109544419Y-109051865D01*
X109660635Y-109168081D01*
X109802102Y-109251744D01*
X109959931Y-109297598D01*
X109996806Y-109300500D01*
X109996811Y-109300500D01*
X110653189Y-109300500D01*
X110653194Y-109300500D01*
X110690069Y-109297598D01*
X110847898Y-109251744D01*
X110847898Y-109251743D01*
X110853880Y-109250006D01*
X110854700Y-109252829D01*
X110903633Y-109248127D01*
X110956347Y-109279190D01*
X110964503Y-109289774D01*
X110969729Y-109297596D01*
X110978211Y-109310289D01*
X111089711Y-109421789D01*
X111167876Y-109474017D01*
X111220814Y-109509390D01*
X111220825Y-109509396D01*
X111274638Y-109531685D01*
X111366503Y-109569737D01*
X111521158Y-109600500D01*
X111521159Y-109600500D01*
X111678841Y-109600500D01*
X111678842Y-109600500D01*
X111833497Y-109569737D01*
X111979179Y-109509394D01*
X112110289Y-109421789D01*
X112221789Y-109310289D01*
X112309394Y-109179179D01*
X112369737Y-109033497D01*
X112400500Y-108878842D01*
X112400500Y-108721158D01*
X112369737Y-108566503D01*
X112333566Y-108479178D01*
X112309396Y-108420825D01*
X112309390Y-108420814D01*
X112235183Y-108309757D01*
X112221789Y-108289711D01*
X112110289Y-108178211D01*
X112058059Y-108143312D01*
X111979185Y-108090609D01*
X111979174Y-108090603D01*
X111833498Y-108030263D01*
X111676362Y-107999006D01*
X111625674Y-107971912D01*
X111370679Y-107716918D01*
X111266495Y-107656767D01*
X111225554Y-107611298D01*
X111220926Y-107598651D01*
X111192722Y-107501573D01*
X111189244Y-107489602D01*
X111105581Y-107348135D01*
X111027106Y-107269660D01*
X110999331Y-107215146D01*
X111008902Y-107154714D01*
X111042108Y-107117345D01*
X111110289Y-107071789D01*
X111221789Y-106960289D01*
X111309394Y-106829179D01*
X111369737Y-106683497D01*
X111400500Y-106528842D01*
X111400500Y-106371158D01*
X111369737Y-106216503D01*
X111346491Y-106160382D01*
X111309396Y-106070825D01*
X111309390Y-106070813D01*
X111220385Y-105937610D01*
X111203700Y-105882608D01*
X111203700Y-105595521D01*
X111184178Y-105522665D01*
X111178239Y-105500500D01*
X111162559Y-105441980D01*
X111157661Y-105433497D01*
X111083081Y-105304320D01*
X110888715Y-105109953D01*
X110860938Y-105055437D01*
X110864565Y-105009357D01*
X110891015Y-104927952D01*
X110925500Y-104710225D01*
X110925500Y-104489774D01*
X110897072Y-104310292D01*
X110891015Y-104272049D01*
X110822895Y-104062394D01*
X110722815Y-103865978D01*
X110593242Y-103687635D01*
X110437365Y-103531758D01*
X110259022Y-103402185D01*
X110259021Y-103402184D01*
X110259019Y-103402183D01*
X110169825Y-103356736D01*
X110062606Y-103302105D01*
X110062602Y-103302104D01*
X110062599Y-103302102D01*
X109852948Y-103233984D01*
X109635225Y-103199500D01*
X109635222Y-103199500D01*
X109414778Y-103199500D01*
X109414775Y-103199500D01*
X109197051Y-103233984D01*
X108987400Y-103302102D01*
X108790980Y-103402183D01*
X108765322Y-103420825D01*
X108612635Y-103531758D01*
X108456758Y-103687635D01*
X108432402Y-103721159D01*
X108327183Y-103865980D01*
X108227102Y-104062400D01*
X108158984Y-104272051D01*
X108124500Y-104489774D01*
X108124500Y-104710225D01*
X108158984Y-104927948D01*
X108227102Y-105137599D01*
X108227104Y-105137602D01*
X108227105Y-105137606D01*
X108327185Y-105334022D01*
X108456758Y-105512365D01*
X108612635Y-105668242D01*
X108790978Y-105797815D01*
X108987394Y-105897895D01*
X109197049Y-105966015D01*
X109280131Y-105979174D01*
X109414775Y-106000500D01*
X109414778Y-106000500D01*
X109635225Y-106000500D01*
X109765109Y-105979928D01*
X109825541Y-105989499D01*
X109868806Y-106032764D01*
X109878377Y-106093196D01*
X109872060Y-106115594D01*
X109830263Y-106216501D01*
X109830263Y-106216503D01*
X109799500Y-106371155D01*
X109799500Y-106528844D01*
X109805435Y-106558678D01*
X109828305Y-106673656D01*
X109830263Y-106683496D01*
X109830263Y-106683498D01*
X109890603Y-106829174D01*
X109890609Y-106829186D01*
X109944801Y-106910288D01*
X109978210Y-106960288D01*
X109979678Y-106962484D01*
X109996287Y-107021372D01*
X109975110Y-107078776D01*
X109924984Y-107112555D01*
X109802101Y-107148256D01*
X109660636Y-107231918D01*
X109544418Y-107348136D01*
X109497714Y-107427110D01*
X109451818Y-107467573D01*
X109390904Y-107473331D01*
X109338239Y-107442185D01*
X109327286Y-107427110D01*
X109311863Y-107401031D01*
X109280581Y-107348135D01*
X109164365Y-107231919D01*
X109022898Y-107148256D01*
X108865069Y-107102402D01*
X108865068Y-107102401D01*
X108865065Y-107102401D01*
X108841640Y-107100558D01*
X108828194Y-107099500D01*
X108171806Y-107099500D01*
X108159273Y-107100486D01*
X108134934Y-107102401D01*
X108134927Y-107102403D01*
X108099984Y-107112555D01*
X107977102Y-107148256D01*
X107977100Y-107148256D01*
X107971121Y-107149994D01*
X107970604Y-107148215D01*
X107918114Y-107153166D01*
X107869728Y-107126559D01*
X107229496Y-106486327D01*
X107201719Y-106431810D01*
X107200500Y-106416323D01*
X107200500Y-106321159D01*
X107200499Y-106321155D01*
X107199011Y-106313673D01*
X107169737Y-106166503D01*
X107143865Y-106104042D01*
X107109396Y-106020825D01*
X107109390Y-106020814D01*
X107053794Y-105937610D01*
X107021789Y-105889711D01*
X106910289Y-105778211D01*
X106858059Y-105743312D01*
X106779185Y-105690609D01*
X106779174Y-105690603D01*
X106633497Y-105630263D01*
X106478844Y-105599500D01*
X106478842Y-105599500D01*
X106321158Y-105599500D01*
X106321155Y-105599500D01*
X106166503Y-105630263D01*
X106166501Y-105630263D01*
X106020825Y-105690603D01*
X106020814Y-105690609D01*
X105889711Y-105778211D01*
X105889707Y-105778214D01*
X105778214Y-105889707D01*
X105778211Y-105889711D01*
X105690609Y-106020814D01*
X105690603Y-106020825D01*
X105630263Y-106166501D01*
X105630263Y-106166503D01*
X105599500Y-106321155D01*
X74603700Y-106321155D01*
X74603700Y-97702700D01*
X74622607Y-97644509D01*
X74672107Y-97608545D01*
X74702700Y-97603700D01*
X76879477Y-97603700D01*
X76879479Y-97603700D01*
X77002036Y-97570861D01*
X77033020Y-97562559D01*
X77170680Y-97483081D01*
X78021065Y-96632696D01*
X78075582Y-96604919D01*
X78091069Y-96603700D01*
X79232609Y-96603700D01*
X79287611Y-96620385D01*
X79289708Y-96621786D01*
X79289711Y-96621789D01*
X79334856Y-96651954D01*
X79420814Y-96709390D01*
X79420825Y-96709396D01*
X79474638Y-96731685D01*
X79566503Y-96769737D01*
X79721158Y-96800500D01*
X79723636Y-96800993D01*
X79774326Y-96828087D01*
X82232519Y-99286280D01*
X82251147Y-99297035D01*
X82274143Y-99310312D01*
X82274144Y-99310312D01*
X82370181Y-99365759D01*
X82523721Y-99406900D01*
X82523723Y-99406900D01*
X86276279Y-99406900D01*
X86397368Y-99374453D01*
X86397371Y-99374453D01*
X86415102Y-99369702D01*
X86429820Y-99365759D01*
X86567480Y-99286281D01*
X87931811Y-97921950D01*
X118734500Y-97921950D01*
X118734500Y-98103049D01*
X118762828Y-98281906D01*
X118818788Y-98454137D01*
X118892302Y-98598417D01*
X118901004Y-98615494D01*
X119007447Y-98762001D01*
X119135499Y-98890053D01*
X119282006Y-98996496D01*
X119443361Y-99078711D01*
X119615591Y-99134671D01*
X119687136Y-99146002D01*
X119794451Y-99163000D01*
X119794454Y-99163000D01*
X119975549Y-99163000D01*
X120064977Y-99148835D01*
X120154409Y-99134671D01*
X120326639Y-99078711D01*
X120487994Y-98996496D01*
X120634501Y-98890053D01*
X120762553Y-98762001D01*
X120868996Y-98615494D01*
X120927345Y-98500978D01*
X121274500Y-98500978D01*
X121274500Y-100064021D01*
X121274501Y-100064023D01*
X121289352Y-100157799D01*
X121289354Y-100157804D01*
X121346950Y-100270842D01*
X121436658Y-100360550D01*
X121549696Y-100418146D01*
X121643481Y-100433000D01*
X123206518Y-100432999D01*
X123206521Y-100432999D01*
X123206522Y-100432998D01*
X123217812Y-100431210D01*
X126924500Y-100431210D01*
X126924500Y-100673789D01*
X126956161Y-100914281D01*
X126956161Y-100914286D01*
X127018944Y-101148592D01*
X127018948Y-101148605D01*
X127111772Y-101372704D01*
X127111774Y-101372708D01*
X127111776Y-101372712D01*
X127223014Y-101565382D01*
X127233066Y-101582792D01*
X127380729Y-101775231D01*
X127380731Y-101775233D01*
X127380735Y-101775238D01*
X127552262Y-101946765D01*
X127552266Y-101946768D01*
X127552268Y-101946770D01*
X127744707Y-102094433D01*
X127744711Y-102094436D01*
X127954788Y-102215724D01*
X128178900Y-102308554D01*
X128413211Y-102371338D01*
X128653712Y-102403000D01*
X128653713Y-102403000D01*
X128896287Y-102403000D01*
X128896288Y-102403000D01*
X129136789Y-102371338D01*
X129371100Y-102308554D01*
X129595212Y-102215724D01*
X129805289Y-102094436D01*
X129997738Y-101946765D01*
X130169265Y-101775238D01*
X130316936Y-101582789D01*
X130438224Y-101372712D01*
X130531054Y-101148600D01*
X130593838Y-100914289D01*
X130625500Y-100673788D01*
X130625500Y-100431212D01*
X130593838Y-100190711D01*
X130531054Y-99956400D01*
X130438224Y-99732288D01*
X130316936Y-99522211D01*
X130258320Y-99445821D01*
X130169270Y-99329768D01*
X130169268Y-99329766D01*
X130169265Y-99329762D01*
X129997738Y-99158235D01*
X129997733Y-99158231D01*
X129997731Y-99158229D01*
X129805292Y-99010566D01*
X129805289Y-99010564D01*
X129595212Y-98889276D01*
X129595208Y-98889274D01*
X129595204Y-98889272D01*
X129371105Y-98796448D01*
X129371104Y-98796447D01*
X129371100Y-98796446D01*
X129136789Y-98733662D01*
X129136786Y-98733661D01*
X129136784Y-98733661D01*
X128896289Y-98702000D01*
X128896288Y-98702000D01*
X128653712Y-98702000D01*
X128653710Y-98702000D01*
X128413218Y-98733661D01*
X128413213Y-98733661D01*
X128178907Y-98796444D01*
X128178894Y-98796448D01*
X127954795Y-98889272D01*
X127744707Y-99010566D01*
X127552268Y-99158229D01*
X127380729Y-99329768D01*
X127233066Y-99522207D01*
X127158457Y-99651434D01*
X127119039Y-99719709D01*
X127111772Y-99732295D01*
X127018948Y-99956394D01*
X127018944Y-99956407D01*
X126956161Y-100190713D01*
X126956161Y-100190718D01*
X126924500Y-100431210D01*
X123217812Y-100431210D01*
X123253411Y-100425572D01*
X123300299Y-100418147D01*
X123300299Y-100418146D01*
X123300304Y-100418146D01*
X123413342Y-100360550D01*
X123503050Y-100270842D01*
X123560646Y-100157804D01*
X123575500Y-100064019D01*
X123575499Y-98500982D01*
X123575499Y-98500981D01*
X123575499Y-98500978D01*
X123575498Y-98500976D01*
X123560647Y-98407200D01*
X123560646Y-98407198D01*
X123560646Y-98407196D01*
X123503050Y-98294158D01*
X123413342Y-98204450D01*
X123300304Y-98146854D01*
X123300305Y-98146854D01*
X123206521Y-98132000D01*
X121643478Y-98132000D01*
X121643476Y-98132001D01*
X121549700Y-98146852D01*
X121549695Y-98146854D01*
X121436659Y-98204449D01*
X121346949Y-98294159D01*
X121289354Y-98407195D01*
X121274500Y-98500978D01*
X120927345Y-98500978D01*
X120951211Y-98454139D01*
X121007171Y-98281909D01*
X121030914Y-98132000D01*
X121035500Y-98103049D01*
X121035500Y-97921950D01*
X121014990Y-97792456D01*
X121007171Y-97743091D01*
X120951211Y-97570861D01*
X120868996Y-97409506D01*
X120762553Y-97262999D01*
X120634501Y-97134947D01*
X120487994Y-97028504D01*
X120487993Y-97028503D01*
X120487991Y-97028502D01*
X120326637Y-96946288D01*
X120154406Y-96890328D01*
X119975549Y-96862000D01*
X119975546Y-96862000D01*
X119794454Y-96862000D01*
X119794451Y-96862000D01*
X119615593Y-96890328D01*
X119443362Y-96946288D01*
X119282008Y-97028502D01*
X119208752Y-97081725D01*
X119135499Y-97134947D01*
X119007447Y-97262999D01*
X118988051Y-97289696D01*
X118901002Y-97409508D01*
X118818788Y-97570862D01*
X118762828Y-97743093D01*
X118734500Y-97921950D01*
X87931811Y-97921950D01*
X90975051Y-94878710D01*
X101674500Y-94878710D01*
X101674500Y-95121289D01*
X101706161Y-95361781D01*
X101706161Y-95361786D01*
X101711564Y-95381950D01*
X101767847Y-95592000D01*
X101768944Y-95596092D01*
X101768948Y-95596105D01*
X101861772Y-95820204D01*
X101861774Y-95820208D01*
X101861776Y-95820212D01*
X101963359Y-95996159D01*
X101983066Y-96030292D01*
X102130729Y-96222731D01*
X102130731Y-96222733D01*
X102130735Y-96222738D01*
X102302262Y-96394265D01*
X102302266Y-96394268D01*
X102302268Y-96394270D01*
X102380351Y-96454185D01*
X102494711Y-96541936D01*
X102704788Y-96663224D01*
X102928900Y-96756054D01*
X103163211Y-96818838D01*
X103403712Y-96850500D01*
X103403713Y-96850500D01*
X103646287Y-96850500D01*
X103646288Y-96850500D01*
X103886789Y-96818838D01*
X104121100Y-96756054D01*
X104345212Y-96663224D01*
X104364739Y-96651950D01*
X121274500Y-96651950D01*
X121274500Y-96833049D01*
X121302828Y-97011906D01*
X121358788Y-97184137D01*
X121429007Y-97321950D01*
X121441004Y-97345494D01*
X121547447Y-97492001D01*
X121675499Y-97620053D01*
X121822006Y-97726496D01*
X121983361Y-97808711D01*
X122155591Y-97864671D01*
X122227136Y-97876002D01*
X122334451Y-97893000D01*
X122334454Y-97893000D01*
X122515549Y-97893000D01*
X122604977Y-97878835D01*
X122694409Y-97864671D01*
X122866639Y-97808711D01*
X123027994Y-97726496D01*
X123174501Y-97620053D01*
X123302553Y-97492001D01*
X123408996Y-97345494D01*
X123491211Y-97184139D01*
X123547171Y-97011909D01*
X123566427Y-96890329D01*
X123575500Y-96833049D01*
X123575500Y-96651950D01*
X123547171Y-96473093D01*
X123547171Y-96473091D01*
X123491211Y-96300861D01*
X123408996Y-96139506D01*
X123302553Y-95992999D01*
X123174501Y-95864947D01*
X123027994Y-95758504D01*
X123027993Y-95758503D01*
X123027991Y-95758502D01*
X122866637Y-95676288D01*
X122694406Y-95620328D01*
X122515549Y-95592000D01*
X122515546Y-95592000D01*
X122334454Y-95592000D01*
X122334451Y-95592000D01*
X122155593Y-95620328D01*
X121983362Y-95676288D01*
X121822008Y-95758502D01*
X121764203Y-95800500D01*
X121675499Y-95864947D01*
X121547447Y-95992999D01*
X121520352Y-96030292D01*
X121441002Y-96139508D01*
X121358788Y-96300862D01*
X121302828Y-96473093D01*
X121274500Y-96651950D01*
X104364739Y-96651950D01*
X104555289Y-96541936D01*
X104747738Y-96394265D01*
X104919265Y-96222738D01*
X105066936Y-96030289D01*
X105188224Y-95820212D01*
X105281054Y-95596100D01*
X105343838Y-95361789D01*
X105375500Y-95121288D01*
X105375500Y-94921155D01*
X108999500Y-94921155D01*
X108999500Y-95078844D01*
X109007943Y-95121287D01*
X109026153Y-95212837D01*
X109030263Y-95233496D01*
X109030263Y-95233498D01*
X109090603Y-95379174D01*
X109090609Y-95379185D01*
X109129535Y-95437440D01*
X109178211Y-95510289D01*
X109289711Y-95621789D01*
X109338659Y-95654495D01*
X109420814Y-95709390D01*
X109420825Y-95709396D01*
X109474638Y-95731685D01*
X109566503Y-95769737D01*
X109721158Y-95800500D01*
X109721159Y-95800500D01*
X109878841Y-95800500D01*
X109878842Y-95800500D01*
X110033497Y-95769737D01*
X110179179Y-95709394D01*
X110310289Y-95621789D01*
X110421789Y-95510289D01*
X110509394Y-95379179D01*
X110569737Y-95233497D01*
X110600500Y-95078842D01*
X110600500Y-94983677D01*
X110619407Y-94925486D01*
X110629496Y-94913673D01*
X110786173Y-94756996D01*
X110840690Y-94729219D01*
X110856177Y-94728000D01*
X118811551Y-94728000D01*
X118869742Y-94746907D01*
X118905706Y-94796407D01*
X118905706Y-94857593D01*
X118899761Y-94871945D01*
X118818788Y-95030862D01*
X118762828Y-95203093D01*
X118734500Y-95381950D01*
X118734500Y-95563049D01*
X118762828Y-95741906D01*
X118818788Y-95914137D01*
X118877970Y-96030289D01*
X118901004Y-96075494D01*
X119007447Y-96222001D01*
X119135499Y-96350053D01*
X119282006Y-96456496D01*
X119443361Y-96538711D01*
X119615591Y-96594671D01*
X119680295Y-96604919D01*
X119794451Y-96623000D01*
X119794454Y-96623000D01*
X119975549Y-96623000D01*
X120089705Y-96604919D01*
X120154409Y-96594671D01*
X120326639Y-96538711D01*
X120487994Y-96456496D01*
X120634501Y-96350053D01*
X120762553Y-96222001D01*
X120868996Y-96075494D01*
X120951211Y-95914139D01*
X121007171Y-95741909D01*
X121026349Y-95620825D01*
X121035500Y-95563049D01*
X121035500Y-95381950D01*
X121011987Y-95233496D01*
X121007171Y-95203091D01*
X120951211Y-95030861D01*
X120873686Y-94878710D01*
X120870239Y-94871945D01*
X120860668Y-94811513D01*
X120888445Y-94756997D01*
X120942962Y-94729219D01*
X120958449Y-94728000D01*
X121340851Y-94728000D01*
X121399042Y-94746907D01*
X121429060Y-94782054D01*
X121441000Y-94805488D01*
X121441001Y-94805490D01*
X121441002Y-94805491D01*
X121441004Y-94805494D01*
X121547447Y-94952001D01*
X121675499Y-95080053D01*
X121822006Y-95186496D01*
X121983361Y-95268711D01*
X122155591Y-95324671D01*
X122227136Y-95336002D01*
X122334451Y-95353000D01*
X122334454Y-95353000D01*
X122515549Y-95353000D01*
X122604977Y-95338835D01*
X122694409Y-95324671D01*
X122866639Y-95268711D01*
X123027994Y-95186496D01*
X123174501Y-95080053D01*
X123302553Y-94952001D01*
X123408996Y-94805494D01*
X123491211Y-94644139D01*
X123547171Y-94471909D01*
X123574399Y-94300000D01*
X123575500Y-94293049D01*
X123575500Y-94111950D01*
X123555387Y-93984968D01*
X123547171Y-93933091D01*
X123491211Y-93760861D01*
X123408996Y-93599506D01*
X123302553Y-93452999D01*
X123174501Y-93324947D01*
X123027994Y-93218504D01*
X123027993Y-93218503D01*
X123027991Y-93218502D01*
X122866637Y-93136288D01*
X122694406Y-93080328D01*
X122515549Y-93052000D01*
X122515546Y-93052000D01*
X122334454Y-93052000D01*
X122334451Y-93052000D01*
X122155593Y-93080328D01*
X121983362Y-93136288D01*
X121822008Y-93218502D01*
X121786988Y-93243946D01*
X121675499Y-93324947D01*
X121547447Y-93452999D01*
X121513299Y-93500000D01*
X121441001Y-93599509D01*
X121441000Y-93599511D01*
X121429060Y-93622946D01*
X121385795Y-93666210D01*
X121340851Y-93677000D01*
X120958449Y-93677000D01*
X120900258Y-93658093D01*
X120864294Y-93608593D01*
X120864294Y-93547407D01*
X120870239Y-93533055D01*
X120898717Y-93477164D01*
X120951211Y-93374139D01*
X121007171Y-93201909D01*
X121026427Y-93080329D01*
X121035500Y-93023049D01*
X121035500Y-92841950D01*
X121009666Y-92678844D01*
X121007171Y-92663091D01*
X120951211Y-92490861D01*
X120868996Y-92329506D01*
X120762553Y-92182999D01*
X120634501Y-92054947D01*
X120487994Y-91948504D01*
X120487993Y-91948503D01*
X120487991Y-91948502D01*
X120326637Y-91866288D01*
X120154401Y-91810326D01*
X120150626Y-91809420D01*
X120150996Y-91807876D01*
X120101925Y-91782869D01*
X120074151Y-91728351D01*
X120083726Y-91667919D01*
X120126993Y-91624658D01*
X120156447Y-91615089D01*
X120177708Y-91611721D01*
X120177714Y-91611720D01*
X120300112Y-91571950D01*
X121274500Y-91571950D01*
X121274500Y-91753049D01*
X121302828Y-91931906D01*
X121358788Y-92104137D01*
X121423052Y-92230263D01*
X121441004Y-92265494D01*
X121547447Y-92412001D01*
X121675499Y-92540053D01*
X121822006Y-92646496D01*
X121983361Y-92728711D01*
X122155591Y-92784671D01*
X122227136Y-92796002D01*
X122334451Y-92813000D01*
X122334454Y-92813000D01*
X122515549Y-92813000D01*
X122604977Y-92798835D01*
X122694409Y-92784671D01*
X122866639Y-92728711D01*
X123027994Y-92646496D01*
X123174501Y-92540053D01*
X123302553Y-92412001D01*
X123408996Y-92265494D01*
X123491211Y-92104139D01*
X123547171Y-91931909D01*
X123567892Y-91801080D01*
X123575500Y-91753049D01*
X123575500Y-91571950D01*
X123552714Y-91428088D01*
X123547171Y-91393091D01*
X123491211Y-91220861D01*
X123408996Y-91059506D01*
X123302553Y-90912999D01*
X123174501Y-90784947D01*
X123027994Y-90678504D01*
X123027993Y-90678503D01*
X123027991Y-90678502D01*
X122866637Y-90596288D01*
X122694406Y-90540328D01*
X122515549Y-90512000D01*
X122515546Y-90512000D01*
X122334454Y-90512000D01*
X122334451Y-90512000D01*
X122155593Y-90540328D01*
X121983362Y-90596288D01*
X121822008Y-90678502D01*
X121748752Y-90731725D01*
X121675499Y-90784947D01*
X121547447Y-90912999D01*
X121526858Y-90941338D01*
X121441002Y-91059508D01*
X121358788Y-91220862D01*
X121302828Y-91393093D01*
X121274500Y-91571950D01*
X120300112Y-91571950D01*
X120364826Y-91550923D01*
X120364829Y-91550921D01*
X120504309Y-91479854D01*
X120504310Y-91479853D01*
X120540137Y-91461599D01*
X120540148Y-91461592D01*
X120575125Y-91436179D01*
X120575125Y-91436178D01*
X119911447Y-90772500D01*
X119935028Y-90772500D01*
X120031675Y-90746604D01*
X120118325Y-90696576D01*
X120189076Y-90625825D01*
X120239104Y-90539175D01*
X120265000Y-90442528D01*
X120265000Y-90418947D01*
X120928678Y-91082625D01*
X120928679Y-91082625D01*
X120954092Y-91047648D01*
X120954096Y-91047642D01*
X121043421Y-90872329D01*
X121043423Y-90872326D01*
X121104220Y-90685214D01*
X121104221Y-90685210D01*
X121135000Y-90490880D01*
X121135000Y-90294119D01*
X121104221Y-90099789D01*
X121104220Y-90099785D01*
X121043423Y-89912673D01*
X121043421Y-89912670D01*
X120954097Y-89737360D01*
X120928678Y-89702374D01*
X120265000Y-90366052D01*
X120265000Y-90342472D01*
X120239104Y-90245825D01*
X120189076Y-90159175D01*
X120118325Y-90088424D01*
X120031675Y-90038396D01*
X119935028Y-90012500D01*
X119911444Y-90012500D01*
X120575125Y-89348819D01*
X120540148Y-89323407D01*
X120364829Y-89234078D01*
X120364826Y-89234076D01*
X120177714Y-89173279D01*
X120177710Y-89173278D01*
X119983380Y-89142500D01*
X119786620Y-89142500D01*
X119592289Y-89173278D01*
X119592285Y-89173279D01*
X119405173Y-89234076D01*
X119405170Y-89234078D01*
X119229856Y-89323404D01*
X119194873Y-89348819D01*
X119858554Y-90012500D01*
X119834972Y-90012500D01*
X119738325Y-90038396D01*
X119651675Y-90088424D01*
X119580924Y-90159175D01*
X119530896Y-90245825D01*
X119505000Y-90342472D01*
X119505000Y-90366054D01*
X118841319Y-89702373D01*
X118815904Y-89737356D01*
X118726578Y-89912670D01*
X118726576Y-89912673D01*
X118665779Y-90099785D01*
X118665778Y-90099789D01*
X118635000Y-90294119D01*
X118635000Y-90490880D01*
X118665778Y-90685210D01*
X118665779Y-90685214D01*
X118726576Y-90872326D01*
X118726578Y-90872329D01*
X118815907Y-91047648D01*
X118841319Y-91082625D01*
X119505000Y-90418944D01*
X119505000Y-90442528D01*
X119530896Y-90539175D01*
X119580924Y-90625825D01*
X119651675Y-90696576D01*
X119738325Y-90746604D01*
X119834972Y-90772500D01*
X119858553Y-90772500D01*
X119194874Y-91436178D01*
X119229860Y-91461597D01*
X119405170Y-91550921D01*
X119405173Y-91550923D01*
X119592285Y-91611720D01*
X119592289Y-91611721D01*
X119613553Y-91615089D01*
X119668069Y-91642866D01*
X119695847Y-91697383D01*
X119686276Y-91757815D01*
X119643011Y-91801080D01*
X119619227Y-91808809D01*
X119619374Y-91809420D01*
X119615598Y-91810326D01*
X119443362Y-91866288D01*
X119282008Y-91948502D01*
X119241113Y-91978214D01*
X119135499Y-92054947D01*
X119007447Y-92182999D01*
X118979973Y-92220814D01*
X118901002Y-92329508D01*
X118818788Y-92490862D01*
X118762828Y-92663093D01*
X118734500Y-92841950D01*
X118734500Y-93023049D01*
X118762828Y-93201906D01*
X118818788Y-93374137D01*
X118899761Y-93533055D01*
X118909332Y-93593487D01*
X118881555Y-93648003D01*
X118827038Y-93675781D01*
X118811551Y-93677000D01*
X110666683Y-93677000D01*
X110528316Y-93677000D01*
X110505902Y-93683006D01*
X110394664Y-93712812D01*
X110283023Y-93777268D01*
X110274832Y-93781997D01*
X110176994Y-93879834D01*
X110176995Y-93879835D01*
X110176993Y-93879837D01*
X110176992Y-93879836D01*
X109886328Y-94170503D01*
X109831811Y-94198281D01*
X109816324Y-94199500D01*
X109721155Y-94199500D01*
X109566503Y-94230263D01*
X109566501Y-94230263D01*
X109420825Y-94290603D01*
X109420814Y-94290609D01*
X109289711Y-94378211D01*
X109289707Y-94378214D01*
X109178214Y-94489707D01*
X109178211Y-94489711D01*
X109090609Y-94620814D01*
X109090603Y-94620825D01*
X109030263Y-94766501D01*
X109030263Y-94766503D01*
X108999500Y-94921155D01*
X105375500Y-94921155D01*
X105375500Y-94878712D01*
X105343838Y-94638211D01*
X105281054Y-94403900D01*
X105188224Y-94179788D01*
X105066936Y-93969711D01*
X105013444Y-93899999D01*
X104919270Y-93777268D01*
X104919268Y-93777266D01*
X104919265Y-93777262D01*
X104747738Y-93605735D01*
X104747733Y-93605731D01*
X104747731Y-93605729D01*
X104555292Y-93458066D01*
X104546516Y-93452999D01*
X104345212Y-93336776D01*
X104345208Y-93336774D01*
X104345204Y-93336772D01*
X104121105Y-93243948D01*
X104121104Y-93243947D01*
X104121100Y-93243946D01*
X103886789Y-93181162D01*
X103886786Y-93181161D01*
X103886784Y-93181161D01*
X103646289Y-93149500D01*
X103646288Y-93149500D01*
X103403712Y-93149500D01*
X103403710Y-93149500D01*
X103163218Y-93181161D01*
X103163213Y-93181161D01*
X102928907Y-93243944D01*
X102928894Y-93243948D01*
X102704795Y-93336772D01*
X102494707Y-93458066D01*
X102302268Y-93605729D01*
X102130729Y-93777268D01*
X101983066Y-93969707D01*
X101861772Y-94179795D01*
X101768948Y-94403894D01*
X101768944Y-94403907D01*
X101706161Y-94638213D01*
X101706161Y-94638218D01*
X101674500Y-94878710D01*
X90975051Y-94878710D01*
X93283081Y-92570680D01*
X93362559Y-92433020D01*
X93390295Y-92329506D01*
X93403700Y-92279479D01*
X93403700Y-92167391D01*
X93420385Y-92112389D01*
X93421786Y-92110291D01*
X93421789Y-92110289D01*
X93509394Y-91979179D01*
X93569737Y-91833497D01*
X93600500Y-91678842D01*
X93600500Y-91678841D01*
X93600993Y-91676363D01*
X93628085Y-91625675D01*
X96283081Y-88970680D01*
X97224265Y-88029496D01*
X97278782Y-88001719D01*
X97294269Y-88000500D01*
X101369834Y-88000500D01*
X101428025Y-88019407D01*
X101439838Y-88029496D01*
X102781023Y-89370680D01*
X102781022Y-89370680D01*
X102893422Y-89483079D01*
X102893427Y-89483083D01*
X103031080Y-89562557D01*
X103031078Y-89562557D01*
X103031082Y-89562558D01*
X103031084Y-89562559D01*
X103184624Y-89603700D01*
X108032609Y-89603700D01*
X108087611Y-89620385D01*
X108089708Y-89621786D01*
X108089711Y-89621789D01*
X108143059Y-89657435D01*
X108220814Y-89709390D01*
X108220825Y-89709396D01*
X108238440Y-89716692D01*
X108366503Y-89769737D01*
X108521158Y-89800500D01*
X108521159Y-89800500D01*
X108678841Y-89800500D01*
X108678842Y-89800500D01*
X108833497Y-89769737D01*
X108979179Y-89709394D01*
X109110289Y-89621789D01*
X109221789Y-89510289D01*
X109309394Y-89379179D01*
X109312914Y-89370680D01*
X109322033Y-89348666D01*
X109334081Y-89319576D01*
X109369737Y-89233497D01*
X109400500Y-89078842D01*
X109400500Y-89001210D01*
X126924500Y-89001210D01*
X126924500Y-89243789D01*
X126956161Y-89484281D01*
X126956161Y-89484286D01*
X127018944Y-89718592D01*
X127018948Y-89718605D01*
X127111772Y-89942704D01*
X127111774Y-89942708D01*
X127111776Y-89942712D01*
X127233064Y-90152789D01*
X127233066Y-90152792D01*
X127380729Y-90345231D01*
X127380731Y-90345233D01*
X127380735Y-90345238D01*
X127552262Y-90516765D01*
X127552266Y-90516768D01*
X127552268Y-90516770D01*
X127694392Y-90625825D01*
X127744711Y-90664436D01*
X127954788Y-90785724D01*
X128178900Y-90878554D01*
X128413211Y-90941338D01*
X128653712Y-90973000D01*
X128653713Y-90973000D01*
X128896287Y-90973000D01*
X128896288Y-90973000D01*
X129136789Y-90941338D01*
X129371100Y-90878554D01*
X129595212Y-90785724D01*
X129805289Y-90664436D01*
X129997738Y-90516765D01*
X130169265Y-90345238D01*
X130316936Y-90152789D01*
X130438224Y-89942712D01*
X130531054Y-89718600D01*
X130593838Y-89484289D01*
X130625500Y-89243788D01*
X130625500Y-89001212D01*
X130593838Y-88760711D01*
X130531054Y-88526400D01*
X130438224Y-88302288D01*
X130316936Y-88092211D01*
X130246564Y-88000500D01*
X130169270Y-87899768D01*
X130169268Y-87899766D01*
X130169265Y-87899762D01*
X129997738Y-87728235D01*
X129997733Y-87728231D01*
X129997731Y-87728229D01*
X129805292Y-87580566D01*
X129805289Y-87580564D01*
X129595212Y-87459276D01*
X129595208Y-87459274D01*
X129595204Y-87459272D01*
X129371105Y-87366448D01*
X129371104Y-87366447D01*
X129371100Y-87366446D01*
X129136789Y-87303662D01*
X129136786Y-87303661D01*
X129136784Y-87303661D01*
X128896289Y-87272000D01*
X128896288Y-87272000D01*
X128653712Y-87272000D01*
X128653710Y-87272000D01*
X128413218Y-87303661D01*
X128413213Y-87303661D01*
X128178907Y-87366444D01*
X128178894Y-87366448D01*
X127954795Y-87459272D01*
X127744707Y-87580566D01*
X127552268Y-87728229D01*
X127380729Y-87899768D01*
X127233066Y-88092207D01*
X127111772Y-88302295D01*
X127018948Y-88526394D01*
X127018944Y-88526407D01*
X126956161Y-88760713D01*
X126956161Y-88760718D01*
X126924500Y-89001210D01*
X109400500Y-89001210D01*
X109400500Y-88921158D01*
X109369737Y-88766503D01*
X109309394Y-88620821D01*
X109309393Y-88620819D01*
X109309390Y-88620814D01*
X109270465Y-88562560D01*
X109221789Y-88489711D01*
X109110289Y-88378211D01*
X109058059Y-88343312D01*
X108979185Y-88290609D01*
X108979174Y-88290603D01*
X108833497Y-88230263D01*
X108678844Y-88199500D01*
X108678842Y-88199500D01*
X108521158Y-88199500D01*
X108521155Y-88199500D01*
X108366503Y-88230263D01*
X108366501Y-88230263D01*
X108265374Y-88272151D01*
X108204377Y-88276951D01*
X108152208Y-88244982D01*
X108128794Y-88188454D01*
X108143078Y-88128959D01*
X108157481Y-88110687D01*
X111131575Y-85136592D01*
X111186090Y-85108817D01*
X111232168Y-85112442D01*
X111397049Y-85166015D01*
X111484140Y-85179809D01*
X111614775Y-85200500D01*
X111614778Y-85200500D01*
X111835225Y-85200500D01*
X111944086Y-85183257D01*
X112052951Y-85166015D01*
X112262606Y-85097895D01*
X112459022Y-84997815D01*
X112637365Y-84868242D01*
X112793242Y-84712365D01*
X112922815Y-84534022D01*
X113022895Y-84337606D01*
X113091015Y-84127951D01*
X113125500Y-83910222D01*
X113125500Y-83689778D01*
X113125500Y-83689774D01*
X113096929Y-83509390D01*
X113091015Y-83472049D01*
X113022895Y-83262394D01*
X112922815Y-83065978D01*
X112793242Y-82887635D01*
X112637365Y-82731758D01*
X112459022Y-82602185D01*
X112459021Y-82602184D01*
X112459019Y-82602183D01*
X112369825Y-82556736D01*
X112262606Y-82502105D01*
X112262602Y-82502104D01*
X112262599Y-82502102D01*
X112052948Y-82433984D01*
X111835225Y-82399500D01*
X111835222Y-82399500D01*
X111614778Y-82399500D01*
X111614775Y-82399500D01*
X111397051Y-82433984D01*
X111187400Y-82502102D01*
X110990980Y-82602183D01*
X110901806Y-82666971D01*
X110812635Y-82731758D01*
X110656758Y-82887635D01*
X110613225Y-82947553D01*
X110527183Y-83065980D01*
X110427102Y-83262400D01*
X110358984Y-83472051D01*
X110324500Y-83689774D01*
X110324500Y-83910225D01*
X110358984Y-84127948D01*
X110412556Y-84292828D01*
X110412555Y-84354013D01*
X110388405Y-84393424D01*
X106936327Y-87845504D01*
X106881810Y-87873281D01*
X106866323Y-87874500D01*
X104099500Y-87874500D01*
X104041309Y-87855593D01*
X104005345Y-87806093D01*
X104000500Y-87775500D01*
X104000500Y-87721159D01*
X104000499Y-87721155D01*
X103995008Y-87693550D01*
X103969737Y-87566503D01*
X103949622Y-87517942D01*
X103909396Y-87420825D01*
X103909390Y-87420814D01*
X103854535Y-87338719D01*
X103821789Y-87289711D01*
X103710289Y-87178211D01*
X103658059Y-87143312D01*
X103579185Y-87090609D01*
X103579174Y-87090603D01*
X103433497Y-87030263D01*
X103278844Y-86999500D01*
X103278842Y-86999500D01*
X103121158Y-86999500D01*
X103121155Y-86999500D01*
X102966503Y-87030263D01*
X102966501Y-87030263D01*
X102820825Y-87090603D01*
X102820814Y-87090609D01*
X102689711Y-87178211D01*
X102689702Y-87178218D01*
X102578209Y-87289712D01*
X102578209Y-87289713D01*
X102576882Y-87291699D01*
X102576024Y-87292375D01*
X102575124Y-87293472D01*
X102574883Y-87293274D01*
X102528831Y-87329578D01*
X102467693Y-87331978D01*
X102424565Y-87306700D01*
X102031582Y-86913718D01*
X101893925Y-86834242D01*
X101893921Y-86834240D01*
X101836911Y-86818964D01*
X101836911Y-86818965D01*
X101740382Y-86793100D01*
X97082679Y-86793100D01*
X96923721Y-86793100D01*
X96835618Y-86816707D01*
X96770175Y-86834242D01*
X96768779Y-86834821D01*
X96767700Y-86834905D01*
X96763912Y-86835921D01*
X96763723Y-86835218D01*
X96707782Y-86839617D01*
X96655615Y-86807644D01*
X96632205Y-86751114D01*
X96631900Y-86743354D01*
X96631900Y-84521155D01*
X97799500Y-84521155D01*
X97799500Y-84521158D01*
X97799500Y-84678842D01*
X97828274Y-84823500D01*
X97830263Y-84833496D01*
X97830263Y-84833498D01*
X97890603Y-84979174D01*
X97890609Y-84979185D01*
X97919074Y-85021785D01*
X97978211Y-85110289D01*
X98089711Y-85221789D01*
X98167876Y-85274017D01*
X98220814Y-85309390D01*
X98220825Y-85309396D01*
X98259707Y-85325501D01*
X98366503Y-85369737D01*
X98521158Y-85400500D01*
X98521159Y-85400500D01*
X98678841Y-85400500D01*
X98678842Y-85400500D01*
X98833497Y-85369737D01*
X98896098Y-85343806D01*
X98922102Y-85333036D01*
X98959987Y-85325500D01*
X99249738Y-85325500D01*
X99249754Y-85325501D01*
X99255817Y-85325501D01*
X99394183Y-85325501D01*
X99499591Y-85297256D01*
X99527836Y-85289688D01*
X99647665Y-85220505D01*
X99731576Y-85136593D01*
X99786090Y-85108817D01*
X99832168Y-85112442D01*
X99997049Y-85166015D01*
X99997050Y-85166015D01*
X99997053Y-85166016D01*
X100214775Y-85200500D01*
X100214778Y-85200500D01*
X100435225Y-85200500D01*
X100544086Y-85183257D01*
X100652951Y-85166015D01*
X100862606Y-85097895D01*
X101059022Y-84997815D01*
X101237365Y-84868242D01*
X101393242Y-84712365D01*
X101522815Y-84534022D01*
X101622895Y-84337606D01*
X101628240Y-84321155D01*
X102399500Y-84321155D01*
X102399500Y-84478844D01*
X102430263Y-84633496D01*
X102430263Y-84633498D01*
X102490603Y-84779174D01*
X102490609Y-84779185D01*
X102520220Y-84823500D01*
X102578211Y-84910289D01*
X102689711Y-85021789D01*
X102756915Y-85066693D01*
X102820814Y-85109390D01*
X102820825Y-85109396D01*
X102852853Y-85122662D01*
X102966503Y-85169737D01*
X103121158Y-85200500D01*
X103121159Y-85200500D01*
X103278841Y-85200500D01*
X103278842Y-85200500D01*
X103433497Y-85169737D01*
X103579179Y-85109394D01*
X103710289Y-85021789D01*
X103821789Y-84910289D01*
X103909394Y-84779179D01*
X103969737Y-84633497D01*
X104000500Y-84478842D01*
X104000500Y-84424500D01*
X104019407Y-84366309D01*
X104068907Y-84330345D01*
X104099500Y-84325500D01*
X104660269Y-84325500D01*
X104718460Y-84344407D01*
X104748478Y-84379554D01*
X104827181Y-84534016D01*
X104827182Y-84534018D01*
X104827183Y-84534019D01*
X104827185Y-84534022D01*
X104956758Y-84712365D01*
X105112635Y-84868242D01*
X105290978Y-84997815D01*
X105487394Y-85097895D01*
X105697049Y-85166015D01*
X105784140Y-85179809D01*
X105914775Y-85200500D01*
X105914778Y-85200500D01*
X106135225Y-85200500D01*
X106244086Y-85183257D01*
X106352951Y-85166015D01*
X106562606Y-85097895D01*
X106759022Y-84997815D01*
X106937365Y-84868242D01*
X107093242Y-84712365D01*
X107222815Y-84534022D01*
X107322895Y-84337606D01*
X107391015Y-84127951D01*
X107425500Y-83910222D01*
X107425500Y-83689778D01*
X107425500Y-83689774D01*
X107396929Y-83509390D01*
X107391015Y-83472049D01*
X107322895Y-83262394D01*
X107222815Y-83065978D01*
X107093242Y-82887635D01*
X106937365Y-82731758D01*
X106759022Y-82602185D01*
X106759021Y-82602184D01*
X106759019Y-82602183D01*
X106669825Y-82556736D01*
X106562606Y-82502105D01*
X106562602Y-82502104D01*
X106562599Y-82502102D01*
X106352948Y-82433984D01*
X106135225Y-82399500D01*
X106135222Y-82399500D01*
X105914778Y-82399500D01*
X105914775Y-82399500D01*
X105697051Y-82433984D01*
X105487400Y-82502102D01*
X105290980Y-82602183D01*
X105201806Y-82666971D01*
X105112635Y-82731758D01*
X104956758Y-82887635D01*
X104913225Y-82947553D01*
X104827182Y-83065981D01*
X104827181Y-83065983D01*
X104748478Y-83220446D01*
X104705214Y-83263710D01*
X104660269Y-83274500D01*
X103730817Y-83274500D01*
X103597164Y-83310312D01*
X103494237Y-83369737D01*
X103477332Y-83379497D01*
X103379497Y-83477331D01*
X103379493Y-83477337D01*
X103286328Y-83570503D01*
X103231812Y-83598281D01*
X103216324Y-83599500D01*
X103121155Y-83599500D01*
X102966503Y-83630263D01*
X102966501Y-83630263D01*
X102820825Y-83690603D01*
X102820814Y-83690609D01*
X102689711Y-83778211D01*
X102689707Y-83778214D01*
X102578214Y-83889707D01*
X102578211Y-83889711D01*
X102490609Y-84020814D01*
X102490603Y-84020825D01*
X102430263Y-84166501D01*
X102430263Y-84166503D01*
X102399500Y-84321155D01*
X101628240Y-84321155D01*
X101691015Y-84127951D01*
X101725500Y-83910222D01*
X101725500Y-83689778D01*
X101725500Y-83689774D01*
X101696929Y-83509390D01*
X101691015Y-83472049D01*
X101622895Y-83262394D01*
X101522815Y-83065978D01*
X101393242Y-82887635D01*
X101237365Y-82731758D01*
X101059022Y-82602185D01*
X101059021Y-82602184D01*
X101059019Y-82602183D01*
X100969825Y-82556736D01*
X100862606Y-82502105D01*
X100862602Y-82502104D01*
X100862599Y-82502102D01*
X100652948Y-82433984D01*
X100435225Y-82399500D01*
X100435222Y-82399500D01*
X100214778Y-82399500D01*
X100214775Y-82399500D01*
X99997051Y-82433984D01*
X99787400Y-82502102D01*
X99590980Y-82602183D01*
X99501806Y-82666971D01*
X99412635Y-82731758D01*
X99256758Y-82887635D01*
X99213225Y-82947553D01*
X99127183Y-83065980D01*
X99027102Y-83262400D01*
X98958984Y-83472051D01*
X98924500Y-83689774D01*
X98924500Y-83727732D01*
X98905593Y-83785923D01*
X98856093Y-83821887D01*
X98806186Y-83824830D01*
X98678844Y-83799500D01*
X98678842Y-83799500D01*
X98521158Y-83799500D01*
X98521155Y-83799500D01*
X98366503Y-83830263D01*
X98366501Y-83830263D01*
X98220825Y-83890603D01*
X98220814Y-83890609D01*
X98089711Y-83978211D01*
X98089707Y-83978214D01*
X97978214Y-84089707D01*
X97978211Y-84089711D01*
X97890609Y-84220814D01*
X97890603Y-84220825D01*
X97830264Y-84366500D01*
X97799500Y-84521155D01*
X96631900Y-84521155D01*
X96631900Y-82748722D01*
X96624514Y-82721158D01*
X96590759Y-82595181D01*
X96590759Y-82595180D01*
X96511281Y-82457520D01*
X95967480Y-81913719D01*
X95927452Y-81890609D01*
X95829822Y-81834242D01*
X95829814Y-81834238D01*
X95797373Y-81825547D01*
X95797372Y-81825546D01*
X95797372Y-81825547D01*
X95676279Y-81793100D01*
X95676278Y-81793100D01*
X92098405Y-81793100D01*
X92040214Y-81774193D01*
X92004250Y-81724693D01*
X92001842Y-81683866D01*
X92000023Y-81683687D01*
X92000500Y-81678841D01*
X92000500Y-81521159D01*
X92000499Y-81521155D01*
X91969737Y-81366503D01*
X91909394Y-81220821D01*
X91909393Y-81220819D01*
X91909390Y-81220814D01*
X91874017Y-81167876D01*
X91821789Y-81089711D01*
X91710289Y-80978211D01*
X91658059Y-80943312D01*
X91579185Y-80890609D01*
X91579174Y-80890603D01*
X91433497Y-80830263D01*
X91278844Y-80799500D01*
X91278842Y-80799500D01*
X91121158Y-80799500D01*
X91121155Y-80799500D01*
X90966503Y-80830263D01*
X90966501Y-80830263D01*
X90820825Y-80890603D01*
X90820814Y-80890609D01*
X90689711Y-80978211D01*
X90689707Y-80978214D01*
X90622418Y-81045504D01*
X90567901Y-81073281D01*
X90552414Y-81074500D01*
X85075262Y-81074500D01*
X85075246Y-81074499D01*
X85069183Y-81074499D01*
X84930817Y-81074499D01*
X84886267Y-81086435D01*
X84825409Y-81102742D01*
X84825408Y-81102743D01*
X84797164Y-81110312D01*
X84797163Y-81110312D01*
X84797161Y-81110313D01*
X84797156Y-81110315D01*
X84677335Y-81179494D01*
X84579494Y-81277334D01*
X84579495Y-81277335D01*
X84579493Y-81277337D01*
X83422846Y-82433985D01*
X82286327Y-83570504D01*
X82231810Y-83598281D01*
X82216323Y-83599500D01*
X82121155Y-83599500D01*
X81966503Y-83630263D01*
X81966501Y-83630263D01*
X81820825Y-83690603D01*
X81820814Y-83690609D01*
X81689711Y-83778211D01*
X81689707Y-83778214D01*
X81578214Y-83889707D01*
X81578211Y-83889711D01*
X81490609Y-84020814D01*
X81490603Y-84020825D01*
X81430263Y-84166501D01*
X81430263Y-84166503D01*
X81399500Y-84321155D01*
X81399500Y-84478844D01*
X81430263Y-84633496D01*
X81430263Y-84633498D01*
X81490603Y-84779174D01*
X81490609Y-84779185D01*
X81520220Y-84823500D01*
X81578211Y-84910289D01*
X81689711Y-85021789D01*
X81756915Y-85066693D01*
X81820814Y-85109390D01*
X81820825Y-85109396D01*
X81852853Y-85122662D01*
X81966503Y-85169737D01*
X82121158Y-85200500D01*
X82121159Y-85200500D01*
X82278841Y-85200500D01*
X82278842Y-85200500D01*
X82433497Y-85169737D01*
X82579179Y-85109394D01*
X82710289Y-85021789D01*
X82821789Y-84910289D01*
X82909394Y-84779179D01*
X82969737Y-84633497D01*
X83000500Y-84478842D01*
X83000500Y-84383677D01*
X83019407Y-84325486D01*
X83029496Y-84313673D01*
X85188673Y-82154496D01*
X85243190Y-82126719D01*
X85258677Y-82125500D01*
X90503657Y-82125500D01*
X90561848Y-82144407D01*
X90597812Y-82193907D01*
X90597812Y-82255093D01*
X90580193Y-82287295D01*
X90578214Y-82289706D01*
X90490609Y-82420814D01*
X90490603Y-82420825D01*
X90430263Y-82566501D01*
X90399006Y-82723638D01*
X90371911Y-82774327D01*
X90186871Y-82959366D01*
X90132355Y-82987143D01*
X90071923Y-82977572D01*
X90036776Y-82947553D01*
X89993246Y-82887640D01*
X89993244Y-82887638D01*
X89993242Y-82887635D01*
X89837365Y-82731758D01*
X89659022Y-82602185D01*
X89659021Y-82602184D01*
X89659019Y-82602183D01*
X89569825Y-82556736D01*
X89462606Y-82502105D01*
X89462602Y-82502104D01*
X89462599Y-82502102D01*
X89252948Y-82433984D01*
X89035225Y-82399500D01*
X89035222Y-82399500D01*
X88814778Y-82399500D01*
X88814775Y-82399500D01*
X88597051Y-82433984D01*
X88387400Y-82502102D01*
X88190980Y-82602183D01*
X88101806Y-82666971D01*
X88012635Y-82731758D01*
X87856758Y-82887635D01*
X87813225Y-82947553D01*
X87727183Y-83065980D01*
X87627102Y-83262400D01*
X87558984Y-83472051D01*
X87524500Y-83689774D01*
X87524500Y-83910225D01*
X87558984Y-84127948D01*
X87627102Y-84337599D01*
X87627103Y-84337601D01*
X87627105Y-84337606D01*
X87641829Y-84366503D01*
X87727182Y-84534018D01*
X87727185Y-84534022D01*
X87856758Y-84712365D01*
X88012635Y-84868242D01*
X88165321Y-84979174D01*
X88190981Y-84997817D01*
X88190982Y-84997818D01*
X88231843Y-85018637D01*
X88267245Y-85036675D01*
X88310509Y-85079938D01*
X88321300Y-85124884D01*
X88321300Y-85583931D01*
X88302393Y-85642122D01*
X88292304Y-85653935D01*
X87174326Y-86771912D01*
X87123637Y-86799006D01*
X86966501Y-86830263D01*
X86820825Y-86890603D01*
X86820814Y-86890609D01*
X86689711Y-86978211D01*
X86689707Y-86978214D01*
X86578214Y-87089707D01*
X86578211Y-87089711D01*
X86490609Y-87220814D01*
X86490603Y-87220825D01*
X86430263Y-87366501D01*
X86430263Y-87366503D01*
X86399500Y-87521155D01*
X86399500Y-87678847D01*
X86399966Y-87681187D01*
X86399837Y-87682270D01*
X86399977Y-87683686D01*
X86399666Y-87683716D01*
X86392774Y-87741948D01*
X86351241Y-87786878D01*
X86302868Y-87799500D01*
X81917321Y-87799500D01*
X81865517Y-87813381D01*
X81763776Y-87840642D01*
X81643109Y-87910309D01*
X81643110Y-87910310D01*
X81626122Y-87920118D01*
X79774326Y-89771912D01*
X79723637Y-89799006D01*
X79566501Y-89830263D01*
X79420825Y-89890603D01*
X79420814Y-89890609D01*
X79289711Y-89978211D01*
X79289707Y-89978214D01*
X79178214Y-90089707D01*
X79178211Y-90089711D01*
X79090609Y-90220814D01*
X79090603Y-90220825D01*
X79030263Y-90366501D01*
X78999006Y-90523637D01*
X78971912Y-90574325D01*
X78516918Y-91029320D01*
X78437441Y-91166979D01*
X78437440Y-91166980D01*
X78437441Y-91166981D01*
X78399282Y-91309394D01*
X78396300Y-91320522D01*
X78396300Y-92432608D01*
X78379615Y-92487610D01*
X78290609Y-92620813D01*
X78290603Y-92620825D01*
X78230263Y-92766501D01*
X78230263Y-92766503D01*
X78199500Y-92921155D01*
X78199500Y-93078844D01*
X78208415Y-93123662D01*
X78228142Y-93222836D01*
X78230263Y-93233496D01*
X78230263Y-93233498D01*
X78290603Y-93379174D01*
X78290609Y-93379185D01*
X78327883Y-93434968D01*
X78378211Y-93510289D01*
X78489711Y-93621789D01*
X78544044Y-93658093D01*
X78620814Y-93709390D01*
X78620825Y-93709396D01*
X78674638Y-93731685D01*
X78766503Y-93769737D01*
X78921158Y-93800500D01*
X78921159Y-93800500D01*
X79078841Y-93800500D01*
X79078842Y-93800500D01*
X79233497Y-93769737D01*
X79379179Y-93709394D01*
X79510289Y-93621789D01*
X79621789Y-93510289D01*
X79709394Y-93379179D01*
X79753380Y-93272986D01*
X79793113Y-93226463D01*
X79852608Y-93212179D01*
X79899841Y-93228558D01*
X79954429Y-93265032D01*
X80020814Y-93309390D01*
X80020825Y-93309396D01*
X80058374Y-93324949D01*
X80166503Y-93369737D01*
X80321158Y-93400500D01*
X80321159Y-93400500D01*
X80478841Y-93400500D01*
X80478842Y-93400500D01*
X80633497Y-93369737D01*
X80779179Y-93309394D01*
X80910289Y-93221789D01*
X81021789Y-93110289D01*
X81109394Y-92979179D01*
X81169737Y-92833497D01*
X81200500Y-92678842D01*
X81200500Y-92583677D01*
X81219407Y-92525486D01*
X81229496Y-92513673D01*
X83788673Y-89954496D01*
X83843190Y-89926719D01*
X83858677Y-89925500D01*
X87978860Y-89925500D01*
X88037051Y-89944407D01*
X88070324Y-89986614D01*
X88090605Y-90035577D01*
X88090609Y-90035585D01*
X88139925Y-90109390D01*
X88178211Y-90166689D01*
X88289711Y-90278189D01*
X88333481Y-90307435D01*
X88420814Y-90365790D01*
X88420825Y-90365796D01*
X88453874Y-90379485D01*
X88566503Y-90426137D01*
X88721158Y-90456900D01*
X88721159Y-90456900D01*
X88878841Y-90456900D01*
X88878842Y-90456900D01*
X89033497Y-90426137D01*
X89179179Y-90365794D01*
X89179181Y-90365792D01*
X89179188Y-90365789D01*
X89221485Y-90337525D01*
X89241661Y-90324044D01*
X89300548Y-90307435D01*
X89357952Y-90328612D01*
X89391946Y-90379485D01*
X89389545Y-90440623D01*
X89366667Y-90476363D01*
X89007035Y-90835995D01*
X88952518Y-90863772D01*
X88899146Y-90857455D01*
X88833497Y-90830263D01*
X88678844Y-90799500D01*
X88678842Y-90799500D01*
X88521158Y-90799500D01*
X88521155Y-90799500D01*
X88366503Y-90830263D01*
X88366501Y-90830263D01*
X88220825Y-90890603D01*
X88220814Y-90890609D01*
X88089711Y-90978211D01*
X88089707Y-90978214D01*
X87978214Y-91089707D01*
X87978211Y-91089711D01*
X87890609Y-91220814D01*
X87890603Y-91220825D01*
X87830263Y-91366501D01*
X87830263Y-91366503D01*
X87799500Y-91521155D01*
X87799500Y-91678844D01*
X87830263Y-91833496D01*
X87830263Y-91833498D01*
X87873389Y-91937615D01*
X87878189Y-91998612D01*
X87846220Y-92050781D01*
X87789692Y-92074195D01*
X87781925Y-92074500D01*
X85847586Y-92074500D01*
X85789395Y-92055593D01*
X85777582Y-92045504D01*
X85710292Y-91978214D01*
X85710289Y-91978211D01*
X85649533Y-91937615D01*
X85579185Y-91890609D01*
X85579174Y-91890603D01*
X85433497Y-91830263D01*
X85278844Y-91799500D01*
X85278842Y-91799500D01*
X85121158Y-91799500D01*
X85121155Y-91799500D01*
X84966503Y-91830263D01*
X84966501Y-91830263D01*
X84820825Y-91890603D01*
X84820814Y-91890609D01*
X84689711Y-91978211D01*
X84689707Y-91978214D01*
X84578214Y-92089707D01*
X84578211Y-92089711D01*
X84490609Y-92220814D01*
X84490603Y-92220825D01*
X84430263Y-92366501D01*
X84430263Y-92366503D01*
X84399500Y-92521155D01*
X84399500Y-92678844D01*
X84430263Y-92833496D01*
X84430263Y-92833498D01*
X84490603Y-92979174D01*
X84490609Y-92979185D01*
X84502143Y-92996446D01*
X84578211Y-93110289D01*
X84689711Y-93221789D01*
X84754429Y-93265032D01*
X84820814Y-93309390D01*
X84820825Y-93309396D01*
X84858374Y-93324949D01*
X84966503Y-93369737D01*
X85121158Y-93400500D01*
X85121159Y-93400500D01*
X85278841Y-93400500D01*
X85278842Y-93400500D01*
X85433497Y-93369737D01*
X85579179Y-93309394D01*
X85710289Y-93221789D01*
X85777582Y-93154496D01*
X85832099Y-93126719D01*
X85847586Y-93125500D01*
X88127534Y-93125500D01*
X88185725Y-93144407D01*
X88221689Y-93193907D01*
X88224632Y-93205187D01*
X88230262Y-93233495D01*
X88230263Y-93233498D01*
X88290603Y-93379174D01*
X88290609Y-93379185D01*
X88327883Y-93434968D01*
X88378211Y-93510289D01*
X88489711Y-93621789D01*
X88544044Y-93658093D01*
X88620814Y-93709390D01*
X88620825Y-93709396D01*
X88674638Y-93731685D01*
X88766503Y-93769737D01*
X88921158Y-93800500D01*
X88921159Y-93800500D01*
X89078841Y-93800500D01*
X89078842Y-93800500D01*
X89233497Y-93769737D01*
X89379179Y-93709394D01*
X89510289Y-93621789D01*
X89621789Y-93510289D01*
X89709394Y-93379179D01*
X89769737Y-93233497D01*
X89800500Y-93078842D01*
X89800500Y-92921158D01*
X89769737Y-92766503D01*
X89721480Y-92650000D01*
X89709396Y-92620825D01*
X89709390Y-92620814D01*
X89655424Y-92540050D01*
X89621789Y-92489711D01*
X89510289Y-92378211D01*
X89437397Y-92329506D01*
X89385864Y-92295072D01*
X89347985Y-92247022D01*
X89345583Y-92185884D01*
X89379576Y-92135010D01*
X89391356Y-92127026D01*
X89467473Y-92083080D01*
X92631477Y-88919076D01*
X92631476Y-88919076D01*
X95108080Y-86442474D01*
X95174266Y-86327836D01*
X95187559Y-86304812D01*
X95228700Y-86151272D01*
X95228700Y-86151269D01*
X95229873Y-86146892D01*
X95263197Y-86095578D01*
X95320319Y-86073651D01*
X95379419Y-86089487D01*
X95417924Y-86137037D01*
X95424500Y-86172515D01*
X95424500Y-88080731D01*
X95405593Y-88138922D01*
X95395504Y-88150735D01*
X92774326Y-90771912D01*
X92723637Y-90799006D01*
X92566501Y-90830263D01*
X92420825Y-90890603D01*
X92420814Y-90890609D01*
X92289711Y-90978211D01*
X92289707Y-90978214D01*
X92178214Y-91089707D01*
X92178211Y-91089711D01*
X92090609Y-91220814D01*
X92090603Y-91220825D01*
X92030263Y-91366501D01*
X92030263Y-91366503D01*
X91999500Y-91521155D01*
X91999500Y-91678844D01*
X92030263Y-91833496D01*
X92030263Y-91833498D01*
X92087683Y-91972125D01*
X92092483Y-92033122D01*
X92066223Y-92080014D01*
X85975735Y-98170504D01*
X85921218Y-98198281D01*
X85905731Y-98199500D01*
X82894269Y-98199500D01*
X82836078Y-98180593D01*
X82824265Y-98170504D01*
X80628087Y-95974326D01*
X80600993Y-95923636D01*
X80589319Y-95864947D01*
X80569737Y-95766503D01*
X80546080Y-95709390D01*
X80509396Y-95620825D01*
X80509390Y-95620814D01*
X80460924Y-95548281D01*
X80421789Y-95489711D01*
X80310289Y-95378211D01*
X80230161Y-95324671D01*
X80179185Y-95290609D01*
X80179174Y-95290603D01*
X80033497Y-95230263D01*
X79878844Y-95199500D01*
X79878842Y-95199500D01*
X79721158Y-95199500D01*
X79721155Y-95199500D01*
X79566503Y-95230263D01*
X79566501Y-95230263D01*
X79420825Y-95290603D01*
X79420814Y-95290609D01*
X79331466Y-95350310D01*
X79289711Y-95378211D01*
X79289708Y-95378213D01*
X79287611Y-95379615D01*
X79232609Y-95396300D01*
X77720521Y-95396300D01*
X77682136Y-95406585D01*
X77643750Y-95416870D01*
X77643749Y-95416869D01*
X77566980Y-95437440D01*
X77566976Y-95437442D01*
X77429322Y-95516917D01*
X76578935Y-96367304D01*
X76524418Y-96395081D01*
X76508931Y-96396300D01*
X74079479Y-96396300D01*
X73920521Y-96396300D01*
X73826551Y-96421479D01*
X73766976Y-96437442D01*
X73629324Y-96516916D01*
X73516916Y-96629324D01*
X73437442Y-96766976D01*
X73396300Y-96920522D01*
X73396300Y-107951770D01*
X73377393Y-108009961D01*
X73335186Y-108043234D01*
X73220822Y-108090605D01*
X73220814Y-108090609D01*
X73089711Y-108178211D01*
X73089707Y-108178214D01*
X72978214Y-108289707D01*
X72978211Y-108289711D01*
X72890609Y-108420814D01*
X72890603Y-108420825D01*
X72830263Y-108566501D01*
X72830263Y-108566503D01*
X72799500Y-108721155D01*
X56943519Y-108721155D01*
X57468937Y-108195738D01*
X57567105Y-108097571D01*
X57621621Y-108069794D01*
X57637108Y-108068575D01*
X57732272Y-108068575D01*
X57732273Y-108068575D01*
X57886928Y-108037812D01*
X58032610Y-107977469D01*
X58163720Y-107889864D01*
X58275220Y-107778364D01*
X58362825Y-107647254D01*
X58423168Y-107501572D01*
X58453931Y-107346917D01*
X58453931Y-107189233D01*
X58423168Y-107034578D01*
X58392396Y-106960288D01*
X58362827Y-106888900D01*
X58362821Y-106888889D01*
X58322920Y-106829174D01*
X58275220Y-106757786D01*
X58163720Y-106646286D01*
X58091705Y-106598167D01*
X58032616Y-106558684D01*
X58032605Y-106558678D01*
X57886928Y-106498338D01*
X57732275Y-106467575D01*
X57732273Y-106467575D01*
X57574589Y-106467575D01*
X57574586Y-106467575D01*
X57419934Y-106498338D01*
X57419932Y-106498338D01*
X57274256Y-106558678D01*
X57274245Y-106558684D01*
X57143142Y-106646286D01*
X57143138Y-106646289D01*
X57031645Y-106757782D01*
X57031642Y-106757786D01*
X56944040Y-106888889D01*
X56944034Y-106888900D01*
X56883694Y-107034576D01*
X56883694Y-107034578D01*
X56852931Y-107189230D01*
X56852931Y-107284398D01*
X56834024Y-107342589D01*
X56823935Y-107354402D01*
X56259620Y-107918717D01*
X56205103Y-107946494D01*
X56189616Y-107947713D01*
X53962826Y-107947713D01*
X53904635Y-107928806D01*
X53868671Y-107879306D01*
X53868671Y-107818120D01*
X53880511Y-107793711D01*
X53930921Y-107718267D01*
X53930921Y-107718266D01*
X53931479Y-107716919D01*
X53987140Y-107582542D01*
X54015800Y-107438455D01*
X54015800Y-107291545D01*
X53987140Y-107147458D01*
X53939117Y-107031520D01*
X53930921Y-107011733D01*
X53930921Y-107011732D01*
X53863138Y-106910289D01*
X53849301Y-106889580D01*
X53745420Y-106785699D01*
X53623269Y-106704080D01*
X53623268Y-106704079D01*
X53623266Y-106704078D01*
X53487542Y-106647860D01*
X53343457Y-106619200D01*
X53343455Y-106619200D01*
X53196545Y-106619200D01*
X53196542Y-106619200D01*
X53052458Y-106647860D01*
X53052456Y-106647860D01*
X52924587Y-106700825D01*
X52863590Y-106705625D01*
X52811421Y-106673656D01*
X52789604Y-106628674D01*
X52788520Y-106623225D01*
X52763680Y-106498340D01*
X52703811Y-106353805D01*
X52703808Y-106353800D01*
X52620384Y-106228946D01*
X52603700Y-106173945D01*
X52603700Y-106167391D01*
X52620385Y-106112389D01*
X52621786Y-106110291D01*
X52621789Y-106110289D01*
X52709394Y-105979179D01*
X52769737Y-105833497D01*
X52800500Y-105678842D01*
X52800500Y-105521158D01*
X52769737Y-105366503D01*
X52709394Y-105220821D01*
X52709393Y-105220819D01*
X52709390Y-105220814D01*
X52653791Y-105137606D01*
X52621789Y-105089711D01*
X52510289Y-104978211D01*
X52477511Y-104956309D01*
X52379185Y-104890609D01*
X52379174Y-104890603D01*
X52233497Y-104830263D01*
X52078844Y-104799500D01*
X52078842Y-104799500D01*
X51921158Y-104799500D01*
X51921155Y-104799500D01*
X51766503Y-104830263D01*
X51766501Y-104830263D01*
X51620825Y-104890603D01*
X51620814Y-104890609D01*
X51511612Y-104963576D01*
X51489711Y-104978211D01*
X51489707Y-104978214D01*
X51378214Y-105089707D01*
X51378211Y-105089711D01*
X51290609Y-105220814D01*
X51290603Y-105220825D01*
X51230263Y-105366501D01*
X51230263Y-105366503D01*
X51199500Y-105521155D01*
X51199500Y-105678845D01*
X51223693Y-105800471D01*
X51216501Y-105861233D01*
X51174968Y-105906162D01*
X51114959Y-105918099D01*
X51088709Y-105911249D01*
X50990681Y-105870644D01*
X50818024Y-105836300D01*
X50641975Y-105836300D01*
X50469317Y-105870645D01*
X50469315Y-105870645D01*
X50306680Y-105938010D01*
X50306675Y-105938013D01*
X50297618Y-105944063D01*
X50836773Y-106483218D01*
X50843892Y-106497190D01*
X50854978Y-106508276D01*
X50857430Y-106523762D01*
X50864550Y-106537735D01*
X50862097Y-106553222D01*
X50864550Y-106568708D01*
X50857432Y-106582678D01*
X50854979Y-106598167D01*
X50836773Y-106623225D01*
X50758996Y-106701003D01*
X50704480Y-106728781D01*
X50688992Y-106730000D01*
X50417454Y-106730000D01*
X50359263Y-106711093D01*
X50347450Y-106701004D01*
X50264503Y-106618057D01*
X50237410Y-106567368D01*
X50223680Y-106498340D01*
X50163811Y-106353805D01*
X50163808Y-106353800D01*
X50163804Y-106353792D01*
X50076900Y-106223731D01*
X50076898Y-106223729D01*
X50013552Y-106160382D01*
X49987936Y-106110107D01*
X49987180Y-106110310D01*
X49986226Y-106106750D01*
X49985775Y-106105865D01*
X49985522Y-106104122D01*
X49985501Y-106104042D01*
X49949689Y-105970390D01*
X49949687Y-105970387D01*
X49949687Y-105970385D01*
X49880508Y-105850564D01*
X49880506Y-105850562D01*
X49880505Y-105850560D01*
X49185981Y-105156037D01*
X49185980Y-105156035D01*
X49088140Y-105058195D01*
X48968311Y-104989012D01*
X48968310Y-104989011D01*
X48968307Y-104989010D01*
X48928000Y-104978210D01*
X48927999Y-104978210D01*
X48834660Y-104953199D01*
X48834658Y-104953199D01*
X48696292Y-104953199D01*
X48690229Y-104953199D01*
X48690213Y-104953200D01*
X48394200Y-104953200D01*
X48336009Y-104934293D01*
X48300045Y-104884793D01*
X48295200Y-104854200D01*
X48295200Y-102729869D01*
X48314107Y-102671678D01*
X48363607Y-102635714D01*
X48424793Y-102635714D01*
X48432063Y-102638396D01*
X48437354Y-102640588D01*
X48592009Y-102671351D01*
X48592010Y-102671351D01*
X48749692Y-102671351D01*
X48749693Y-102671351D01*
X48904348Y-102640588D01*
X49050030Y-102580245D01*
X49181140Y-102492640D01*
X49292640Y-102381140D01*
X49380245Y-102250030D01*
X49440588Y-102104348D01*
X49471351Y-101949693D01*
X49471351Y-101792009D01*
X49461733Y-101743659D01*
X49468923Y-101682899D01*
X49488827Y-101654341D01*
X50113674Y-101029496D01*
X50168190Y-101001719D01*
X50183677Y-101000500D01*
X57721323Y-101000500D01*
X57779514Y-101019407D01*
X57791327Y-101029496D01*
X58547332Y-101785501D01*
X58575109Y-101840018D01*
X58565538Y-101900450D01*
X58555871Y-101915771D01*
X58498729Y-101990240D01*
X58432899Y-102104261D01*
X58392392Y-102202054D01*
X58358317Y-102329226D01*
X58344500Y-102434175D01*
X58344500Y-103050001D01*
X58361849Y-103159535D01*
X58361849Y-103190510D01*
X58349500Y-103268477D01*
X58349500Y-104331521D01*
X58361849Y-104409488D01*
X58361849Y-104440460D01*
X58353847Y-104490986D01*
X58326070Y-104545503D01*
X58271554Y-104573281D01*
X58256066Y-104574500D01*
X57531360Y-104574500D01*
X57473169Y-104555593D01*
X57449044Y-104530501D01*
X57421789Y-104489711D01*
X57310297Y-104378218D01*
X57310292Y-104378214D01*
X57310289Y-104378211D01*
X57240408Y-104331518D01*
X57179185Y-104290609D01*
X57179174Y-104290603D01*
X57033497Y-104230263D01*
X56878844Y-104199500D01*
X56878842Y-104199500D01*
X56721158Y-104199500D01*
X56721155Y-104199500D01*
X56566503Y-104230263D01*
X56566501Y-104230263D01*
X56420825Y-104290603D01*
X56420814Y-104290609D01*
X56289711Y-104378211D01*
X56289707Y-104378214D01*
X56178214Y-104489707D01*
X56178211Y-104489711D01*
X56090609Y-104620814D01*
X56090603Y-104620825D01*
X56030263Y-104766501D01*
X56030263Y-104766503D01*
X55999500Y-104921155D01*
X55999500Y-105078844D01*
X56011189Y-105137606D01*
X56027742Y-105220825D01*
X56030263Y-105233496D01*
X56030263Y-105233498D01*
X56090603Y-105379174D01*
X56090609Y-105379185D01*
X56132568Y-105441980D01*
X56178211Y-105510289D01*
X56289711Y-105621789D01*
X56353233Y-105664233D01*
X56420814Y-105709390D01*
X56420825Y-105709396D01*
X56474638Y-105731685D01*
X56566503Y-105769737D01*
X56721158Y-105800500D01*
X56721159Y-105800500D01*
X56878841Y-105800500D01*
X56878842Y-105800500D01*
X57033497Y-105769737D01*
X57179179Y-105709394D01*
X57179181Y-105709392D01*
X57179186Y-105709390D01*
X57279764Y-105642185D01*
X57334766Y-105625500D01*
X58461987Y-105625500D01*
X58520178Y-105644407D01*
X58540524Y-105664227D01*
X58563169Y-105693739D01*
X58656261Y-105786831D01*
X58740243Y-105851272D01*
X58854257Y-105917098D01*
X58854258Y-105917098D01*
X58854261Y-105917100D01*
X58908849Y-105939711D01*
X58952054Y-105957607D01*
X59079221Y-105991682D01*
X59184174Y-106005500D01*
X59184175Y-106005500D01*
X59815824Y-106005500D01*
X59815826Y-106005500D01*
X59920779Y-105991682D01*
X60047946Y-105957607D01*
X60145743Y-105917098D01*
X60259757Y-105851272D01*
X60343739Y-105786831D01*
X60436831Y-105693739D01*
X60459473Y-105664230D01*
X60509894Y-105629577D01*
X60538013Y-105625500D01*
X60841323Y-105625500D01*
X60899514Y-105644407D01*
X60911327Y-105654496D01*
X61570504Y-106313673D01*
X61598281Y-106368190D01*
X61599500Y-106383677D01*
X61599500Y-106478844D01*
X61630263Y-106633496D01*
X61630263Y-106633498D01*
X61690603Y-106779174D01*
X61690609Y-106779185D01*
X61743312Y-106858059D01*
X61778211Y-106910289D01*
X61889711Y-107021789D01*
X61964535Y-107071785D01*
X62020814Y-107109390D01*
X62020825Y-107109396D01*
X62062261Y-107126559D01*
X62166503Y-107169737D01*
X62321158Y-107200500D01*
X62321159Y-107200500D01*
X62478841Y-107200500D01*
X62478842Y-107200500D01*
X62633497Y-107169737D01*
X62779179Y-107109394D01*
X62910289Y-107021789D01*
X63021789Y-106910289D01*
X63109394Y-106779179D01*
X63169737Y-106633497D01*
X63200500Y-106478842D01*
X63200500Y-106321158D01*
X63169737Y-106166503D01*
X63143865Y-106104042D01*
X63109396Y-106020825D01*
X63109390Y-106020814D01*
X63053794Y-105937610D01*
X63021789Y-105889711D01*
X62910289Y-105778211D01*
X62858059Y-105743312D01*
X62779185Y-105690609D01*
X62779174Y-105690603D01*
X62633497Y-105630263D01*
X62478844Y-105599500D01*
X62478842Y-105599500D01*
X62383678Y-105599500D01*
X62325487Y-105580593D01*
X62313674Y-105570504D01*
X61520506Y-104777337D01*
X61520505Y-104777335D01*
X61422665Y-104679495D01*
X61302836Y-104610312D01*
X61302835Y-104610311D01*
X61302832Y-104610310D01*
X61262484Y-104599499D01*
X61262483Y-104599499D01*
X61169185Y-104574499D01*
X61169183Y-104574499D01*
X61030817Y-104574499D01*
X61024754Y-104574499D01*
X61024738Y-104574500D01*
X60743934Y-104574500D01*
X60736336Y-104572031D01*
X60728448Y-104573281D01*
X60707792Y-104562757D01*
X60685743Y-104555593D01*
X60681048Y-104549131D01*
X60673931Y-104545505D01*
X60663406Y-104524849D01*
X60649779Y-104506093D01*
X60646153Y-104490988D01*
X60638150Y-104440464D01*
X60638169Y-104409367D01*
X60638245Y-104408891D01*
X60645352Y-104394983D01*
X60647721Y-104380032D01*
X60658508Y-104369243D01*
X60666091Y-104354409D01*
X60680829Y-104346922D01*
X60690985Y-104336767D01*
X60705280Y-104334502D01*
X60720642Y-104326700D01*
X60736007Y-104325500D01*
X61555614Y-104325500D01*
X61613805Y-104344407D01*
X61625618Y-104354496D01*
X61692911Y-104421789D01*
X61771076Y-104474017D01*
X61824014Y-104509390D01*
X61824025Y-104509396D01*
X61861333Y-104524849D01*
X61969703Y-104569737D01*
X62124358Y-104600500D01*
X62124359Y-104600500D01*
X62282041Y-104600500D01*
X62282042Y-104600500D01*
X62436697Y-104569737D01*
X62582379Y-104509394D01*
X62713489Y-104421789D01*
X62824989Y-104310289D01*
X62912594Y-104179179D01*
X62972937Y-104033497D01*
X63003700Y-103878842D01*
X63003700Y-103721158D01*
X62972937Y-103566503D01*
X62912594Y-103420821D01*
X62912593Y-103420819D01*
X62912590Y-103420814D01*
X62833268Y-103302102D01*
X62824989Y-103289711D01*
X62713489Y-103178211D01*
X62661259Y-103143312D01*
X62582385Y-103090609D01*
X62582374Y-103090603D01*
X62436697Y-103030263D01*
X62282044Y-102999500D01*
X62282042Y-102999500D01*
X62124358Y-102999500D01*
X62124355Y-102999500D01*
X61969703Y-103030263D01*
X61969701Y-103030263D01*
X61824025Y-103090603D01*
X61824014Y-103090609D01*
X61692911Y-103178211D01*
X61692907Y-103178214D01*
X61625618Y-103245504D01*
X61571101Y-103273281D01*
X61555614Y-103274500D01*
X60736006Y-103274500D01*
X60728356Y-103272014D01*
X60720409Y-103273264D01*
X60699812Y-103262740D01*
X60677815Y-103255593D01*
X60673086Y-103249084D01*
X60665924Y-103245425D01*
X60655448Y-103224808D01*
X60641851Y-103206093D01*
X60638208Y-103190877D01*
X60638133Y-103190400D01*
X60638150Y-103159534D01*
X60655500Y-103050001D01*
X60655500Y-102434175D01*
X60655500Y-102434174D01*
X60641682Y-102329221D01*
X60607607Y-102202054D01*
X60567136Y-102104348D01*
X60567100Y-102104261D01*
X60561426Y-102094433D01*
X60501272Y-101990243D01*
X60436831Y-101906261D01*
X60343739Y-101813169D01*
X60316168Y-101792013D01*
X60259760Y-101748730D01*
X60250980Y-101743661D01*
X60145743Y-101682902D01*
X60145738Y-101682899D01*
X60047945Y-101642392D01*
X59961088Y-101619119D01*
X59920779Y-101608318D01*
X59920776Y-101608317D01*
X59920774Y-101608317D01*
X59880057Y-101602956D01*
X59824832Y-101576614D01*
X59822977Y-101574807D01*
X58400506Y-100152337D01*
X58400505Y-100152335D01*
X58302665Y-100054495D01*
X58182836Y-99985312D01*
X58182835Y-99985311D01*
X58182832Y-99985310D01*
X58141256Y-99974170D01*
X58141255Y-99974170D01*
X58049185Y-99949499D01*
X58049183Y-99949499D01*
X57910817Y-99949499D01*
X57904754Y-99949499D01*
X57904738Y-99949500D01*
X55992652Y-99949500D01*
X55934461Y-99930593D01*
X55898497Y-99881093D01*
X55898497Y-99819907D01*
X55934461Y-99770407D01*
X55962059Y-99756346D01*
X55978209Y-99751098D01*
X56167552Y-99654624D01*
X56339464Y-99529722D01*
X56489725Y-99379461D01*
X56570407Y-99268411D01*
X56619907Y-99232447D01*
X56681092Y-99232446D01*
X56730592Y-99268410D01*
X56749500Y-99326599D01*
X56749500Y-99381520D01*
X56749501Y-99381523D01*
X56764352Y-99475299D01*
X56764354Y-99475304D01*
X56821950Y-99588342D01*
X56911658Y-99678050D01*
X57024696Y-99735646D01*
X57118481Y-99750500D01*
X58881518Y-99750499D01*
X58881521Y-99750499D01*
X58881522Y-99750498D01*
X58928411Y-99743072D01*
X58975299Y-99735647D01*
X58975299Y-99735646D01*
X58975304Y-99735646D01*
X59088342Y-99678050D01*
X59178050Y-99588342D01*
X59235646Y-99475304D01*
X59250500Y-99381519D01*
X59250499Y-97618482D01*
X59250499Y-97618481D01*
X59250499Y-97618478D01*
X59250498Y-97618476D01*
X59235647Y-97524700D01*
X59235646Y-97524698D01*
X59235646Y-97524696D01*
X59178050Y-97411658D01*
X59088342Y-97321950D01*
X58975304Y-97264354D01*
X58975305Y-97264354D01*
X58881521Y-97249500D01*
X57118478Y-97249500D01*
X57118476Y-97249501D01*
X57024700Y-97264352D01*
X57024695Y-97264354D01*
X56911659Y-97321949D01*
X56821949Y-97411659D01*
X56764354Y-97524695D01*
X56749500Y-97618478D01*
X56749500Y-97673397D01*
X56730593Y-97731588D01*
X56681093Y-97767552D01*
X56619907Y-97767552D01*
X56570407Y-97731588D01*
X56489722Y-97620535D01*
X56339464Y-97470277D01*
X56167552Y-97345375D01*
X55978215Y-97248904D01*
X55776120Y-97183240D01*
X55710000Y-97172767D01*
X55710000Y-98066988D01*
X55652993Y-98034075D01*
X55525826Y-98000000D01*
X55394174Y-98000000D01*
X55267007Y-98034075D01*
X55210000Y-98066988D01*
X55210000Y-97172768D01*
X55209999Y-97172767D01*
X55143880Y-97183240D01*
X55143878Y-97183240D01*
X54941784Y-97248904D01*
X54752447Y-97345375D01*
X54580535Y-97470277D01*
X54430277Y-97620535D01*
X54305374Y-97792449D01*
X54305370Y-97792456D01*
X54222373Y-97955347D01*
X54179109Y-97998612D01*
X54118677Y-98008183D01*
X54064160Y-97980405D01*
X54045954Y-97955346D01*
X53989527Y-97844600D01*
X53989526Y-97844598D01*
X53989524Y-97844595D01*
X53873828Y-97685354D01*
X53734646Y-97546172D01*
X53575405Y-97430476D01*
X53575404Y-97430475D01*
X53575402Y-97430474D01*
X53400025Y-97341116D01*
X53212821Y-97280289D01*
X53018420Y-97249500D01*
X53018417Y-97249500D01*
X52821583Y-97249500D01*
X52821580Y-97249500D01*
X52627178Y-97280289D01*
X52439974Y-97341116D01*
X52264597Y-97430474D01*
X52105355Y-97546171D01*
X51966171Y-97685355D01*
X51850474Y-97844597D01*
X51761114Y-98019978D01*
X51761112Y-98019981D01*
X51744154Y-98072175D01*
X51708190Y-98121675D01*
X51649999Y-98140582D01*
X51591809Y-98121674D01*
X51555846Y-98072175D01*
X51538887Y-98019981D01*
X51538885Y-98019978D01*
X51538884Y-98019977D01*
X51538884Y-98019975D01*
X51449524Y-97844595D01*
X51333828Y-97685354D01*
X51194646Y-97546172D01*
X51035405Y-97430476D01*
X51035404Y-97430475D01*
X51035402Y-97430474D01*
X50860025Y-97341116D01*
X50672821Y-97280289D01*
X50478420Y-97249500D01*
X50478417Y-97249500D01*
X50281583Y-97249500D01*
X50281580Y-97249500D01*
X50087176Y-97280290D01*
X50058227Y-97289696D01*
X49997041Y-97289695D01*
X49947542Y-97253731D01*
X49928635Y-97195540D01*
X49947543Y-97137350D01*
X49957627Y-97125541D01*
X50453673Y-96629496D01*
X50508190Y-96601719D01*
X50523677Y-96600500D01*
X53552414Y-96600500D01*
X53610605Y-96619407D01*
X53622418Y-96629496D01*
X53689711Y-96696789D01*
X53767876Y-96749017D01*
X53820814Y-96784390D01*
X53820825Y-96784396D01*
X53860895Y-96800993D01*
X53966503Y-96844737D01*
X54121158Y-96875500D01*
X54121159Y-96875500D01*
X54278841Y-96875500D01*
X54278842Y-96875500D01*
X54433497Y-96844737D01*
X54579179Y-96784394D01*
X54710289Y-96696789D01*
X54821789Y-96585289D01*
X54909394Y-96454179D01*
X54969737Y-96308497D01*
X55000500Y-96153842D01*
X55000500Y-95996158D01*
X54969737Y-95841503D01*
X54915016Y-95709394D01*
X54909396Y-95695825D01*
X54909390Y-95695814D01*
X54859927Y-95621789D01*
X54821789Y-95564711D01*
X54710289Y-95453211D01*
X54625116Y-95396300D01*
X54579185Y-95365609D01*
X54579174Y-95365603D01*
X54433497Y-95305263D01*
X54278844Y-95274500D01*
X54278842Y-95274500D01*
X54121158Y-95274500D01*
X54121155Y-95274500D01*
X53966503Y-95305263D01*
X53966501Y-95305263D01*
X53820825Y-95365603D01*
X53820814Y-95365609D01*
X53689711Y-95453211D01*
X53689707Y-95453214D01*
X53622418Y-95520504D01*
X53567901Y-95548281D01*
X53552414Y-95549500D01*
X51230204Y-95549500D01*
X51172013Y-95530593D01*
X51136049Y-95481093D01*
X51136049Y-95419907D01*
X51140114Y-95409455D01*
X51209067Y-95258110D01*
X51228624Y-95236762D01*
X51247430Y-95214744D01*
X51249991Y-95213438D01*
X51250398Y-95212995D01*
X51251171Y-95212837D01*
X51261271Y-95207691D01*
X51362292Y-95165846D01*
X51075156Y-94878710D01*
X63149500Y-94878710D01*
X63149500Y-95121289D01*
X63181161Y-95361781D01*
X63181161Y-95361786D01*
X63186564Y-95381950D01*
X63242847Y-95592000D01*
X63243944Y-95596092D01*
X63243948Y-95596105D01*
X63336772Y-95820204D01*
X63336774Y-95820208D01*
X63336776Y-95820212D01*
X63438359Y-95996159D01*
X63458066Y-96030292D01*
X63605729Y-96222731D01*
X63605731Y-96222733D01*
X63605735Y-96222738D01*
X63777262Y-96394265D01*
X63777266Y-96394268D01*
X63777268Y-96394270D01*
X63855351Y-96454185D01*
X63969711Y-96541936D01*
X64179788Y-96663224D01*
X64403900Y-96756054D01*
X64638211Y-96818838D01*
X64878712Y-96850500D01*
X64878713Y-96850500D01*
X65121287Y-96850500D01*
X65121288Y-96850500D01*
X65361789Y-96818838D01*
X65596100Y-96756054D01*
X65820212Y-96663224D01*
X66030289Y-96541936D01*
X66222738Y-96394265D01*
X66394265Y-96222738D01*
X66541936Y-96030289D01*
X66663224Y-95820212D01*
X66756054Y-95596100D01*
X66818838Y-95361789D01*
X66850500Y-95121288D01*
X66850500Y-94878712D01*
X66818838Y-94638211D01*
X66756054Y-94403900D01*
X66663224Y-94179788D01*
X66541936Y-93969711D01*
X66488444Y-93899999D01*
X66394270Y-93777268D01*
X66394268Y-93777266D01*
X66394265Y-93777262D01*
X66222738Y-93605735D01*
X66222733Y-93605731D01*
X66222731Y-93605729D01*
X66030292Y-93458066D01*
X66021516Y-93452999D01*
X65820212Y-93336776D01*
X65820208Y-93336774D01*
X65820204Y-93336772D01*
X65596105Y-93243948D01*
X65596104Y-93243947D01*
X65596100Y-93243946D01*
X65361789Y-93181162D01*
X65361786Y-93181161D01*
X65361784Y-93181161D01*
X65121289Y-93149500D01*
X65121288Y-93149500D01*
X64878712Y-93149500D01*
X64878710Y-93149500D01*
X64638218Y-93181161D01*
X64638213Y-93181161D01*
X64403907Y-93243944D01*
X64403894Y-93243948D01*
X64179795Y-93336772D01*
X63969707Y-93458066D01*
X63777268Y-93605729D01*
X63605729Y-93777268D01*
X63458066Y-93969707D01*
X63336772Y-94179795D01*
X63243948Y-94403894D01*
X63243944Y-94403907D01*
X63181161Y-94638213D01*
X63181161Y-94638218D01*
X63149500Y-94878710D01*
X51075156Y-94878710D01*
X50999999Y-94803553D01*
X50934048Y-94869505D01*
X50934048Y-94869506D01*
X50283051Y-95520503D01*
X50228534Y-95548280D01*
X50213047Y-95549499D01*
X50195817Y-95549499D01*
X50151267Y-95561435D01*
X50090409Y-95577742D01*
X50090408Y-95577743D01*
X50062164Y-95585312D01*
X50062163Y-95585312D01*
X50062161Y-95585313D01*
X50062156Y-95585315D01*
X49942335Y-95654494D01*
X49866641Y-95730188D01*
X49812124Y-95757965D01*
X49751692Y-95748393D01*
X49726634Y-95730188D01*
X49349999Y-95353553D01*
X48987706Y-95715845D01*
X49116645Y-95769255D01*
X49116651Y-95769257D01*
X49271204Y-95799999D01*
X49271208Y-95800000D01*
X49428792Y-95800000D01*
X49428795Y-95799999D01*
X49568124Y-95772285D01*
X49628885Y-95779477D01*
X49673815Y-95821009D01*
X49685752Y-95881019D01*
X49660136Y-95936584D01*
X49657442Y-95939387D01*
X48314384Y-97282445D01*
X48259867Y-97310222D01*
X48213788Y-97306596D01*
X48132823Y-97280290D01*
X47938420Y-97249500D01*
X47938417Y-97249500D01*
X47741583Y-97249500D01*
X47741580Y-97249500D01*
X47547178Y-97280289D01*
X47359974Y-97341116D01*
X47184597Y-97430474D01*
X47025355Y-97546171D01*
X46886171Y-97685355D01*
X46770474Y-97844597D01*
X46681114Y-98019978D01*
X46681112Y-98019981D01*
X46664154Y-98072175D01*
X46628190Y-98121675D01*
X46569999Y-98140582D01*
X46511809Y-98121674D01*
X46475846Y-98072175D01*
X46458887Y-98019981D01*
X46458885Y-98019978D01*
X46458884Y-98019977D01*
X46458884Y-98019975D01*
X46369524Y-97844595D01*
X46253828Y-97685354D01*
X46114646Y-97546172D01*
X45955405Y-97430476D01*
X45955404Y-97430475D01*
X45955402Y-97430474D01*
X45780025Y-97341116D01*
X45592821Y-97280289D01*
X45398420Y-97249500D01*
X45398417Y-97249500D01*
X45201583Y-97249500D01*
X45201580Y-97249500D01*
X45007178Y-97280289D01*
X44819974Y-97341116D01*
X44794445Y-97354124D01*
X44734012Y-97363695D01*
X44679496Y-97335917D01*
X44651719Y-97281400D01*
X44650500Y-97265914D01*
X44650500Y-95165845D01*
X48437706Y-95165845D01*
X48538728Y-95207691D01*
X48585254Y-95247428D01*
X48592306Y-95261269D01*
X48634152Y-95362292D01*
X48996446Y-94999999D01*
X48966610Y-94970163D01*
X49200000Y-94970163D01*
X49200000Y-95029837D01*
X49222836Y-95084968D01*
X49265032Y-95127164D01*
X49320163Y-95150000D01*
X49379837Y-95150000D01*
X49434968Y-95127164D01*
X49477164Y-95084968D01*
X49500000Y-95029837D01*
X49500000Y-95000000D01*
X49703553Y-95000000D01*
X49899999Y-95196445D01*
X50096446Y-94999999D01*
X50066610Y-94970163D01*
X50300000Y-94970163D01*
X50300000Y-95029837D01*
X50322836Y-95084968D01*
X50365032Y-95127164D01*
X50420163Y-95150000D01*
X50479837Y-95150000D01*
X50534968Y-95127164D01*
X50577164Y-95084968D01*
X50600000Y-95029837D01*
X50600000Y-94970163D01*
X50577164Y-94915032D01*
X50534968Y-94872836D01*
X50479837Y-94850000D01*
X50420163Y-94850000D01*
X50365032Y-94872836D01*
X50322836Y-94915032D01*
X50300000Y-94970163D01*
X50066610Y-94970163D01*
X49965957Y-94869510D01*
X49965951Y-94869505D01*
X49900000Y-94803553D01*
X49834049Y-94869505D01*
X49834048Y-94869506D01*
X49703553Y-95000000D01*
X49500000Y-95000000D01*
X49500000Y-94970163D01*
X49477164Y-94915032D01*
X49434968Y-94872836D01*
X49379837Y-94850000D01*
X49320163Y-94850000D01*
X49265032Y-94872836D01*
X49222836Y-94915032D01*
X49200000Y-94970163D01*
X48966610Y-94970163D01*
X48865957Y-94869510D01*
X48865951Y-94869505D01*
X48800000Y-94803553D01*
X48437706Y-95165845D01*
X44650500Y-95165845D01*
X44650500Y-94933676D01*
X44669407Y-94875485D01*
X44679490Y-94863678D01*
X45171964Y-94371204D01*
X48000000Y-94371204D01*
X48000000Y-94528792D01*
X48030742Y-94683349D01*
X48084152Y-94812292D01*
X48446445Y-94449999D01*
X48416609Y-94420163D01*
X48650000Y-94420163D01*
X48650000Y-94479837D01*
X48672836Y-94534968D01*
X48715032Y-94577164D01*
X48770163Y-94600000D01*
X48829837Y-94600000D01*
X48884968Y-94577164D01*
X48927164Y-94534968D01*
X48950000Y-94479837D01*
X48950000Y-94449999D01*
X49153553Y-94449999D01*
X49153553Y-94450000D01*
X49232346Y-94528792D01*
X49232347Y-94528794D01*
X49350000Y-94646446D01*
X49467654Y-94528793D01*
X49546446Y-94450000D01*
X49546446Y-94449999D01*
X49516610Y-94420163D01*
X49750000Y-94420163D01*
X49750000Y-94479837D01*
X49772836Y-94534968D01*
X49815032Y-94577164D01*
X49870163Y-94600000D01*
X49929837Y-94600000D01*
X49984968Y-94577164D01*
X50027164Y-94534968D01*
X50050000Y-94479837D01*
X50050000Y-94449999D01*
X50253553Y-94449999D01*
X50253553Y-94450000D01*
X50332346Y-94528792D01*
X50332347Y-94528794D01*
X50450000Y-94646446D01*
X50567654Y-94528793D01*
X50646446Y-94450000D01*
X50646446Y-94449999D01*
X50616610Y-94420163D01*
X50850000Y-94420163D01*
X50850000Y-94479837D01*
X50872836Y-94534968D01*
X50915032Y-94577164D01*
X50970163Y-94600000D01*
X51029837Y-94600000D01*
X51084968Y-94577164D01*
X51127164Y-94534968D01*
X51150000Y-94479837D01*
X51150000Y-94449999D01*
X51353553Y-94449999D01*
X51715845Y-94812291D01*
X51769256Y-94683350D01*
X51769257Y-94683348D01*
X51800000Y-94528792D01*
X51800000Y-94371207D01*
X51799999Y-94371204D01*
X51769257Y-94216651D01*
X51769255Y-94216645D01*
X51715845Y-94087706D01*
X51353553Y-94449999D01*
X51150000Y-94449999D01*
X51150000Y-94420163D01*
X51127164Y-94365032D01*
X51084968Y-94322836D01*
X51029837Y-94300000D01*
X50970163Y-94300000D01*
X50915032Y-94322836D01*
X50872836Y-94365032D01*
X50850000Y-94420163D01*
X50616610Y-94420163D01*
X50548223Y-94351776D01*
X50548223Y-94351777D01*
X50449999Y-94253553D01*
X50351775Y-94351776D01*
X50253553Y-94449999D01*
X50050000Y-94449999D01*
X50050000Y-94420163D01*
X50027164Y-94365032D01*
X49984968Y-94322836D01*
X49929837Y-94300000D01*
X49870163Y-94300000D01*
X49815032Y-94322836D01*
X49772836Y-94365032D01*
X49750000Y-94420163D01*
X49516610Y-94420163D01*
X49448223Y-94351776D01*
X49448223Y-94351777D01*
X49349999Y-94253553D01*
X49251775Y-94351776D01*
X49153553Y-94449999D01*
X48950000Y-94449999D01*
X48950000Y-94420163D01*
X48927164Y-94365032D01*
X48884968Y-94322836D01*
X48829837Y-94300000D01*
X48770163Y-94300000D01*
X48715032Y-94322836D01*
X48672836Y-94365032D01*
X48650000Y-94420163D01*
X48416609Y-94420163D01*
X48084153Y-94087706D01*
X48084152Y-94087706D01*
X48030743Y-94216647D01*
X48030743Y-94216649D01*
X48000000Y-94371204D01*
X45171964Y-94371204D01*
X45345246Y-94197922D01*
X45345249Y-94197921D01*
X45443089Y-94100081D01*
X45512272Y-93980252D01*
X45530178Y-93913425D01*
X45533775Y-93900000D01*
X48603553Y-93900000D01*
X48800000Y-94096446D01*
X48926736Y-93969711D01*
X48996446Y-93900000D01*
X48996446Y-93899999D01*
X48966610Y-93870163D01*
X49200000Y-93870163D01*
X49200000Y-93929837D01*
X49222836Y-93984968D01*
X49265032Y-94027164D01*
X49320163Y-94050000D01*
X49379837Y-94050000D01*
X49434968Y-94027164D01*
X49477164Y-93984968D01*
X49500000Y-93929837D01*
X49500000Y-93900000D01*
X49703553Y-93900000D01*
X49773264Y-93969710D01*
X49773265Y-93969712D01*
X49900000Y-94096446D01*
X50026736Y-93969711D01*
X50096446Y-93900000D01*
X50096446Y-93899999D01*
X50066610Y-93870163D01*
X50300000Y-93870163D01*
X50300000Y-93929837D01*
X50322836Y-93984968D01*
X50365032Y-94027164D01*
X50420163Y-94050000D01*
X50479837Y-94050000D01*
X50534968Y-94027164D01*
X50577164Y-93984968D01*
X50600000Y-93929837D01*
X50600000Y-93900000D01*
X50803553Y-93900000D01*
X50873264Y-93969710D01*
X50873265Y-93969712D01*
X50999999Y-94096445D01*
X51196446Y-93899999D01*
X51000000Y-93703553D01*
X50942694Y-93760860D01*
X50942693Y-93760861D01*
X50803553Y-93900000D01*
X50600000Y-93900000D01*
X50600000Y-93870163D01*
X50577164Y-93815032D01*
X50534968Y-93772836D01*
X50479837Y-93750000D01*
X50420163Y-93750000D01*
X50365032Y-93772836D01*
X50322836Y-93815032D01*
X50300000Y-93870163D01*
X50066610Y-93870163D01*
X49957312Y-93760865D01*
X49957306Y-93760860D01*
X49900000Y-93703553D01*
X49842694Y-93760860D01*
X49842693Y-93760861D01*
X49703553Y-93900000D01*
X49500000Y-93900000D01*
X49500000Y-93870163D01*
X49477164Y-93815032D01*
X49434968Y-93772836D01*
X49379837Y-93750000D01*
X49320163Y-93750000D01*
X49265032Y-93772836D01*
X49222836Y-93815032D01*
X49200000Y-93870163D01*
X48966610Y-93870163D01*
X48857312Y-93760865D01*
X48857306Y-93760860D01*
X48800000Y-93703553D01*
X48603553Y-93900000D01*
X45533775Y-93900000D01*
X45548084Y-93846600D01*
X45548084Y-93708233D01*
X45548084Y-93271204D01*
X48000000Y-93271204D01*
X48000000Y-93428792D01*
X48030742Y-93583349D01*
X48084152Y-93712292D01*
X48446446Y-93349999D01*
X48416610Y-93320163D01*
X48650000Y-93320163D01*
X48650000Y-93379837D01*
X48672836Y-93434968D01*
X48715032Y-93477164D01*
X48770163Y-93500000D01*
X48829837Y-93500000D01*
X48884968Y-93477164D01*
X48927164Y-93434968D01*
X48950000Y-93379837D01*
X48950000Y-93350000D01*
X49153553Y-93350000D01*
X49232346Y-93428792D01*
X49232347Y-93428794D01*
X49350000Y-93546446D01*
X49467654Y-93428793D01*
X49546446Y-93350000D01*
X49546446Y-93349999D01*
X49516610Y-93320163D01*
X49750000Y-93320163D01*
X49750000Y-93379837D01*
X49772836Y-93434968D01*
X49815032Y-93477164D01*
X49870163Y-93500000D01*
X49929837Y-93500000D01*
X49984968Y-93477164D01*
X50027164Y-93434968D01*
X50050000Y-93379837D01*
X50050000Y-93350000D01*
X50253553Y-93350000D01*
X50332346Y-93428792D01*
X50332347Y-93428794D01*
X50450000Y-93546446D01*
X50567654Y-93428793D01*
X50646446Y-93350000D01*
X50646446Y-93349999D01*
X50616610Y-93320163D01*
X50850000Y-93320163D01*
X50850000Y-93379837D01*
X50872836Y-93434968D01*
X50915032Y-93477164D01*
X50970163Y-93500000D01*
X51029837Y-93500000D01*
X51084968Y-93477164D01*
X51127164Y-93434968D01*
X51150000Y-93379837D01*
X51150000Y-93349999D01*
X51353553Y-93349999D01*
X51715846Y-93712292D01*
X51769255Y-93583354D01*
X51769257Y-93583348D01*
X51800000Y-93428792D01*
X51800000Y-93271207D01*
X51799999Y-93271204D01*
X51769257Y-93116651D01*
X51769255Y-93116645D01*
X51715845Y-92987706D01*
X51353553Y-93349999D01*
X51150000Y-93349999D01*
X51150000Y-93320163D01*
X51127164Y-93265032D01*
X51084968Y-93222836D01*
X51029837Y-93200000D01*
X50970163Y-93200000D01*
X50915032Y-93222836D01*
X50872836Y-93265032D01*
X50850000Y-93320163D01*
X50616610Y-93320163D01*
X50514955Y-93218508D01*
X50514949Y-93218503D01*
X50450000Y-93153553D01*
X50385051Y-93218503D01*
X50385050Y-93218504D01*
X50253553Y-93350000D01*
X50050000Y-93350000D01*
X50050000Y-93320163D01*
X50027164Y-93265032D01*
X49984968Y-93222836D01*
X49929837Y-93200000D01*
X49870163Y-93200000D01*
X49815032Y-93222836D01*
X49772836Y-93265032D01*
X49750000Y-93320163D01*
X49516610Y-93320163D01*
X49414955Y-93218508D01*
X49414949Y-93218503D01*
X49350000Y-93153553D01*
X49285051Y-93218503D01*
X49285050Y-93218504D01*
X49153553Y-93350000D01*
X48950000Y-93350000D01*
X48950000Y-93320163D01*
X48927164Y-93265032D01*
X48884968Y-93222836D01*
X48829837Y-93200000D01*
X48770163Y-93200000D01*
X48715032Y-93222836D01*
X48672836Y-93265032D01*
X48650000Y-93320163D01*
X48416610Y-93320163D01*
X48084153Y-92987706D01*
X48084152Y-92987706D01*
X48030743Y-93116647D01*
X48030743Y-93116649D01*
X48000000Y-93271204D01*
X45548084Y-93271204D01*
X45548084Y-92634152D01*
X48437706Y-92634152D01*
X48437706Y-92634153D01*
X48800000Y-92996446D01*
X48909602Y-92886845D01*
X48996446Y-92800000D01*
X48996446Y-92799999D01*
X48966610Y-92770163D01*
X49200000Y-92770163D01*
X49200000Y-92829837D01*
X49222836Y-92884968D01*
X49265032Y-92927164D01*
X49320163Y-92950000D01*
X49379837Y-92950000D01*
X49434968Y-92927164D01*
X49477164Y-92884968D01*
X49500000Y-92829837D01*
X49500000Y-92800000D01*
X49703553Y-92800000D01*
X49790398Y-92886844D01*
X49790399Y-92886846D01*
X49900000Y-92996446D01*
X50009602Y-92886845D01*
X50096446Y-92800000D01*
X50096446Y-92799999D01*
X50066610Y-92770163D01*
X50300000Y-92770163D01*
X50300000Y-92829837D01*
X50322836Y-92884968D01*
X50365032Y-92927164D01*
X50420163Y-92950000D01*
X50479837Y-92950000D01*
X50534968Y-92927164D01*
X50577164Y-92884968D01*
X50600000Y-92829837D01*
X50600000Y-92799999D01*
X50803553Y-92799999D01*
X50803553Y-92800000D01*
X50890398Y-92886844D01*
X50890399Y-92886846D01*
X50999999Y-92996445D01*
X51362292Y-92634152D01*
X51261269Y-92592306D01*
X51214743Y-92552569D01*
X51207691Y-92538728D01*
X51165845Y-92437706D01*
X50803553Y-92799999D01*
X50600000Y-92799999D01*
X50600000Y-92770163D01*
X50577164Y-92715032D01*
X50534968Y-92672836D01*
X50479837Y-92650000D01*
X50420163Y-92650000D01*
X50365032Y-92672836D01*
X50322836Y-92715032D01*
X50300000Y-92770163D01*
X50066610Y-92770163D01*
X49900000Y-92603553D01*
X49703553Y-92800000D01*
X49500000Y-92800000D01*
X49500000Y-92770163D01*
X49477164Y-92715032D01*
X49434968Y-92672836D01*
X49379837Y-92650000D01*
X49320163Y-92650000D01*
X49265032Y-92672836D01*
X49222836Y-92715032D01*
X49200000Y-92770163D01*
X48966610Y-92770163D01*
X48634153Y-92437706D01*
X48634152Y-92437706D01*
X48592307Y-92538729D01*
X48552570Y-92585255D01*
X48538729Y-92592307D01*
X48437706Y-92634152D01*
X45548084Y-92634152D01*
X45548084Y-92084152D01*
X48987706Y-92084152D01*
X48987706Y-92084153D01*
X49349999Y-92446445D01*
X49712292Y-92084152D01*
X50087706Y-92084152D01*
X50087706Y-92084153D01*
X50449999Y-92446445D01*
X50812292Y-92084152D01*
X50683349Y-92030742D01*
X50528795Y-92000000D01*
X50371204Y-92000000D01*
X50216649Y-92030743D01*
X50216647Y-92030743D01*
X50087706Y-92084152D01*
X49712292Y-92084152D01*
X49583349Y-92030742D01*
X49428795Y-92000000D01*
X49271204Y-92000000D01*
X49116649Y-92030743D01*
X49116647Y-92030743D01*
X48987706Y-92084152D01*
X45548084Y-92084152D01*
X45548084Y-90286705D01*
X45566991Y-90228514D01*
X45616491Y-90192550D01*
X45666396Y-90189607D01*
X45721158Y-90200500D01*
X45721159Y-90200500D01*
X45878841Y-90200500D01*
X45878842Y-90200500D01*
X46033497Y-90169737D01*
X46179179Y-90109394D01*
X46310289Y-90021789D01*
X46421789Y-89910289D01*
X46509394Y-89779179D01*
X46569737Y-89633497D01*
X46600500Y-89478842D01*
X46600500Y-89478841D01*
X46600993Y-89476363D01*
X46628085Y-89425675D01*
X47421065Y-88632696D01*
X47475582Y-88604919D01*
X47491069Y-88603700D01*
X59079479Y-88603700D01*
X59200568Y-88571253D01*
X59200571Y-88571253D01*
X59218302Y-88566502D01*
X59233020Y-88562559D01*
X59370680Y-88483081D01*
X61283080Y-86570681D01*
X61337692Y-86476089D01*
X61357061Y-86442542D01*
X61357066Y-86442531D01*
X61357100Y-86442474D01*
X61362559Y-86433019D01*
X61403700Y-86279479D01*
X61403700Y-86167391D01*
X61420385Y-86112389D01*
X61421786Y-86110291D01*
X61421789Y-86110289D01*
X61509394Y-85979179D01*
X61569737Y-85833497D01*
X61600500Y-85678842D01*
X61600500Y-85521158D01*
X61569737Y-85366503D01*
X61541054Y-85297256D01*
X61509396Y-85220825D01*
X61509390Y-85220814D01*
X61453115Y-85136594D01*
X61421789Y-85089711D01*
X61310289Y-84978211D01*
X61258059Y-84943312D01*
X61179185Y-84890609D01*
X61179174Y-84890603D01*
X61033497Y-84830263D01*
X60878844Y-84799500D01*
X60878842Y-84799500D01*
X60782677Y-84799500D01*
X60724486Y-84780593D01*
X60688522Y-84731093D01*
X60688522Y-84669907D01*
X60712673Y-84630496D01*
X61913673Y-83429496D01*
X61968190Y-83401719D01*
X61983677Y-83400500D01*
X62078841Y-83400500D01*
X62078842Y-83400500D01*
X62233497Y-83369737D01*
X62379179Y-83309394D01*
X62510289Y-83221789D01*
X62621789Y-83110289D01*
X62709394Y-82979179D01*
X62769737Y-82833497D01*
X62800500Y-82678842D01*
X62800500Y-82521158D01*
X62769737Y-82366503D01*
X62709394Y-82220821D01*
X62709393Y-82220819D01*
X62709390Y-82220814D01*
X62665077Y-82154496D01*
X62621789Y-82089711D01*
X62510289Y-81978211D01*
X62458059Y-81943312D01*
X62379185Y-81890609D01*
X62379174Y-81890603D01*
X62233497Y-81830263D01*
X62078844Y-81799500D01*
X62078842Y-81799500D01*
X61921158Y-81799500D01*
X61921155Y-81799500D01*
X61766503Y-81830263D01*
X61766501Y-81830263D01*
X61620825Y-81890603D01*
X61620814Y-81890609D01*
X61489711Y-81978211D01*
X61489707Y-81978214D01*
X61378214Y-82089707D01*
X61378211Y-82089711D01*
X61290609Y-82220814D01*
X61290603Y-82220825D01*
X61230263Y-82366501D01*
X61230263Y-82366503D01*
X61199500Y-82521155D01*
X61199500Y-82616322D01*
X61180593Y-82674513D01*
X61170504Y-82686326D01*
X59752335Y-84104495D01*
X59752334Y-84104494D01*
X59654494Y-84202335D01*
X59585313Y-84322160D01*
X59585312Y-84322162D01*
X59584418Y-84325500D01*
X59581176Y-84337601D01*
X59581175Y-84337604D01*
X59581174Y-84337606D01*
X59549499Y-84455814D01*
X59549499Y-84602157D01*
X59549500Y-84602170D01*
X59549500Y-85866322D01*
X59530593Y-85924513D01*
X59520504Y-85936326D01*
X58539527Y-86917304D01*
X58485010Y-86945081D01*
X58469523Y-86946300D01*
X54635877Y-86946300D01*
X54577686Y-86927393D01*
X54541722Y-86877893D01*
X54541722Y-86816707D01*
X54565873Y-86777296D01*
X55913673Y-85429496D01*
X55968190Y-85401719D01*
X55983677Y-85400500D01*
X56078841Y-85400500D01*
X56078842Y-85400500D01*
X56233497Y-85369737D01*
X56379179Y-85309394D01*
X56510289Y-85221789D01*
X56621789Y-85110289D01*
X56709394Y-84979179D01*
X56769737Y-84833497D01*
X56800500Y-84678842D01*
X56800500Y-84521158D01*
X56769737Y-84366503D01*
X56769442Y-84365791D01*
X56709396Y-84220825D01*
X56709390Y-84220814D01*
X56631667Y-84104495D01*
X56621789Y-84089711D01*
X56510289Y-83978211D01*
X56458059Y-83943312D01*
X56379185Y-83890609D01*
X56379174Y-83890603D01*
X56233497Y-83830263D01*
X56078844Y-83799500D01*
X56078842Y-83799500D01*
X55921158Y-83799500D01*
X55921155Y-83799500D01*
X55766503Y-83830263D01*
X55766501Y-83830263D01*
X55620825Y-83890603D01*
X55620814Y-83890609D01*
X55489711Y-83978211D01*
X55489707Y-83978214D01*
X55378214Y-84089707D01*
X55378211Y-84089711D01*
X55290609Y-84220814D01*
X55290603Y-84220825D01*
X55230264Y-84366500D01*
X55199500Y-84521155D01*
X55199500Y-84616323D01*
X55180593Y-84674514D01*
X55170504Y-84686327D01*
X53389527Y-86467304D01*
X53335010Y-86495081D01*
X53319523Y-86496300D01*
X46481171Y-86496300D01*
X46481155Y-86496299D01*
X46475092Y-86496299D01*
X46336725Y-86496299D01*
X46254927Y-86518216D01*
X46203068Y-86532112D01*
X46083247Y-86601291D01*
X46083242Y-86601295D01*
X45647516Y-87037023D01*
X45592999Y-87064801D01*
X45577512Y-87066020D01*
X45516462Y-87066020D01*
X45378095Y-87066020D01*
X45311269Y-87083926D01*
X45311268Y-87083925D01*
X45244446Y-87101830D01*
X45124611Y-87171017D01*
X45026773Y-87268854D01*
X45026774Y-87268855D01*
X45026772Y-87268857D01*
X44699921Y-87595708D01*
X44699919Y-87595710D01*
X44699918Y-87595709D01*
X44602081Y-87693547D01*
X44602079Y-87693549D01*
X44602079Y-87693550D01*
X44532896Y-87813379D01*
X44526835Y-87836000D01*
X44497083Y-87947029D01*
X44497083Y-88093372D01*
X44497084Y-88093385D01*
X44497084Y-93518738D01*
X44478177Y-93576929D01*
X44468088Y-93588742D01*
X43802335Y-94254495D01*
X43802334Y-94254494D01*
X43704497Y-94352332D01*
X43704495Y-94352334D01*
X43704495Y-94352335D01*
X43635312Y-94472164D01*
X43635312Y-94472165D01*
X43635311Y-94472167D01*
X43631938Y-94484755D01*
X43631938Y-94484756D01*
X43599499Y-94605814D01*
X43599499Y-94752157D01*
X43599500Y-94752170D01*
X43599500Y-100346537D01*
X43599499Y-100346555D01*
X43599499Y-100490982D01*
X43619734Y-100566502D01*
X43635312Y-100624636D01*
X43689436Y-100718382D01*
X43702700Y-100767881D01*
X43702700Y-100878842D01*
X43726899Y-101000500D01*
X43733463Y-101033496D01*
X43733463Y-101033498D01*
X43793803Y-101179174D01*
X43793809Y-101179185D01*
X43846512Y-101258059D01*
X43881411Y-101310289D01*
X43992911Y-101421789D01*
X44044406Y-101456197D01*
X44082284Y-101504244D01*
X44084686Y-101565382D01*
X44059407Y-101608513D01*
X43960566Y-101707354D01*
X43960558Y-101707364D01*
X43872956Y-101838467D01*
X43872950Y-101838478D01*
X43812610Y-101984154D01*
X43812610Y-101984156D01*
X43781847Y-102138808D01*
X43781847Y-102296497D01*
X43796734Y-102371338D01*
X43809233Y-102434175D01*
X43812610Y-102451149D01*
X43812610Y-102451151D01*
X43872950Y-102596827D01*
X43872956Y-102596838D01*
X43922744Y-102671350D01*
X43960558Y-102727942D01*
X44072058Y-102839442D01*
X44150223Y-102891670D01*
X44203161Y-102927043D01*
X44203172Y-102927049D01*
X44256985Y-102949338D01*
X44348850Y-102987390D01*
X44503505Y-103018153D01*
X44598670Y-103018153D01*
X44656861Y-103037060D01*
X44668673Y-103047148D01*
X45842029Y-104220505D01*
X45842031Y-104220506D01*
X45844690Y-104222041D01*
X45846166Y-104223679D01*
X45847180Y-104224458D01*
X45847035Y-104224645D01*
X45885637Y-104267506D01*
X45894200Y-104307783D01*
X45894200Y-108402623D01*
X45894199Y-108402641D01*
X45894199Y-108547071D01*
X45916764Y-108631282D01*
X45916764Y-108631283D01*
X45930010Y-108680718D01*
X45930011Y-108680720D01*
X45930012Y-108680722D01*
X45999195Y-108800551D01*
X46097035Y-108898391D01*
X46097037Y-108898392D01*
X47019140Y-109820496D01*
X47046917Y-109875013D01*
X47037346Y-109935445D01*
X46994081Y-109978710D01*
X46949136Y-109989500D01*
X43109500Y-109989500D01*
X43051309Y-109970593D01*
X43015345Y-109921093D01*
X43010500Y-109890500D01*
X43010500Y-80109500D01*
X43029407Y-80051309D01*
X43078907Y-80015345D01*
X43109500Y-80010500D01*
X131490500Y-80010500D01*
X131548691Y-80029407D01*
G37*
%TD.AperFunction*%
%TD*%
M02*
