M48
; DRILL file {KiCad 9.0.9} date 2026-10-03T19:22:29-0400
; FORMAT={-:-/ absolute / metric / decimal}
; #@! TF.CreationDate,2026-10-03T19:22:29-04:00
; #@! TF.GenerationSoftware,Kicad,Pcbnew,9.0.9
; #@! TF.FileFunction,Plated,1,2,PTH
FMAT,2
METRIC
; #@! TA.AperFunction,Plated,PTH,ComponentDrill
T1C0.300
; #@! TA.AperFunction,Plated,PTH,ViaDrill
T2C0.400
; #@! TA.AperFunction,Plated,PTH,ComponentDrill
T3C0.760
; #@! TA.AperFunction,Plated,PTH,ComponentDrill
T4C1.000
%
G90
G05
T1
X48.8Y-93.35
X48.8Y-94.45
X49.35Y-92.8
X49.35Y-93.9
X49.35Y-95.0
X49.9Y-93.35
X49.9Y-94.45
X50.45Y-92.8
X50.45Y-93.9
X50.45Y-95.0
X51.0Y-93.35
X51.0Y-94.45
T2
X44.503Y-100.8
X44.582Y-102.218
X45.035Y-107.387
X45.748Y-88.317
X45.8Y-89.4
X48.671Y-101.871
X49.4Y-105.0
X50.2Y-82.6
X52.0Y-105.6
X52.744Y-82.659
X52.981Y-108.473
X54.2Y-96.075
X55.6Y-101.8
X56.0Y-84.6
X56.8Y-105.0
X57.653Y-107.268
X60.8Y-85.6
X61.4Y-88.6
X62.0Y-82.6
X62.203Y-103.8
X62.4Y-106.4
X67.2Y-102.625
X70.6Y-85.8
X72.6Y-103.0
X72.8Y-107.4
X73.6Y-85.0
X73.6Y-108.8
X74.4Y-95.4
X79.0Y-93.0
X79.2Y-98.2
X79.8Y-90.6
X79.8Y-96.0
X80.0Y-105.2
X80.4Y-92.6
X80.6Y-108.8
X82.2Y-84.4
X82.4Y-89.206
X85.2Y-85.4
X85.2Y-92.6
X85.263Y-90.404
X85.8Y-98.0
X87.2Y-87.6
X87.6Y-82.4
X88.6Y-91.6
X88.8Y-89.656
X89.0Y-93.0
X89.6Y-104.6
X90.936Y-88.625
X91.2Y-81.6
X91.2Y-82.8
X91.2Y-86.2
X92.8Y-91.6
X94.2Y-96.2
X95.8Y-91.4
X97.587Y-90.387
X98.6Y-84.6
X99.0Y-88.2
X102.8Y-102.8
X103.2Y-84.4
X103.2Y-87.8
X106.4Y-91.6
X106.4Y-106.4
X107.0Y-86.0
X108.2Y-102.8
X108.6Y-89.0
X109.8Y-95.0
X109.8Y-98.4
X110.6Y-106.45
X111.6Y-85.8
X111.6Y-108.8
X112.8Y-87.8
X114.2Y-106.4
X114.8Y-82.6
X116.8Y-86.8
X117.2Y-105.2
X127.8Y-109.0
T3
X119.885Y-90.392
X119.885Y-92.932
X119.885Y-95.472
X119.885Y-98.012
X122.425Y-91.662
X122.425Y-94.203
X122.425Y-96.742
X122.425Y-99.282
T4
X45.3Y-98.5
X47.84Y-98.5
X50.38Y-98.5
X52.92Y-98.5
X55.46Y-98.5
X58.0Y-98.5
M30
